<?xml version="1.0" encoding="utf-8"?>
<!-- Generator: Adobe Illustrator 28.2.0, SVG Export Plug-In . SVG Version: 6.00 Build 0)  -->
<svg version="1.1" id="Capa_1" xmlns="http://www.w3.org/2000/svg" xmlns:xlink="http://www.w3.org/1999/xlink" x="0px" y="0px"
	 viewBox="0 0 283.5 113.4" style="enable-background:new 0 0 283.5 113.4;" xml:space="preserve">
<style type="text/css">
	.st0{fill:#FFFFFF;}
</style>
<text transform="matrix(1 0 0 1 150.5442 708.9955)" style="fill:#414345; font-family:'Montserrat-Medium'; font-size:9.7807px;">Archivo General del Estado</text>
<g>
	
		<text transform="matrix(1 0 0 1 150.8245 694.9018)" style="fill:#AF3F3A; font-family:'Montserrat-SemiBold'; font-size:25.9616px;">ARCHIVO</text>
</g>
<g>
	<g>
		<path class="st0" d="M81.1,37.4c-3.1,0-5.5,2.4-5.5,5.6c0,3.2,2.4,5.6,5.5,5.6c1.6,0,3.4-0.8,4.7-2.1l2.4,2.6
			c-1.9,2-4.7,3.2-7.3,3.2c-5.4,0-9.5-4-9.5-9.3c0-5.2,4.2-9.2,9.7-9.2c2.6,0,5.4,1.2,7.2,3l-2.4,2.9C84.6,38.3,82.8,37.4,81.1,37.4
			z"/>
		<path class="st0" d="M104.3,33.9v3.4h-9.7v3.9h8.7v3.4h-8.7v4h10V52H90.5V33.9H104.3z"/>
		<path class="st0" d="M121.4,33.9v3.4h-9.7v3.9h8.7v3.4h-8.7v4h10V52h-14.1V33.9H121.4z"/>
		<path class="st0" d="M136.6,48.6h-8.4l-1.4,3.5h-4.2l7.9-18.2h4.2l7.8,18.2H138L136.6,48.6z M135.3,45.3l-2.9-7.1l-2.9,7.1H135.3z
			"/>
		<path class="st0" d="M148.2,33.9v18.2h-4.1V33.9H148.2z"/>
		<path class="st0" d="M154.3,33.9l5,13.7l5-13.7h4.2l-7.2,18.2h-4.2L150,33.9H154.3z"/>
	</g>
</g>
<g>
	<g>
		<path class="st0" d="M73.9,61.8c-1.3,0-2.3,1-2.3,2.3c0,1.3,1,2.3,2.3,2.3c0.7,0,1.3-0.3,1.9-0.8l0.8,0.9
			c-0.7,0.7-1.7,1.2-2.7,1.2c-2,0-3.6-1.5-3.6-3.5s1.6-3.5,3.6-3.5c1,0,2,0.4,2.6,1.1l-0.8,1C75.3,62.2,74.6,61.8,73.9,61.8z"/>
		<path class="st0" d="M82.6,64.9c0,1.6-1.1,2.7-2.7,2.7c-1.7,0-2.8-1.1-2.8-2.7s1.1-2.7,2.8-2.7C81.5,62.3,82.6,63.3,82.6,64.9z
			 M78.4,65c0,0.9,0.6,1.6,1.5,1.6s1.5-0.6,1.5-1.6c0-0.9-0.6-1.6-1.5-1.6S78.4,64,78.4,65z"/>
		<path class="st0" d="M92.5,64.3v3.3h-1.3v-2.9c0-0.7-0.4-1.2-1.1-1.2c-0.8,0-1.3,0.7-1.3,1.5v2.6h-1.3v-2.9c0-0.7-0.4-1.2-1.1-1.2
			c-0.8,0-1.3,0.7-1.3,1.5v2.6h-1.3v-5.2H85v1c0.4-0.7,1-1,1.8-1c0.9,0,1.6,0.5,1.8,1.3c0.3-0.9,1-1.2,1.9-1.3
			C91.8,62.3,92.5,63,92.5,64.3z"/>
		<path class="st0" d="M95.2,60.8c0,0.4-0.3,0.7-0.7,0.7c-0.4,0-0.7-0.3-0.7-0.7s0.3-0.7,0.7-0.7C94.9,60.1,95.2,60.4,95.2,60.8z
			 M95.2,62.3v5.2h-1.3v-5.2H95.2z"/>
		<path class="st0" d="M98.3,63.3c-0.4,0-0.7,0.1-0.7,0.5c0,0.9,2.8,0.4,2.8,2.3c0,1.1-0.9,1.6-2.1,1.6c-0.8,0-1.6-0.3-2.2-0.7
			l0.4-0.9c0.5,0.4,1.2,0.6,1.8,0.6c0.4,0,0.8-0.1,0.8-0.5c0-1-2.7-0.4-2.7-2.3c0-1.1,0.9-1.6,2-1.6c0.7,0,1.4,0.2,1.9,0.6l-0.5,0.9
			C99.3,63.4,98.8,63.3,98.3,63.3z"/>
		<path class="st0" d="M102.8,60.8c0,0.4-0.3,0.7-0.7,0.7c-0.4,0-0.7-0.3-0.7-0.7s0.3-0.7,0.7-0.7S102.8,60.4,102.8,60.8z
			 M102.7,62.3v5.2h-1.3v-5.2H102.7z"/>
		<path class="st0" d="M109.3,64.9c0,1.6-1.1,2.7-2.7,2.7c-1.7,0-2.8-1.1-2.8-2.7s1.1-2.7,2.8-2.7C108.2,62.3,109.3,63.3,109.3,64.9
			z M105.1,65c0,0.9,0.6,1.6,1.5,1.6s1.5-0.6,1.5-1.6c0-0.9-0.6-1.6-1.5-1.6S105.1,64,105.1,65z M108.2,60.6l-1.2,1h-1.1l1-1.5
			L108.2,60.6z"/>
		<path class="st0" d="M115.5,64.3v3.3h-1.3v-2.9c0-0.7-0.4-1.2-1.2-1.2c-0.9,0-1.4,0.6-1.4,1.5v2.6h-1.3v-5.2h1.3v1
			c0.4-0.7,1-1,1.9-1C114.8,62.3,115.5,63,115.5,64.3z"/>
		<path class="st0" d="M125,60.7v1.1h-3.7v1.7h3.3v1.1h-3.3v1.7h3.8v1.1H120v-6.8h5V60.7z"/>
		<path class="st0" d="M125.9,69.5c-0.4,0-0.8-0.1-1.2-0.4l0.4-1c0.2,0.1,0.4,0.2,0.6,0.2c0.3,0,0.6-0.2,0.6-0.7v-5.4h1.3v5.4
			C127.6,68.9,126.8,69.5,125.9,69.5z M127.8,60.8c0,0.4-0.3,0.8-0.8,0.8c-0.4,0-0.8-0.3-0.8-0.8c0-0.4,0.3-0.8,0.8-0.8
			C127.5,60.1,127.8,60.4,127.8,60.8z"/>
		<path class="st0" d="M133.9,65.4H130c0.2,0.7,0.7,1.2,1.5,1.2c0.5,0,1-0.2,1.4-0.6l0.7,0.7c-0.5,0.6-1.3,0.9-2.2,0.9
			c-1.6,0-2.7-1.1-2.7-2.7s1.1-2.7,2.7-2.7C133.3,62.3,134.1,63.5,133.9,65.4z M132.8,64.5c0-0.8-0.5-1.3-1.3-1.3s-1.3,0.5-1.4,1.3
			H132.8z"/>
		<path class="st0" d="M137.3,63.4c-0.8,0-1.4,0.6-1.4,1.5s0.6,1.6,1.4,1.6c0.6,0,1.1-0.2,1.4-0.6l0.8,0.7c-0.5,0.7-1.2,1.1-2.3,1.1
			c-1.6,0-2.6-1.1-2.6-2.7s1.1-2.7,2.7-2.7c1,0,1.7,0.4,2.2,1l-0.8,0.7C138.3,63.6,137.9,63.4,137.3,63.4z"/>
		<path class="st0" d="M145.4,62.3v5.2h-1.3v-1c-0.4,0.7-1,1-1.8,1c-1.2,0-1.9-0.8-1.9-2v-3.3h1.3v2.9c0,0.7,0.4,1.2,1.1,1.2
			c0.8,0,1.3-0.7,1.3-1.5v-2.6h1.3V62.3z"/>
		<path class="st0" d="M150,67.2c-0.4,0.2-0.9,0.4-1.3,0.4c-0.9,0-1.5-0.5-1.5-1.6v-2.6h-0.7v-0.9h0.7v-1.4h1.3v1.4h1.5v0.9h-1.5
			v2.4c0,0.5,0.2,0.7,0.5,0.7c0.2,0,0.5-0.1,0.7-0.2L150,67.2z"/>
		<path class="st0" d="M152.4,60.8c0,0.4-0.3,0.7-0.7,0.7s-0.7-0.3-0.7-0.7s0.3-0.7,0.7-0.7C152.1,60.1,152.4,60.4,152.4,60.8z
			 M152.3,62.3v5.2H151v-5.2H152.3z"/>
		<path class="st0" d="M154.4,62.3l1.4,4l1.3-4h1.3l-2,5.2h-1.3l-2-5.2H154.4z"/>
		<path class="st0" d="M162.2,67.6V67c-0.4,0.5-0.9,0.7-1.7,0.7c-1.1,0-1.8-0.7-1.8-1.6c0-1,0.7-1.6,2-1.6h1.5v-0.1
			c0-0.6-0.4-1-1.2-1c-0.5,0-1,0.2-1.6,0.5l-0.5-0.9c0.8-0.4,1.3-0.6,2.3-0.6c1.4,0,2.1,0.7,2.2,1.9v3.4h-1.2V67.6z M162.2,65.7
			v-0.5h-1.3c-0.7,0-1,0.2-1,0.6s0.4,0.7,0.9,0.7C161.6,66.6,162.2,66.2,162.2,65.7z"/>
		<path class="st0" d="M172.9,60.7v1.1h-3.7v1.7h3.3v1.1h-3.3v1.7h3.8v1.1h-5.1v-6.8h5V60.7z"/>
		<path class="st0" d="M175.9,63.3c-0.4,0-0.7,0.1-0.7,0.5c0,0.9,2.8,0.4,2.8,2.3c0,1.1-0.9,1.6-2.1,1.6c-0.8,0-1.6-0.3-2.2-0.7
			l0.4-0.9c0.5,0.4,1.2,0.6,1.8,0.6c0.4,0,0.8-0.1,0.8-0.5c0-1-2.7-0.4-2.7-2.3c0-1.1,0.9-1.6,2-1.6c0.7,0,1.4,0.2,1.9,0.6l-0.5,0.9
			C176.9,63.4,176.3,63.3,175.9,63.3z"/>
		<path class="st0" d="M182.1,67.2c-0.4,0.2-0.9,0.4-1.3,0.4c-0.9,0-1.5-0.5-1.5-1.6v-2.6h-0.7v-0.9h0.7v-1.4h1.3v1.4h1.5v0.9h-1.5
			v2.4c0,0.5,0.2,0.7,0.5,0.7c0.2,0,0.5-0.1,0.7-0.2L182.1,67.2z"/>
		<path class="st0" d="M186.2,67.6V67c-0.4,0.5-0.9,0.7-1.7,0.7c-1.1,0-1.8-0.7-1.8-1.6c0-1,0.7-1.6,2-1.6h1.5v-0.1
			c0-0.6-0.4-1-1.2-1c-0.5,0-1,0.2-1.6,0.5l-0.5-0.9c0.8-0.4,1.3-0.6,2.3-0.6c1.4,0,2.1,0.7,2.2,1.9v3.4h-1.2V67.6z M186.2,65.7
			v-0.5h-1.3c-0.7,0-1,0.2-1,0.6s0.4,0.7,0.9,0.7C185.5,66.6,186.1,66.2,186.2,65.7z"/>
		<path class="st0" d="M191.9,67.2c-0.4,0.2-0.9,0.4-1.3,0.4c-0.9,0-1.5-0.5-1.5-1.6v-2.6h-0.7v-0.9h0.7v-1.4h1.3v1.4h1.5v0.9h-1.5
			v2.4c0,0.5,0.2,0.7,0.5,0.7c0.2,0,0.5-0.1,0.7-0.2L191.9,67.2z"/>
		<path class="st0" d="M196,67.6V67c-0.4,0.5-0.9,0.7-1.7,0.7c-1.1,0-1.8-0.7-1.8-1.6c0-1,0.7-1.6,2-1.6h1.5v-0.1c0-0.6-0.4-1-1.2-1
			c-0.5,0-1,0.2-1.6,0.5l-0.5-0.9c0.8-0.4,1.3-0.6,2.3-0.6c1.4,0,2.1,0.7,2.2,1.9v3.4H196V67.6z M196,65.7v-0.5h-1.3
			c-0.7,0-1,0.2-1,0.6s0.4,0.7,0.9,0.7C195.3,66.6,195.9,66.2,196,65.7z"/>
		<path class="st0" d="M200,60.3v7.3h-1.3v-7.3H200z"/>
		<path class="st0" d="M75.8,72v7.3h-1.3v-0.8c-0.4,0.6-1,0.9-1.8,0.9c-1.5,0-2.5-1.1-2.5-2.7s1-2.7,2.5-2.7c0.8,0,1.4,0.3,1.8,0.9
			V72H75.8z M74.5,76.7c0-0.9-0.6-1.6-1.5-1.6s-1.5,0.7-1.5,1.6s0.6,1.6,1.5,1.6S74.5,77.6,74.5,76.7z"/>
		<path class="st0" d="M82.1,77.1h-3.9c0.2,0.7,0.7,1.2,1.5,1.2c0.5,0,1-0.2,1.4-0.6l0.7,0.7c-0.5,0.6-1.3,0.9-2.2,0.9
			c-1.6,0-2.7-1.1-2.7-2.7s1.1-2.7,2.7-2.7C81.5,74,82.3,75.2,82.1,77.1z M81,76.3c0-0.8-0.5-1.3-1.3-1.3s-1.3,0.5-1.4,1.3H81z"/>
		<path class="st0" d="M90.7,77.8h-3.3l-0.6,1.4h-1.4l3-6.8h1.4l3,6.8h-1.4L90.7,77.8z M90.2,76.7L89,73.8l-1.2,2.9
			C87.8,76.7,90.2,76.7,90.2,76.7z"/>
		<path class="st0" d="M96.5,79c-0.4,0.2-0.9,0.4-1.3,0.4c-0.9,0-1.5-0.5-1.5-1.6v-2.6H93v-0.9h0.7v-1.4H95v1.4h1.5v0.9H95v2.4
			c0,0.5,0.2,0.7,0.5,0.7c0.2,0,0.5-0.1,0.7-0.2L96.5,79z"/>
		<path class="st0" d="M102.2,77.1h-3.9c0.2,0.7,0.7,1.2,1.5,1.2c0.5,0,1-0.2,1.4-0.6l0.7,0.7c-0.5,0.6-1.3,0.9-2.2,0.9
			c-1.6,0-2.7-1.1-2.7-2.7s1.1-2.7,2.7-2.7C101.6,74,102.4,75.2,102.2,77.1z M101.1,76.3c0-0.8-0.5-1.3-1.3-1.3s-1.3,0.5-1.4,1.3
			H101.1z"/>
		<path class="st0" d="M108.4,76v3.3h-1.3v-2.9c0-0.7-0.4-1.2-1.2-1.2c-0.9,0-1.4,0.6-1.4,1.5v2.6h-1.3v-5.2h1.3v1
			c0.4-0.7,1-1,1.9-1C107.7,74,108.4,74.8,108.4,76z"/>
		<path class="st0" d="M112.1,75.1c-0.8,0-1.4,0.6-1.4,1.5s0.6,1.6,1.4,1.6c0.6,0,1.1-0.2,1.4-0.6l0.8,0.7c-0.5,0.7-1.2,1.1-2.3,1.1
			c-1.6,0-2.6-1.1-2.6-2.7s1.1-2.7,2.7-2.7c1,0,1.7,0.4,2.2,1l-0.8,0.7C113.1,75.3,112.7,75.1,112.1,75.1z"/>
		<path class="st0" d="M116.7,72.6c0,0.4-0.3,0.7-0.7,0.7c-0.4,0-0.7-0.3-0.7-0.7c0-0.4,0.3-0.7,0.7-0.7
			C116.4,71.9,116.7,72.2,116.7,72.6z M116.6,74.1v5.2h-1.3v-5.2H116.6z"/>
		<path class="st0" d="M123.2,76.7c0,1.6-1.1,2.7-2.7,2.7c-1.7,0-2.8-1.1-2.8-2.7s1.1-2.7,2.8-2.7C122.1,74,123.2,75.1,123.2,76.7z
			 M119,76.7c0,0.9,0.6,1.6,1.5,1.6s1.5-0.6,1.5-1.6c0-0.9-0.6-1.6-1.5-1.6S119,75.7,119,76.7z M122.1,72.4l-1.2,1h-1.1l1-1.5
			L122.1,72.4z"/>
		<path class="st0" d="M129.4,76v3.3h-1.3v-2.9c0-0.7-0.4-1.2-1.2-1.2c-0.9,0-1.4,0.6-1.4,1.5v2.6h-1.3v-5.2h1.3v1
			c0.4-0.7,1-1,1.9-1C128.7,74,129.4,74.8,129.4,76z"/>
		<path class="st0" d="M135.2,72.4v6.8h-1.3v-6.8H135.2z"/>
		<path class="st0" d="M141.9,76v3.3h-1.3v-2.9c0-0.7-0.4-1.2-1.2-1.2c-0.9,0-1.4,0.6-1.4,1.5v2.6h-1.3v-5.2h1.3v1
			c0.4-0.7,1-1,1.9-1C141.1,74,141.9,74.8,141.9,76z"/>
		<path class="st0" d="M146.4,79c-0.4,0.2-0.9,0.4-1.3,0.4c-0.9,0-1.5-0.5-1.5-1.6v-2.6h-0.7v-0.9h0.7v-1.4h1.3v1.4h1.5v0.9h-1.5
			v2.4c0,0.5,0.2,0.7,0.5,0.7c0.2,0,0.5-0.1,0.7-0.2L146.4,79z"/>
		<path class="st0" d="M152.1,77.1h-3.9c0.2,0.7,0.7,1.2,1.5,1.2c0.5,0,1-0.2,1.4-0.6l0.7,0.7c-0.5,0.6-1.3,0.9-2.2,0.9
			c-1.6,0-2.7-1.1-2.7-2.7s1.1-2.7,2.7-2.7C151.4,74,152.2,75.2,152.1,77.1z M150.9,76.3c0-0.8-0.5-1.3-1.3-1.3s-1.3,0.5-1.4,1.3
			H150.9z"/>
		<path class="st0" d="M157.9,74.1v4.7c0,1.5-1.1,2.4-2.7,2.4c-0.8,0-1.6-0.3-2.2-0.7l0.5-0.9c0.5,0.4,1,0.5,1.6,0.5
			c0.9,0,1.5-0.5,1.5-1.3v-0.6c-0.4,0.5-0.9,0.8-1.7,0.8c-1.4,0-2.3-1-2.3-2.5s0.9-2.5,2.3-2.5c0.8,0,1.3,0.3,1.7,0.8V74L157.9,74.1
			L157.9,74.1z M156.7,76.5c0-0.9-0.6-1.5-1.4-1.5c-0.8,0-1.4,0.6-1.4,1.5s0.6,1.5,1.4,1.5C156.1,78,156.7,77.4,156.7,76.5z"/>
		<path class="st0" d="M162.5,74v1.2c-1.1-0.1-1.8,0.6-1.8,1.5v2.5h-1.3V74h1.3v1C161.1,74.4,161.7,74,162.5,74z"/>
		<path class="st0" d="M166.5,79.3v-0.6c-0.4,0.5-0.9,0.7-1.7,0.7c-1.1,0-1.8-0.7-1.8-1.6c0-1,0.7-1.6,2-1.6h1.5V76
			c0-0.6-0.4-1-1.2-1c-0.5,0-1,0.2-1.6,0.5l-0.5-0.9c0.8-0.4,1.3-0.6,2.3-0.6c1.4,0,2.1,0.7,2.2,1.9v3.4H166.5z M166.5,77.5V77h-1.3
			c-0.7,0-1,0.2-1,0.6s0.4,0.7,0.9,0.7C165.8,78.4,166.4,78,166.5,77.5z"/>
		<path class="st0" d="M170.5,72v7.3h-1.3V72H170.5z"/>
		<path class="st0" d="M178.1,79.3v-0.6c-0.4,0.5-0.9,0.7-1.7,0.7c-1.1,0-1.8-0.7-1.8-1.6c0-1,0.7-1.6,2-1.6h1.5V76
			c0-0.6-0.4-1-1.2-1c-0.5,0-1,0.2-1.6,0.5l-0.5-0.9c0.8-0.4,1.3-0.6,2.3-0.6c1.4,0,2.1,0.7,2.2,1.9v3.4H178.1z M178.1,77.5V77h-1.3
			c-0.7,0-1,0.2-1,0.6s0.4,0.7,0.9,0.7C177.5,78.4,178,78,178.1,77.5z"/>
		<path class="st0" d="M184.4,72.4l2,5.4l2-5.4h1.3l-2.7,6.8h-1.4l-2.7-6.8H184.4z"/>
		<path class="st0" d="M192.8,72.4l-1.2,1h-1.1l1-1.5L192.8,72.4z M191.9,74.1v5.2h-1.3v-5.2H191.9z"/>
		<path class="st0" d="M195.7,75.1c-0.8,0-1.4,0.6-1.4,1.5s0.6,1.6,1.4,1.6c0.6,0,1.1-0.2,1.4-0.6l0.8,0.7c-0.5,0.7-1.2,1.1-2.3,1.1
			c-1.6,0-2.6-1.1-2.6-2.7s1.1-2.7,2.7-2.7c1,0,1.7,0.4,2.2,1l-0.8,0.7C196.7,75.3,196.2,75.1,195.7,75.1z"/>
		<path class="st0" d="M202,79c-0.4,0.2-0.9,0.4-1.3,0.4c-0.9,0-1.5-0.5-1.5-1.6v-2.6h-0.7v-0.9h0.7v-1.4h1.3v1.4h1.5v0.9h-1.5v2.4
			c0,0.5,0.2,0.7,0.5,0.7c0.2,0,0.5-0.1,0.7-0.2L202,79z"/>
		<path class="st0" d="M204.3,72.6c0,0.4-0.3,0.7-0.7,0.7s-0.7-0.3-0.7-0.7c0-0.4,0.3-0.7,0.7-0.7C204.1,71.9,204.3,72.2,204.3,72.6
			z M204.3,74.1v5.2H203v-5.2H204.3z"/>
		<path class="st0" d="M214.6,76v3.3h-1.3v-2.9c0-0.7-0.4-1.2-1.1-1.2c-0.8,0-1.3,0.7-1.3,1.5v2.6h-1.3v-2.9c0-0.7-0.4-1.2-1.1-1.2
			c-0.8,0-1.3,0.7-1.3,1.5v2.6h-1.3v-5.2h1.3v1c0.4-0.7,1-1,1.8-1c0.9,0,1.6,0.5,1.8,1.3c0.3-0.9,1-1.2,1.9-1.3
			C213.9,74,214.6,74.8,214.6,76z"/>
		<path class="st0" d="M219.1,79.3v-0.6c-0.4,0.5-0.9,0.7-1.7,0.7c-1.1,0-1.8-0.7-1.8-1.6c0-1,0.7-1.6,2-1.6h1.5V76
			c0-0.6-0.4-1-1.2-1c-0.5,0-1,0.2-1.6,0.5l-0.5-0.9c0.8-0.4,1.3-0.6,2.3-0.6c1.4,0,2.1,0.7,2.2,1.9v3.4H219.1z M219.1,77.5V77h-1.3
			c-0.7,0-1,0.2-1,0.6s0.4,0.7,0.9,0.7C218.5,78.4,219.1,78,219.1,77.5z"/>
		<path class="st0" d="M223.4,75c-0.4,0-0.7,0.1-0.7,0.5c0,0.9,2.8,0.4,2.8,2.3c0,1.1-0.9,1.6-2.1,1.6c-0.8,0-1.6-0.3-2.2-0.7
			l0.4-0.9c0.5,0.4,1.2,0.6,1.8,0.6c0.4,0,0.8-0.1,0.8-0.5c0-1-2.7-0.4-2.7-2.3c0-1.1,0.9-1.6,2-1.6c0.7,0,1.4,0.2,1.9,0.6l-0.5,0.9
			C224.4,75.2,223.8,75,223.4,75z"/>
	</g>
</g>
</svg>
