<?xml version="1.0" encoding="utf-8"?>
<!-- Generator: Adobe Illustrator 21.1.0, SVG Export Plug-In . SVG Version: 6.00 Build 0)  -->
<svg version="1.1" id="Capa_1" xmlns="http://www.w3.org/2000/svg" xmlns:xlink="http://www.w3.org/1999/xlink" x="0px" y="0px"
	 viewBox="0 0 520.5 288.9" style="enable-background:new 0 0 520.5 288.9;" xml:space="preserve">
<style type="text/css">
	.st0{fill:#F1F2F2;}
	.st1{fill:#5D3328;}
	.st2{fill:#790815;}
	.st3{fill:#FFFFFF;}
	.st4{fill:#414042;}
</style>
<rect x="-2.2" y="-0.5" transform="matrix(1 -1.301497e-03 1.301497e-03 1 -0.1872 0.3415)" class="st2" width="529" height="288.9"/>
<path class="st3" d="M227.7,116.3c0.1,0,0.1,0,0.2,0h0.1c0.6,0,1.2-0.2,1.6-0.6l0.9,0.8c0,0,0.1,0,0.1,0h0c0,0,0.1,0,0.1-0.1
	l0.8-0.9c0.4,0.3,0.9,0.5,1.4,0.5c0.1,0,0.1,0,0.2,0c0.8,0,1.5-0.3,2.1-0.9c0.5-0.6,0.8-1.3,0.8-2l-0.1-2.7c0-0.1-0.1-0.2-0.2-0.2
	l-2.7,0.1c-0.8,0-1.5,0.3-2,0.9c-0.2,0.3-0.4,0.6-0.6,0.9c-0.1-0.3-0.3-0.6-0.6-0.9c-0.5-0.5-1.2-0.8-2-0.8l-0.1,0l-2.7,0.1
	c-0.1,0-0.2,0.1-0.2,0.2l0.1,2.7c0,0.8,0.3,1.5,0.9,2C226.4,116,227,116.2,227.7,116.3 M231.7,112c0.3-0.4,0.8-0.6,1.3-0.6l1.9,0
	l0,1.9c0,0.5-0.2,1-0.5,1.3c-0.3,0.4-0.8,0.6-1.3,0.6h0c-0.3,0-0.6-0.1-0.9-0.2l1.8-1.9c0,0,0-0.1,0-0.1c0,0,0-0.1-0.1-0.1l-0.5-0.4
	c0,0-0.1,0-0.1,0c0,0-0.1,0-0.1,0l-1.8,1.9c-0.2-0.3-0.3-0.6-0.3-0.9C231.2,112.9,231.4,112.4,231.7,112 M230.5,114.5
	c0.1,0.2,0.2,0.3,0.3,0.5l-0.3,0.3l-0.3-0.3C230.3,114.9,230.4,114.7,230.5,114.5 M227.9,111.6c0.5,0,0.9,0.2,1.3,0.5
	c0.6,0.6,0.8,1.5,0.3,2.3l-1.9-1.8c0,0-0.1,0-0.1,0s-0.1,0-0.1,0L227,113c0,0,0,0.1,0,0.1c0,0,0,0.1,0,0.1l1.9,1.8
	c-0.3,0.2-0.6,0.3-1,0.3h0c-0.5,0-0.9-0.2-1.3-0.5c-0.4-0.3-0.6-0.8-0.6-1.3l0-1.9L227.9,111.6z"/>
<path class="st3" d="M235.6,106l0.1-0.2c0-0.1,0-0.1,0-0.2l-0.1-0.2c-0.4-0.7-1.2-1.2-2.1-1.3c0.3-0.8,0.2-1.7-0.2-2.4l-0.1-0.2
	c0-0.1-0.1-0.1-0.1-0.1c0,0-0.3,0-0.3,0c-0.9,0-1.7,0.4-2.2,1.1c-0.5-0.6-1.3-1-2.2-1h-0.1l-0.2,0c-0.1,0-0.1,0-0.1,0.1l-0.1,0.2
	c-0.4,0.8-0.5,1.7-0.1,2.4c-0.8,0.1-1.6,0.7-2,1.4l-0.1,0.2c0,0,0,0.1,0,0.2l0.1,0.2c0.4,0.7,1.2,1.2,2.1,1.3
	c-0.3,0.8-0.2,1.7,0.2,2.4l0.1,0.2c0,0,0.1,0.1,0.1,0.1c0,0,0.3,0,0.3,0c0.9,0,1.7-0.4,2.2-1.1c0.5,0.6,1.3,1,2.2,1h0.1c0,0,0,0,0,0
	h0.2c0.1,0,0.1,0,0.1-0.1l0.1-0.2c0.4-0.7,0.4-1.7,0.1-2.4C234.5,107.3,235.2,106.8,235.6,106 M231.1,103.7c0-0.1,0.1-0.3,0.2-0.4
	c0.3-0.5,0.8-0.8,1.3-0.9c0.2,0.5,0.2,1.1-0.1,1.6c-0.1,0.1-0.2,0.2-0.2,0.4l-0.3,0.4c0,0-0.1-0.1-0.1-0.1c-0.2-0.2-0.6-0.4-0.9-0.5
	L231.1,103.7z M228.7,102.4c0.6,0.1,1.1,0.4,1.4,0.9c0.1,0.1,0.1,0.3,0.2,0.4l0.1,0.5c-0.4,0.1-0.7,0.3-1,0.6l-0.3-0.3
	c-0.1-0.1-0.2-0.2-0.3-0.3C228.5,103.6,228.5,102.9,228.7,102.4 M228.2,106.6L228.2,106.6c-0.6,0-1.1-0.3-1.5-0.7
	c0.3-0.5,0.9-0.7,1.4-0.8h0c0.1,0,0.3,0,0.4,0l0.5,0.1c-0.1,0.2-0.1,0.4-0.1,0.6c0,0.2,0,0.4,0.1,0.6l-0.5,0.1
	C228.5,106.6,228.4,106.6,228.2,106.6 M230.3,108c0,0.1-0.1,0.3-0.2,0.4c-0.3,0.5-0.8,0.8-1.3,0.9c-0.2-0.5-0.2-1.1,0.1-1.6
	c0.1-0.1,0.2-0.2,0.3-0.3l0.3-0.4c0,0,0.1,0.1,0.1,0.1c0.3,0.2,0.6,0.4,0.9,0.5L230.3,108z M230.7,106.6L230.7,106.6
	c-0.2,0-0.4-0.1-0.5-0.2c-0.1-0.1-0.2-0.3-0.2-0.5c0-0.2,0.1-0.4,0.2-0.5c0.1-0.1,0.3-0.2,0.5-0.2h0c0,0,0,0,0.1,0
	c0.4,0,0.7,0.4,0.7,0.8c0,0.2-0.1,0.4-0.2,0.5C231.1,106.5,230.9,106.6,230.7,106.6 M232.8,109.2c-0.6-0.1-1.1-0.4-1.4-0.9
	c-0.1-0.1-0.1-0.3-0.2-0.4l-0.1-0.5c0.3-0.1,0.6-0.2,0.9-0.5c0,0,0.1-0.1,0.1-0.1l0.3,0.3c0.1,0.1,0.2,0.2,0.3,0.3
	C233,108.1,233,108.7,232.8,109.2 M233.3,106.5L233.3,106.5c-0.2,0-0.3,0-0.4,0l-0.5-0.1c0.1-0.2,0.1-0.4,0.1-0.6
	c0-0.2,0-0.4-0.1-0.6l0.5-0.1c0.1,0,0.3-0.1,0.4-0.1h0c0.6,0,1.1,0.3,1.4,0.7C234.4,106.2,233.8,106.5,233.3,106.5"/>
<path class="st3" d="M226.4,93.1v0.3c0,0.1,0,0.1,0.1,0.1l0.2,0.1c0.4,0.2,0.9,0.4,1.4,0.4c0.4,0,0.7-0.1,1-0.2
	c0.1,0.8,0.6,1.6,1.3,2l0.2,0.1c0,0,0.1,0,0.1,0c0,0,0.1,0,0.1,0l0.2-0.1c0.7-0.4,1.2-1.2,1.3-2c0.3,0.1,0.7,0.2,1,0.2
	c0.5,0,1-0.1,1.4-0.4l0.2-0.1c0,0,0.1-0.1,0.1-0.1v-0.3c0-0.9-0.4-1.6-1.1-2.2c0.7-0.5,1.1-1.3,1.1-2.2v-0.3c0-0.1,0-0.1-0.1-0.1
	l-0.2-0.1c-0.4-0.2-0.9-0.4-1.4-0.4c-0.4,0-0.7,0.1-1,0.2c-0.1-0.8-0.6-1.6-1.3-2l-0.2-0.1c0,0-0.1,0-0.1,0c0,0-0.1,0-0.1,0
	l-0.2,0.1c-0.7,0.4-1.2,1.2-1.3,2c-0.3-0.1-0.7-0.2-1-0.2c-0.5,0-1,0.1-1.4,0.4l-0.2,0.1c0,0-0.1,0.1-0.1,0.1l0,0.3
	c0,0.9,0.4,1.7,1.1,2.2C226.8,91.4,226.4,92.2,226.4,93.1 M232.3,89.3c0.1-0.1,0.2-0.2,0.3-0.3c0.3-0.2,0.6-0.2,0.9-0.2
	c0.2,0,0.5,0,0.7,0.1c-0.1,0.6-0.4,1.1-0.9,1.3c-0.1,0.1-0.2,0.1-0.4,0.2l-0.4,0.1c0-0.2-0.1-0.4-0.2-0.5c-0.1-0.2-0.2-0.3-0.4-0.4
	L232.3,89.3z M232.5,91.2l0.4,0.1c0.1,0,0.3,0.1,0.4,0.2c0.5,0.3,0.8,0.8,0.9,1.3c-0.2,0.1-0.5,0.1-0.7,0.1c-0.3,0-0.6-0.1-0.9-0.2
	c-0.1-0.1-0.2-0.2-0.3-0.3l-0.3-0.3C232.2,91.9,232.4,91.6,232.5,91.2 M230.8,94.8c-0.5-0.3-0.7-0.9-0.7-1.4c0-0.1,0-0.3,0.1-0.4
	l0.1-0.5c0,0,0.1,0,0.1,0c0.1,0,0.2,0,0.3,0.1c0,0,0.1,0,0.1,0c0.2,0,0.4,0,0.6-0.1l0.1,0.5c0,0.1,0.1,0.3,0.1,0.4
	C231.5,94,231.2,94.5,230.8,94.8 M230.8,87c0.4,0.3,0.7,0.9,0.7,1.4c0,0.1,0,0.3-0.1,0.4l-0.1,0.5c0,0-0.1,0-0.1,0
	c-0.1,0-0.3-0.1-0.4-0.1c-0.2,0-0.4,0-0.6,0.1l-0.1-0.5c0-0.1-0.1-0.3-0.1-0.4C230.1,87.8,230.3,87.3,230.8,87 M230.1,90.7
	c0.1-0.2,0.2-0.4,0.4-0.5c0.1-0.1,0.2-0.1,0.4-0.1c0,0,0,0,0.1,0c0,0,0.1,0,0.1,0c0.2,0.1,0.4,0.2,0.5,0.4c0.1,0.2,0.1,0.4,0.1,0.6
	c-0.1,0.2-0.2,0.4-0.4,0.5c-0.1,0.1-0.2,0.1-0.4,0.1c-0.1,0-0.1,0-0.2,0c-0.2-0.1-0.4-0.2-0.5-0.4C230,91.1,230,90.9,230.1,90.7
	 M227.4,88.9c0.2-0.1,0.5-0.1,0.7-0.1c0.3,0,0.6,0.1,0.9,0.2c0.1,0.1,0.2,0.2,0.3,0.3l0.3,0.3c-0.3,0.2-0.5,0.6-0.6,1l-0.5-0.1
	c-0.1,0-0.3-0.1-0.4-0.2C227.8,90,227.5,89.5,227.4,88.9 M228.3,91.5c0.1-0.1,0.3-0.1,0.4-0.2l0.4-0.1c0,0.2,0.1,0.4,0.2,0.5
	c0.1,0.2,0.2,0.3,0.4,0.4l-0.3,0.3c-0.1,0.1-0.2,0.2-0.3,0.3c-0.3,0.2-0.6,0.2-0.9,0.2c-0.2,0-0.5,0-0.7-0.1
	C227.5,92.3,227.8,91.8,228.3,91.5"/>
<path class="st3" d="M300.9,139.6c-0.5-0.5-1.3-0.8-2-0.8h-0.1c-0.4,0-0.7,0.1-1.1,0.2c0.1-0.3,0.2-0.7,0.2-1.1c0-0.8-0.3-1.5-0.9-2
	l-2-1.9c0,0-0.1,0-0.1,0c0,0-0.1,0-0.1,0.1l-1.9,2c-0.5,0.6-0.8,1.3-0.8,2.1c0,0.8,0.3,1.5,0.9,2c0.4,0.4,1,0.7,1.6,0.8l0,1.2
	c0,0,0,0.1,0.1,0.1c0,0,0.1,0,0.1,0c0,0,1.2,0,1.2,0c0.3,1.3,1.4,2.3,2.8,2.4c0,0,0.1,0,0.1,0c0,0,0,0,0.1,0c0.8,0,1.5-0.3,2-0.9
	l1.9-2c0.1-0.1,0.1-0.2,0-0.2L300.9,139.6z M296,141.3l-0.4,0l0-0.4c0.2,0,0.4-0.1,0.6-0.2C296.1,140.9,296,141.1,296,141.3
	 M295.5,139.9l-0.1-2.7c0,0,0-0.1,0-0.1c0,0-0.1,0-0.1,0c0,0-0.6,0-0.6,0c0,0-0.1,0-0.1,0c0,0,0,0.1,0,0.1l0.1,2.7
	c-0.4-0.1-0.7-0.2-0.9-0.5c-0.4-0.4-0.6-0.9-0.6-1.4c0-0.5,0.2-1,0.5-1.4l1.4-1.4l1.4,1.4c0.4,0.4,0.6,0.9,0.6,1.4
	C297,138.9,296.4,139.7,295.5,139.9 M300.3,143.1c-0.4,0.4-0.9,0.6-1.4,0.6l-0.1,0c-0.9,0-1.7-0.6-1.9-1.5l2.7-0.1
	c0.1,0,0.2-0.1,0.2-0.2l0-0.6c0,0,0-0.1-0.1-0.1c0,0-0.1,0-0.1,0l-2.7,0.1c0.2-0.9,1-1.5,1.9-1.5h0.1c0.5,0,1,0.2,1.4,0.5l1.4,1.4
	L300.3,143.1z"/>
<path class="st3" d="M305,134.3c-0.5-0.4-1.1-0.6-1.8-0.6c-0.1,0-0.2,0-0.4,0c-0.4,0-0.7,0.2-1,0.3c0.1-0.4,0.1-0.7,0.1-1.1
	c-0.1-0.8-0.5-1.5-1.1-1.9l-2.2-1.7c0,0-0.1,0-0.1,0c0,0-0.1,0-0.1,0.1l-1.7,2.2c-0.5,0.6-0.7,1.4-0.6,2.1c0.2,1.4,1.4,2.5,2.8,2.5
	l0.2,1.2c0,0,0,0.1,0.1,0.1c0,0,0.1,0,0.1,0c0,0,0,0,0,0l1.2-0.2c0.4,1.2,1.4,2,2.7,2.1c0,0,0.1,0,0.1,0c0.1,0,0.2,0,0.4,0
	c0.8-0.1,1.5-0.5,1.9-1.1l1.7-2.2c0.1-0.1,0-0.2,0-0.2L305,134.3z M300.3,136.5l-0.4,0.1l-0.1-0.4c0.2-0.1,0.4-0.1,0.6-0.2
	C300.4,136.1,300.3,136.3,300.3,136.5 M299.7,135.1l-0.3-2.7c0,0,0-0.1-0.1-0.1c0,0-0.1,0-0.1,0c0,0,0,0,0,0l-0.6,0.1
	c-0.1,0-0.2,0.1-0.1,0.2l0.3,2.7c-0.3,0-0.7-0.2-1-0.4c-0.4-0.3-0.7-0.8-0.7-1.3c-0.1-0.5,0.1-1,0.4-1.4l1.2-1.5l1.5,1.2
	c0.4,0.3,0.7,0.8,0.7,1.3C301.1,134,300.5,134.8,299.7,135.1 M304.8,137.8c-0.3,0.4-0.8,0.7-1.3,0.7c-0.1,0-0.2,0-0.2,0
	c-0.4,0-0.8-0.1-1.2-0.4c-0.3-0.2-0.5-0.5-0.6-0.8l2.7-0.3c0.1,0,0.2-0.1,0.1-0.2l-0.1-0.6c0,0,0-0.1-0.1-0.1c0,0-0.1,0-0.1,0
	c0,0,0,0,0,0l-2.7,0.3c0-0.3,0.2-0.7,0.4-0.9c0.3-0.4,0.8-0.7,1.3-0.7c0.1,0,0.2,0,0.2,0c0.4,0,0.8,0.1,1.2,0.4l1.5,1.2L304.8,137.8
	z"/>
<path class="st3" d="M311.5,87.8c-0.4,0-0.7,0.1-1,0.2c-0.1-0.8-0.6-1.6-1.3-2l-0.2-0.1c0,0-0.1,0-0.1,0c0,0-0.1,0-0.1,0l-0.2,0.1
	c-0.7,0.4-1.2,1.2-1.3,2c-0.3-0.1-0.7-0.2-1-0.2c-0.5,0-1,0.1-1.4,0.4l-0.2,0.1c-0.1,0-0.1,0.1-0.1,0.1v0.3c0,0.9,0.4,1.6,1.1,2.2
	c-0.7,0.5-1.1,1.3-1.1,2.2l0,0.3c0,0.1,0,0.1,0.1,0.1l0.2,0.1c0.4,0.2,0.9,0.4,1.4,0.4c0.4,0,0.7-0.1,1-0.2c0.1,0.8,0.6,1.6,1.3,2
	l0.2,0.1c0,0,0.1,0,0.1,0c0,0,0.1,0,0.1,0l0.2-0.1c0.7-0.4,1.2-1.2,1.3-2c0.3,0.1,0.7,0.2,1,0.2c0.5,0,1-0.1,1.4-0.4l0.2-0.1
	c0.1,0,0.1-0.1,0.1-0.1v-0.3c0-0.9-0.4-1.6-1.1-2.2c0.7-0.5,1.1-1.3,1.1-2.2l0-0.3c0-0.1,0-0.1-0.1-0.1l-0.2-0.1
	C312.4,88,311.9,87.8,311.5,87.8 M305.4,89c0.2-0.1,0.5-0.1,0.7-0.1c0.3,0,0.6,0.1,0.9,0.2c0.1,0.1,0.2,0.2,0.3,0.3l0.3,0.3
	c-0.1,0.1-0.3,0.3-0.4,0.4c-0.1,0.2-0.2,0.3-0.2,0.5l-0.4-0.1c-0.1,0-0.3-0.1-0.4-0.2C305.8,90,305.5,89.5,305.4,89 M307.3,92.5
	c-0.1,0.1-0.2,0.2-0.3,0.3c-0.3,0.2-0.6,0.2-0.9,0.2c-0.2,0-0.5,0-0.7-0.1c0.1-0.6,0.4-1.1,0.9-1.3c0.1-0.1,0.3-0.1,0.4-0.2l0.4-0.1
	c0.1,0.4,0.3,0.7,0.6,1L307.3,92.5z M308.8,87c0.5,0.3,0.7,0.9,0.7,1.4c0,0.1,0,0.3-0.1,0.4l-0.1,0.5c-0.2-0.1-0.4-0.1-0.6-0.1
	c-0.1,0-0.3,0-0.4,0.1c0,0-0.1,0-0.1,0l-0.1-0.5c0-0.1-0.1-0.3-0.1-0.4C308.1,87.8,308.3,87.3,308.8,87 M308.8,94.8
	c-0.5-0.3-0.7-0.9-0.7-1.4c0-0.1,0-0.3,0.1-0.4l0.1-0.5c0.2,0.1,0.4,0.1,0.6,0.1c0,0,0.1,0,0.1,0c0.1,0,0.2,0,0.3-0.1
	c0,0,0.1,0,0.1,0l0.1,0.5c0,0.1,0.1,0.3,0.1,0.4C309.5,94,309.2,94.5,308.8,94.8 M309.4,91.3c-0.1,0.2-0.3,0.3-0.5,0.4
	c-0.1,0-0.1,0-0.2,0c-0.1,0-0.3,0-0.4-0.1c-0.2-0.1-0.3-0.3-0.4-0.5c-0.1-0.2,0-0.4,0.1-0.6c0.1-0.2,0.3-0.3,0.5-0.4
	c0,0,0.1,0,0.1,0c0,0,0,0,0.1,0c0.1,0,0.3,0,0.4,0.1c0.2,0.1,0.3,0.3,0.4,0.5C309.6,90.9,309.5,91.1,309.4,91.3 M312.2,92.9
	c-0.2,0.1-0.5,0.1-0.7,0.1c-0.3,0-0.6-0.1-0.9-0.2c-0.1-0.1-0.2-0.2-0.3-0.3l-0.3-0.3c0.1-0.1,0.3-0.3,0.4-0.4
	c0.1-0.2,0.2-0.3,0.2-0.5l0.4,0.1c0.1,0,0.3,0.1,0.4,0.2C311.8,91.8,312.1,92.3,312.2,92.9 M311.3,90.3c-0.1,0.1-0.3,0.1-0.4,0.2
	l-0.4,0.1c-0.1-0.4-0.3-0.7-0.6-1l0.3-0.3c0.1-0.1,0.2-0.2,0.3-0.3c0.3-0.2,0.6-0.2,0.9-0.2c0.2,0,0.5,0.1,0.7,0.1
	C312.1,89.5,311.8,90,311.3,90.3"/>
<path class="st3" d="M249.2,86.5c-0.8,1.7-1.2,3.9-1.2,6.4v17.6c0,6.8,2.7,12.4,8.3,17.1c4.4,3.8,9.5,7.9,13.3,9.5l0.2,0.1l0.2-0.1
	c3.8-1.6,8.8-5.7,13.3-9.5c5.6-4.8,8.3-10.4,8.3-17.1V92.9c0-2.5-0.4-4.7-1.2-6.4c-0.7-1.5-1.7-2.7-3-3.8c-3.3-2.5-8.1-4.1-13.4-4.3
	v-1.7h-2.4v1h-0.4v-1h-2.6v1h-0.4v-1h-2.4v1.7c-5.3,0.2-10.2,1.8-13.4,4.3C250.9,83.8,249.9,85,249.2,86.5 M259.3,127.9h-0.9
	c-0.5-0.4-0.9-0.8-1.4-1.1c-5.3-4.5-7.9-9.9-7.9-16.3v-0.7l8.6,0l0.7,2.1c0.1,0.2,0.2,0.3,0.4,0.3h0.5v1.2l-2.1-0.8
	c-0.2-0.1-0.4,0-0.5,0.1c-0.1,0.1-0.2,0.3-0.1,0.5l1.1,2.5l-1.1,1.4c-0.1,0.1-0.1,0.3-0.1,0.4c0,0.1,0.1,0.2,0.3,0.3l1.6,0.6
	l-1.6,0.6c-0.2,0.1-0.3,0.2-0.3,0.4v4.2c0,0.1,0.1,0.3,0.2,0.4c0,0,0.1,0,0.1,0.1v0l2.4,0.9V127.9z M259.3,92.7v-5.5h2.3v1.2h4.8
	v-1.2h6.8v1.2h4.8v-1.2h2.3v1.8h-6V90h6v2.5h-3.6v0.9h2.7l-0.6,0.4v2.1h-3.3V92h-3.3v0.5h-2.6v0.9h2.6v2.5h-2.6v0.9h3.4v-0.7h1.8
	v0.7h4.1v2.5h-3v0.9h3v0.2l1.9,2.3h-2.3v0.9h3l0.2,0.2v2.3h-2.1v0.9h2.1v1.9h-6.1v-5.6c0-3.2-2.6-5.8-5.8-5.8c-3,0-5.4,2.2-5.8,5.1
	h-2.6v0.9h2.6v2.6h-4.7v0.9h4.7v1.9h-6.1v-5.2l2.8-3.4v-6.5L259.3,92.7z M263.6,83v-1h0.8v1h2.2v-1h0.7v2.1h-4V85h4v1.3h-1.7v1.2h-3
	v-1.2h-1.8V82h0.7v1H263.6z M274.7,95.2h-1.5v-2.3h1.5V95.2z M280.9,116l0.9,1.2l-1.5,0.6v-3.4l1.4-0.5l-0.8,1.7
	C280.8,115.7,280.8,115.9,280.9,116 M274.3,120v-3.2l7.8,2.8v3.2L274.3,120z M281.2,123.5l-0.9,0.3v-0.7L281.2,123.5z M279.4,122.8
	v5.1H277v-6L279.4,122.8z M257.5,122.9v-3.2l7.8-2.8v3.2L257.5,122.9z M262.6,122v6h-2.4v-5.1L262.6,122z M258.7,115.5l-0.8-1.7
	l1.4,0.5v3.4l-1.5-0.6l0.9-1.2C258.8,115.9,258.8,115.7,258.7,115.5 M259.1,111.2l-0.5-1.5h5.5l-0.5,1.5H259.1z M263.5,115.8
	l0.9,0.4l-0.9,0.3V115.8z M260.2,112.1h2.4v4.7l-2.4,0.9V112.1z M264.1,124.3l0.8,1.6l-1.4-0.5V122l1.5,0.6l-0.9,1.2
	C264,124,264,124.1,264.1,124.3 M263.5,126.4l2.1,0.8c0,0,0.1,0,0.2,0c0.1,0,0.2-0.1,0.3-0.1c0.1-0.1,0.1-0.3,0.1-0.5l-1.1-2.4
	l1.1-1.5c0.1-0.1,0.1-0.3,0.1-0.4c0-0.1-0.1-0.2-0.3-0.3l-1.6-0.6l1.6-0.6c0.2-0.1,0.3-0.2,0.3-0.4v-4.2c0-0.1-0.1-0.3-0.2-0.4
	c0,0-0.1,0-0.1-0.1l-2.4-0.9v-2.8h0.5c0.2,0,0.4-0.1,0.4-0.3l0.7-2.1h9.4l0.7,2.1c0.1,0.2,0.2,0.3,0.4,0.3h0.5v2.8l-2.4,0.9
	c0,0-0.1,0-0.1,0.1c-0.1,0.1-0.2,0.2-0.2,0.4v4.2c0,0.2,0.1,0.4,0.3,0.4l1.6,0.6l-1.6,0.6c-0.1,0-0.2,0.2-0.3,0.3
	c0,0.1,0,0.3,0.1,0.4l1.1,1.5l-1.1,2.4c-0.1,0.2,0,0.4,0.1,0.5c0.1,0.1,0.2,0.1,0.3,0.1c0.1,0,0.1,0,0.2,0l2.1-0.8v1.6h-0.5
	c-0.2,0-0.4,0.1-0.4,0.3l-0.7,1.9h-9.4l-0.7-1.9c-0.1-0.2-0.2-0.3-0.4-0.3h-0.5V126.4z M268.6,101.5v-3c0.4-0.1,0.8-0.1,1.2-0.1
	c0.5,0,0.9,0.1,1.3,0.2v6.9h0.9v-6.6c1.6,0.8,2.7,2.5,2.7,4.4v5.6H272v-2h-0.9v2h-2.5v-6.3h-0.9v6.3h-2.9v-5.6c0-2,1.2-3.7,2.9-4.5
	v2.7H268.6z M276.1,115.8v0.7l-1-0.3L276.1,115.8z M274.7,125.9l0.8-1.6c0.1-0.1,0.1-0.3,0-0.5l-0.9-1.2l1.5-0.6v3.4L274.7,125.9z
	 M277,116.9v-4.7h2.4v5.6L277,116.9z M275.9,111.2l-0.5-1.5h5.5l-0.5,1.5H275.9z M259.3,123.9l-0.9-0.3l0.9-0.3V123.9z M260.2,129.4
	v-0.6h3.5l0.5,1.3h-3.1C260.8,129.9,260.5,129.7,260.2,129.4 M269.8,136c-2.2-1-4.9-2.8-7.6-4.9h15.2C274.7,133.2,272,135,269.8,136
	 M278.5,130.2h-3.1l0.5-1.3h4.2C279.6,129.3,279.1,129.7,278.5,130.2 M290.5,110.5c0,6.4-2.6,11.8-7.9,16.3
	c-0.4,0.4-0.9,0.8-1.4,1.1h-0.9v-3.1l2.4-0.9v0c0,0,0.1,0,0.1-0.1c0.1-0.1,0.2-0.2,0.2-0.4v-4.2c0-0.2-0.1-0.4-0.3-0.4l-1.6-0.6
	l1.6-0.6c0.1,0,0.2-0.2,0.3-0.3c0-0.1,0-0.3-0.1-0.4l-1.1-1.4l1.1-2.5c0.1-0.2,0-0.4-0.1-0.5c-0.1-0.1-0.3-0.2-0.5-0.1l-2.1,0.8
	v-1.2h0.5c0.2,0,0.4-0.1,0.4-0.3l0.7-2.1l8.6,0V110.5z M273.9,79.4c5.1,0.2,9.7,1.7,12.8,4.1c1.2,0.9,2.1,2.1,2.7,3.4
	c0.7,1.6,1.1,3.6,1.1,6v15.9h-7.9v-5.5l-2.8-3.4v-5.7l1.4-1v-6.8h-1.4v-5.2h-2.5v1h-0.4v-1h-2.6v1h-0.4v-1V79.4z M275.2,83v-1h0.8v1
	h2.2v-1h0.7v2.1h-1.5V85h1.5v1.3h-1.8v1.2h-3v-1.2h-1.7V82h0.7v1H275.2z M266.5,77.6h0.7v1h2.2v-1h0.8v1h2.2v-1h0.7v2.3h-4.7v0.9
	h4.7v0.4h-1.6v2.5h-1.8v0.9h1.8v1.8h-3.4v-5.2h-1.6V77.6z M265.6,79.4v2.4v0.3h-0.4v-1h-2.6v1h-0.4v-1h-2.4v5.2h-1.4v6.8l1.4,1v5.7
	l-2.8,3.4v5.5h-7.9V92.9c0-2.4,0.4-4.4,1.1-6c0.6-1.3,1.5-2.4,2.7-3.4C256,81.2,260.6,79.7,265.6,79.4"/>
<path class="st3" d="M282.7,142.2c1.7-1.2,3.4-2.4,4.9-3.6c9.6-7.9,14.6-17.2,14.6-27l0-21.6c0-3.1,1-4.7,2.7-6.4l8-8l-14.4-14.4
	l-4.4,4.4c-1.9-3.5-5.6-5.8-9.7-5.8c-3.1,0-6,1.5-9.4,4.8c-0.5,0.5-1,1-1.4,1.6v-6.7h6.8V52h-6.8v-6.8H266V52h-6.8v7.5h6.8v6.7
	c-0.4-0.6-0.8-1.2-1.4-1.6c-3.4-3.3-6.3-4.8-9.4-4.8c-4.1,0-7.8,2.3-9.7,5.8l-4.4-4.4l-14.4,14.4l8,8c1.7,1.7,2.7,3.3,2.7,6.4v21.6
	c0,9.8,5.1,19.1,14.6,27c1.5,1.3,3.2,2.5,4.9,3.6c-1.5,0.1-2.7,0.8-3.7,1.8c-0.9,1.1-1.5,2.5-1.5,4.1c0,2.1,0.8,3.7,2,4.7
	c1.9,1.9,4.4,3.9,7.6,3.9c3.9,0,7.1-2.5,8.4-5.9c1.2,3.4,4.5,5.9,8.4,5.9c3.2,0,5.8-2,7.7-3.9c1.3-1.1,2-2.8,2-4.7
	c0-1.6-0.5-3-1.5-4.1C285.4,142.9,284.1,142.3,282.7,142.2 M284.4,60.8c3.8,0,7.2,2.2,8.9,5.5c-1.3,1.3-2.1,2.5-2.5,3.7
	c-1.2-4.3-5.2-7.5-9.9-7.5c-0.7,0-1.4,0.1-2.1,0.2C280.7,61.4,282.5,60.8,284.4,60.8 M275.3,65.6C275.3,65.6,275.4,65.6,275.3,65.6
	c0.2-0.2,0.4-0.3,0.5-0.5c1.1-1,2.8-1.6,5-1.6c5.1,0,9.2,4.1,9.2,9.2l0,3c-1.5-1-3.3-1.8-5.1-2.5c0.1-0.4,0.1-0.8,0.1-1.1
	c0-3.5-2.9-5.4-5.6-5.4c-0.3,0-0.5,0.2-0.5,0.5c0,0.3,0.2,0.5,0.5,0.5c1.8,0,4.6,1.2,4.6,4.3c0,2.4-2.1,4.5-4.5,4.5
	c-3.9,0-6-3.1-6-6.2C273.6,68.7,274.1,66.9,275.3,65.6 M260.3,58.4V53h6.8v-6.8h5.4V53h6.8v5.4h-6.8v12.7h-5.4V58.4H260.3z
	 M266.9,72.2h5.9c0.3,1.2,0.8,2.3,1.6,3.2c1.3,1.5,3.1,2.3,5.2,2.3c2.2,0,4.2-1.4,5.1-3.4c2.5,0.9,4.7,2.1,6.6,3.6
	c2.1,1.7,3.8,3.7,4.9,6.1c1.2,2.5,1.7,5.6,1.7,9v17.6c0,8.6-3.5,15.9-10.5,21.9c-5,4.3-10.3,8.5-14.9,10.5l-2.6,1.1l-2.6-1.1
	c-4.5-1.9-9.8-6.2-14.9-10.5c-7-5.9-10.5-13.3-10.5-21.9V92.9c0-3.4,0.6-6.4,1.7-9c1.1-2.4,2.7-4.4,4.9-6.1c1.9-1.5,4.1-2.7,6.6-3.6
	c0.9,2,2.8,3.4,5.1,3.4C263.9,77.6,266.2,75.1,266.9,72.2 M264.2,65.5c0,0,0.1,0.1,0.1,0.1c1.2,1.3,1.8,3.1,1.8,4.7
	c0,3.1-2,6.2-6,6.2c-2.4,0-4.5-2-4.5-4.5c0-3.1,2.8-4.3,4.6-4.3c0.3,0,0.5-0.2,0.5-0.5c0-0.3-0.2-0.5-0.5-0.5
	c-2.7,0-5.6,1.9-5.6,5.4c0,0.4,0,0.8,0.1,1.1c-1.9,0.7-3.6,1.5-5.1,2.5l0-3c0-5.1,4.1-9.2,9.2-9.2c2.2,0,3.9,0.6,5,1.6
	C263.9,65.3,264,65.4,264.2,65.5 M255.2,60.8c1.9,0,3.7,0.6,5.7,1.9c-0.7-0.1-1.4-0.2-2.1-0.2c-4.7,0-8.7,3.2-9.9,7.5
	c-0.5-1.2-1.3-2.4-2.5-3.7C248,62.9,251.4,60.8,255.2,60.8 M254.3,151.9L254.3,151.9c-1-1-1.5-2.4-1.5-3.8c0-2.4,1.6-4.9,4.7-4.9
	c0.6,0,1.1,0.1,1.6,0.4c0.1,0,0.1,0.1,0.2,0.1l0,0c1,0.6,1.7,1.7,1.7,3c0,2.4-2.2,3.4-3.6,3.4c-0.3,0-0.5,0.2-0.5,0.5
	c0,0.3,0.2,0.5,0.5,0.5c1.1,0,2.2-0.4,3-1c0.7-0.6,1.6-1.6,1.6-3.4c0-1.7-1-3.2-2.3-3.9c-2.5-1.6-4.9-3.3-7-5
	c-9.3-7.7-14.2-16.7-14.2-26.2l0-21.6c0-3.5-1.1-5.3-3-7.2l-7.2-7.2l13-13l4.2,4.2c2.7,2.7,3.1,4.6,3.1,8v1.4v0.2
	c-0.2,0.2-0.5,0.4-0.7,0.5c-2.3,1.8-4,4-5.2,6.5c-1.2,2.7-1.8,5.9-1.8,9.4v17.6c0,8.9,3.7,16.5,10.9,22.7c4.8,4.1,9.8,8.1,14.3,10.2
	v2.8c0,4-3.3,7.3-7.3,7.3c-1.8,0-3.1-0.5-4-1.3C254.5,152.1,254.4,152,254.3,151.9 M269.3,147.8c0,4.3-3.5,7.8-7.8,7.8
	c-1.3,0-2.7-0.4-4.1-1.3c0.4,0.1,0.8,0.1,1.2,0.1c4.6,0,8.4-3.7,8.4-8.4v-2.3l2.3,1V147.8z M269.8,144.5L269.8,144.5L269.8,144.5
	L269.8,144.5z M278.2,155.7c-4.3,0-7.8-3.5-7.8-7.8v-3l2.3-1v2.3c0,4.6,3.8,8.4,8.4,8.4c0.4,0,0.8,0,1.2-0.1
	C280.8,155.3,279.5,155.7,278.2,155.7 M285.3,151.9L285.3,151.9c-0.1,0.1-0.2,0.2-0.3,0.3c-0.9,0.8-2.2,1.3-4,1.3
	c-4,0-7.3-3.3-7.3-7.3v-2.8c4.5-2.1,9.5-6.2,14.3-10.2c7.2-6.1,10.9-13.8,10.9-22.7V92.9c0-3.6-0.6-6.7-1.8-9.4
	c-1.2-2.5-2.9-4.7-5.2-6.5c-0.2-0.2-0.5-0.4-0.7-0.5v-0.2v-1.4c0-3.4,0.4-5.4,3.1-8l4.2-4.2l13,13l-7.2,7.2c-1.9,1.8-3,3.7-3,7.2
	l0,21.6c0,9.4-4.9,18.5-14.2,26.2c-2.1,1.8-4.5,3.5-7,5c-1.4,0.8-2.3,2.3-2.3,3.9c0,2.9,2.4,4.4,4.6,4.4c0.3,0,0.5-0.2,0.5-0.5
	c0-0.3-0.2-0.5-0.5-0.5c-1.4,0-3.6-0.9-3.6-3.4c0-1.2,0.7-2.4,1.7-3l0,0c0.1,0,0.1-0.1,0.2-0.1c0.5-0.3,1-0.4,1.6-0.4
	c3.1,0,4.7,2.5,4.7,4.9C286.8,149.4,286.3,150.8,285.3,151.9"/>
<path class="st3" d="M296.3,144.8c-0.5-0.6-1.2-1-2-1.1c-0.1,0-0.2,0-0.3,0c-0.3,0-0.6,0-0.9,0.1c0.2-0.3,0.3-0.7,0.3-1.1
	c0.1-0.8-0.2-1.6-0.7-2.2l-1.8-2.2c0,0-0.1-0.1-0.1-0.1c0,0-0.1,0-0.1,0l-2.2,1.8c-0.6,0.5-1,1.2-1.1,2c-0.1,1.5,0.8,2.8,2.3,3.2
	l-0.1,0.7l-1,0.8c-0.1,0.1-0.1,0.2,0,0.2l0.4,0.5c0,0,0.1,0.1,0.1,0.1c0,0,0,0,0,0c0,0,0.1,0,0.1,0l0.9-0.7l0.9,0.1
	c0,0.6,0.3,1.2,0.7,1.7c0.5,0.6,1.2,1,2,1.1c0.1,0,0.2,0,0.2,0l0.1,0c0.7,0,1.4-0.2,1.9-0.7l2.2-1.8c0.1-0.1,0.1-0.2,0-0.2
	L296.3,144.8z M291,145.9l-0.5,0l0-0.5c0.2,0,0.5-0.1,0.7-0.1C291.2,145.5,291.1,145.7,291,145.9 M290.7,144.4l0.3-2.8
	c0,0,0-0.1,0-0.1c0,0-0.1-0.1-0.1-0.1l-0.6-0.1h0c-0.1,0-0.2,0.1-0.2,0.1l-0.3,2.8c-0.9-0.3-1.5-1.2-1.4-2.1c0.1-0.5,0.3-1,0.7-1.4
	l1.6-1.3l1.3,1.6c0.3,0.4,0.5,1,0.5,1.5C292.3,143.6,291.6,144.3,290.7,144.4 M295.2,148.3c-0.4,0.3-0.8,0.5-1.3,0.5
	c-0.1,0-0.1,0-0.2,0c-0.5-0.1-1-0.3-1.4-0.7c-0.2-0.3-0.4-0.7-0.4-1l2.8,0.3h0c0.1,0,0.2-0.1,0.2-0.1l0.1-0.6c0,0,0-0.1,0-0.1
	c0,0-0.1-0.1-0.1-0.1L292,146c0.1-0.4,0.3-0.7,0.6-0.9c0.4-0.3,0.8-0.5,1.3-0.5c0.1,0,0.1,0,0.2,0c0.5,0.1,1,0.3,1.4,0.7l1.3,1.6
	L295.2,148.3z"/>
<path class="st3" d="M228.1,101L228.1,101c0.6,0,1.2-0.2,1.6-0.5l0.8,0.8c0,0,0.1,0,0.1,0h0c0,0,0.1,0,0.1,0l0.8-0.8
	c0.5,0.3,1,0.5,1.6,0.5c0,0,0,0,0.1,0c0.7,0,1.4-0.3,1.9-0.8c0.5-0.5,0.8-1.2,0.8-1.9l0-2.6c0-0.1-0.1-0.2-0.2-0.2l-2.6,0
	c-0.7,0-1.4,0.3-1.9,0.8c-0.2,0.2-0.4,0.5-0.6,0.8c-0.1-0.3-0.3-0.6-0.6-0.8c-0.5-0.5-1.2-0.8-1.9-0.8l-2.6,0
	c-0.1,0-0.2,0.1-0.2,0.2l0,2.6c0,0.7,0.3,1.4,0.8,2C226.7,100.7,227.3,101,228.1,101 M231.9,97c0.3-0.3,0.8-0.5,1.2-0.5h0.1l1.8,0
	l0,1.8c0,0.5-0.2,0.9-0.5,1.3c-0.3,0.3-0.8,0.5-1.3,0.5c-0.3,0-0.6-0.1-0.9-0.2l1.8-1.8c0,0,0-0.1,0-0.1s0-0.1,0-0.1l-0.4-0.5
	c0,0-0.1,0-0.1,0c0,0-0.1,0-0.1,0l-1.8,1.8c-0.1-0.3-0.2-0.6-0.2-0.9C231.3,97.8,231.5,97.3,231.9,97 M230.6,99.4
	c0.1,0.2,0.2,0.3,0.2,0.4l-0.2,0.2l-0.2-0.2C230.5,99.7,230.5,99.6,230.6,99.4 M226.3,96.4l1.8,0c0.5,0,0.9,0.2,1.3,0.5
	c0.6,0.6,0.7,1.5,0.3,2.2l-1.8-1.8c0,0-0.1,0-0.1,0h0c0,0-0.1,0-0.1,0l-0.5,0.4c-0.1,0.1-0.1,0.2,0,0.2l1.8,1.8
	c-0.3,0.2-0.6,0.2-0.9,0.2c-0.5,0-0.9-0.2-1.3-0.5c-0.3-0.3-0.5-0.8-0.5-1.3L226.3,96.4z"/>
<path class="st3" d="M310.7,127.9c-0.5-0.8-1.4-1.4-2.4-1.4c0.4-0.9,0.3-1.9-0.3-2.8l-0.1-0.2c0,0-0.1-0.1-0.1-0.1l-0.3,0
	c-1,0-1.9,0.5-2.4,1.3c-0.6-0.7-1.5-1.2-2.4-1.2c0,0-0.1,0-0.1,0l-0.3,0c-0.1,0-0.1,0-0.1,0.1l-0.1,0.2c-0.5,0.9-0.5,1.9,0,2.8
	c-1,0.1-1.8,0.7-2.3,1.6l-0.1,0.2c0,0.1,0,0.1,0,0.2l0.1,0.2c0.5,0.8,1.4,1.4,2.4,1.4c-0.4,0.9-0.3,1.9,0.3,2.8l0.1,0.2
	c0,0,0.1,0.1,0.1,0.1c0,0,0.3,0,0.3,0c1,0,1.9-0.5,2.4-1.3c0.6,0.7,1.5,1.2,2.4,1.2c0,0,0.1,0,0.1,0l0.3,0c0.1,0,0.1,0,0.1-0.1
	l0.1-0.2c0.5-0.9,0.5-1.9,0-2.8c1-0.1,1.8-0.7,2.3-1.6l0.1-0.2c0-0.1,0-0.1,0-0.2L310.7,127.9z M305.6,125.9c0-0.2,0.1-0.3,0.2-0.5
	c0.3-0.6,0.9-1,1.6-1.1c0.3,0.6,0.3,1.3,0,1.9c-0.1,0.1-0.2,0.3-0.3,0.4l-0.4,0.5c-0.3-0.3-0.6-0.5-1-0.6c-0.1,0-0.1,0-0.2,0
	L305.6,125.9z M302.8,124.6c0.7,0,1.3,0.4,1.7,1c0.1,0.1,0.2,0.3,0.2,0.5l0.2,0.6c-0.2,0-0.4,0.1-0.6,0.3c-0.2,0.1-0.4,0.3-0.5,0.5
	l-0.4-0.4c-0.1-0.1-0.2-0.2-0.3-0.4C302.6,125.9,302.6,125.2,302.8,124.6 M302.5,129.4C302.4,129.4,302.4,129.4,302.5,129.4
	c-0.7,0-1.3-0.3-1.7-0.8c0.4-0.6,1-0.9,1.7-1c0,0,0,0,0.1,0c0.1,0,0.3,0,0.4,0l0.6,0.1c0,0.1,0,0.1-0.1,0.2c-0.1,0.4,0,0.8,0.1,1.2
	l-0.6,0.2C302.8,129.4,302.6,129.4,302.5,129.4 M304.9,130.9c0,0.2-0.1,0.3-0.2,0.5c-0.3,0.6-0.9,1-1.6,1.1c-0.3-0.6-0.3-1.3,0-1.9
	c0.1-0.1,0.2-0.3,0.3-0.4l0.4-0.5c0,0,0,0,0,0c0.3,0.3,0.6,0.5,1,0.6c0.1,0,0.1,0,0.2,0L304.9,130.9z M305.3,129.3
	c-0.1,0-0.1,0-0.2,0c-0.2-0.1-0.4-0.2-0.6-0.4c-0.1-0.2-0.2-0.5-0.1-0.7c0.1-0.2,0.2-0.5,0.4-0.6c0.1-0.1,0.3-0.1,0.5-0.1
	c0.1,0,0.1,0,0.2,0c0.2,0,0.4,0.1,0.5,0.3c0,0,0.1,0.1,0.1,0.1c0.1,0.2,0.2,0.5,0.1,0.7c-0.1,0.2-0.2,0.4-0.4,0.6
	C305.6,129.3,305.4,129.3,305.3,129.3 M307.7,132.3c-0.7,0-1.3-0.4-1.7-1c-0.1-0.1-0.2-0.3-0.2-0.5l-0.2-0.6c0.2,0,0.4-0.1,0.6-0.3
	c0.2-0.1,0.4-0.3,0.5-0.5l0.4,0.4c0.1,0.1,0.2,0.2,0.3,0.4C307.9,130.9,308,131.6,307.7,132.3 M308.1,129.2
	C308.1,129.2,308.1,129.2,308.1,129.2c-0.2,0-0.4,0-0.5,0l-0.6-0.1c0-0.1,0-0.1,0.1-0.2c0.1-0.4,0.1-0.8-0.1-1.2l0.6-0.2
	c0.2,0,0.3-0.1,0.5-0.1c0,0,0.1,0,0.1,0c0.7,0,1.3,0.3,1.7,0.8C309.5,128.8,308.8,129.2,308.1,129.2"/>
<rect x="277" y="106" class="st3" width="1.7" height="0.9"/>
<path class="st3" d="M264.7,96.1h2.6V92H264v0.5h-1.8v0.9h1.8v2.5h-1.8v0.9h2.5V96.1z M264.9,92.9h1.5v2.3h-1.5V92.9z"/>
<rect x="269.6" y="89.1" class="st3" width="3.5" height="0.9"/>
<path class="st3" d="M254.6,119.1c-0.4-0.1-0.8-0.3-1.5-0.3c-0.3,0-0.6,0-0.8,0.1c0.1,0.3,0.3,0.6,0.5,0.9c0,0,0,0,0,0
	c0.1,0,0.2,0,0.4,0c0.6,0,0.9,0.1,1.2,0.2c0.3,0.1,0.7,0.3,1.2,0.3c0.2,0,0.3,0,0.5,0v-0.9c0,0,0-0.1,0-0.1c-0.2,0-0.3,0.1-0.5,0.1
	C255.1,119.3,254.8,119.2,254.6,119.1"/>
<path class="st3" d="M309.5,96.3c-0.2,0.2-0.4,0.5-0.6,0.8c-0.1-0.3-0.3-0.6-0.6-0.8c-0.5-0.5-1.2-0.8-1.9-0.8l-2.6,0
	c-0.1,0-0.2,0.1-0.2,0.2l0,2.6c0,0.7,0.3,1.4,0.8,1.9c0.5,0.5,1.2,0.8,1.9,0.8c0,0,0,0,0.1,0c0.6,0,1.1-0.2,1.6-0.5l0.8,0.8
	c0,0,0.1,0,0.1,0c0,0,0.1,0,0.1,0l0.8-0.8c0.4,0.3,1,0.5,1.5,0.5h0.1c0.7,0,1.4-0.3,1.9-0.8c0.5-0.5,0.8-1.2,0.8-2l0-2.6
	c0-0.1-0.1-0.2-0.2-0.2l-2.6,0C310.7,95.5,310,95.8,309.5,96.3 M308,99.1l-1.8-1.8c0,0-0.1,0-0.1,0c0,0-0.1,0-0.1,0l-0.4,0.5
	c0,0,0,0.1,0,0.1s0,0.1,0,0.1l1.8,1.8c-0.3,0.2-0.6,0.2-0.9,0.2c-0.5,0-0.9-0.2-1.3-0.5c-0.3-0.3-0.5-0.8-0.5-1.3l0-1.8l1.8,0h0.1
	c0.5,0,0.9,0.2,1.2,0.5c0.3,0.3,0.5,0.8,0.5,1.3C308.2,98.6,308.2,98.9,308,99.1 M309,100.1l-0.2-0.2c0.1-0.1,0.2-0.3,0.2-0.4
	c0.1,0.2,0.2,0.3,0.2,0.4L309,100.1z M313.3,96.4l0,1.8c0,0.5-0.2,0.9-0.5,1.3c-0.3,0.3-0.8,0.5-1.3,0.5c-0.3,0-0.6-0.1-0.9-0.2
	l1.8-1.8c0.1-0.1,0.1-0.2,0-0.2l-0.5-0.4c0,0-0.1,0-0.1,0h0c0,0-0.1,0-0.1,0l-1.8,1.8c-0.4-0.7-0.3-1.6,0.3-2.2
	c0.3-0.3,0.8-0.5,1.3-0.5L313.3,96.4z"/>
<path class="st3" d="M254.2,115.5c0.3,0.1,0.7,0.3,1.2,0.3s0.9-0.1,1.2-0.3c0.1,0,0.2-0.1,0.3-0.1l-0.4-0.9c-0.1,0-0.1,0.1-0.2,0.1
	c-0.3,0.1-0.5,0.2-0.9,0.2c-0.3,0-0.6-0.1-0.9-0.2c-0.4-0.1-0.8-0.3-1.5-0.3c-0.7,0-1.2,0.2-1.5,0.3c-0.2,0.1-0.4,0.2-0.7,0.2
	c0,0.2,0.1,0.3,0.1,0.5c0,0,0,0,0,0c0,0.2,0.1,0.3,0.1,0.5v0c0.3,0,0.6-0.1,0.8-0.2c0.3-0.1,0.6-0.2,1.2-0.2
	S253.9,115.3,254.2,115.5"/>
<path class="st3" d="M314.4,110.7l-2.7-0.1l-0.1,0c-0.7,0-1.4,0.3-2,0.8c-0.3,0.2-0.5,0.5-0.6,0.9c-0.1-0.3-0.3-0.6-0.6-0.9
	c-0.5-0.5-1.2-0.9-2-0.9l-2.7-0.1c-0.1,0-0.2,0.1-0.2,0.2l-0.1,2.7c0,0.8,0.3,1.5,0.8,2c0.5,0.6,1.3,0.9,2,0.9c0.1,0,0.1,0,0.2,0
	c0.5,0,1-0.2,1.4-0.5l0.8,0.9c0,0,0.1,0.1,0.1,0.1h0c0,0,0.1,0,0.1,0l0.9-0.8c0.5,0.4,1,0.5,1.6,0.6h0.1c0.1,0,0.1,0,0.2,0
	c0.7,0,1.3-0.3,1.8-0.8c0.5-0.5,0.9-1.2,0.9-2l0.1-2.7C314.6,110.7,314.5,110.7,314.4,110.7 M308.1,114.3l-1.8-1.9c0,0-0.1,0-0.1,0
	c0,0-0.1,0-0.1,0l-0.5,0.4c0,0,0,0.1,0,0.1c0,0,0,0.1,0,0.1l1.8,1.9c-0.3,0.2-0.6,0.2-0.9,0.2h0c-0.5,0-1-0.2-1.3-0.6
	c-0.3-0.4-0.5-0.8-0.5-1.3l0-1.9l1.9,0c0.5,0,1,0.2,1.3,0.6c0.3,0.4,0.5,0.8,0.5,1.3C308.4,113.7,308.3,114,308.1,114.3
	 M309.1,115.3l-0.3-0.3c0.1-0.2,0.2-0.3,0.3-0.5c0.1,0.2,0.2,0.3,0.3,0.5L309.1,115.3z M313.6,113.5c0,0.5-0.2,1-0.6,1.3
	c-0.4,0.3-0.8,0.5-1.3,0.5h0c-0.3,0-0.7-0.1-0.9-0.3l1.9-1.8c0,0,0-0.1,0.1-0.1c0,0,0-0.1,0-0.1l-0.4-0.5c0,0-0.1-0.1-0.1-0.1
	c0,0-0.1,0-0.1,0l-1.9,1.8c-0.4-0.7-0.3-1.7,0.3-2.3c0.4-0.3,0.8-0.5,1.3-0.5l1.9,0L313.6,113.5z"/>
<path class="st3" d="M259.3,119.7l-0.7,0.2c-0.1,0-0.1,0.1-0.1,0.1v1.7c0,0.1,0,0.1,0.1,0.1l0.2-0.1c0.1,0,0.1-0.1,0.1-0.1v-0.5
	l0.4-0.1c0.4-0.1,0.6-0.5,0.6-0.9C259.9,119.7,259.7,119.6,259.3,119.7 M259.2,120.6l-0.3,0.1v-0.5l0.3-0.1c0.1,0,0.2,0,0.2,0.2
	C259.5,120.4,259.4,120.6,259.2,120.6"/>
<path class="st3" d="M280.7,119.8l-0.2-0.1c-0.1,0-0.1,0-0.1,0l-0.5,1.4l-0.2-0.5c0,0,0-0.1-0.1-0.1c0.2,0,0.3-0.2,0.3-0.5
	c0-0.4-0.2-0.7-0.6-0.8l-0.7-0.2c-0.1,0-0.1,0-0.1,0.1c0-0.1,0-0.1-0.1-0.1l-1.2-0.4c-0.1,0-0.1,0-0.1,0.1v0.2c0,0.1,0,0.1,0.1,0.1
	l0.4,0.1v1.4c0,0.1,0,0.1,0.1,0.1l0.2,0.1c0.1,0,0.1,0,0.1-0.1v-1.4l0.4,0.1c0.1,0,0.1,0,0.1,0v1.5c0,0.1,0,0.1,0.1,0.1l0.2,0.1
	c0.1,0,0.1,0,0.1-0.1v-0.6l0.1,0c0.1,0,0.2,0.1,0.2,0.2l0.2,0.5c0,0.1,0.1,0.1,0.2,0.2l0.2,0.1c0,0,0,0,0,0c0,0,0,0,0,0l0.2,0.1
	c0.1,0,0.2,0,0.2,0l0.1-0.2l0.6,0.2l0.1,0.3c0,0.1,0.1,0.1,0.2,0.2l0.2,0.1c0.1,0,0.1,0,0.1-0.1l-0.6-2
	C280.8,119.9,280.8,119.9,280.7,119.8 M279.3,120.2l-0.3-0.1v-0.5l0.3,0.1c0.1,0,0.2,0.2,0.2,0.3
	C279.5,120.2,279.4,120.2,279.3,120.2 M280.4,121l0.1-0.4c0.1-0.2,0.1-0.4,0.1-0.4l0,0c0,0,0,0.2,0.1,0.4l0.1,0.5L280.4,121z"/>
<path class="st3" d="M262.7,118.5l-0.2,0.1c-0.1,0-0.1,0.1-0.1,0.1v1.2c0,0.2-0.1,0.3-0.3,0.4c-0.2,0.1-0.3,0-0.3-0.2v-1.2
	c0-0.1,0-0.1-0.1-0.1l-0.2,0.1c-0.1,0-0.1,0.1-0.1,0.1v1.2c0,0.4,0.2,0.6,0.7,0.5c0.5-0.2,0.7-0.5,0.7-1L262.7,118.5
	C262.7,118.5,262.7,118.4,262.7,118.5"/>
<path class="st3" d="M261.1,120.6l-0.6,0.2v-1.4c0-0.1,0-0.1-0.1-0.1l-0.2,0.1c-0.1,0-0.1,0.1-0.1,0.1v1.7c0,0.1,0,0.1,0.1,0.1
	l0.9-0.3c0.1,0,0.1-0.1,0.1-0.2L261.1,120.6C261.2,120.6,261.2,120.5,261.1,120.6"/>
<path class="st3" d="M276.9,120v-1.4c0-0.1,0-0.1-0.1-0.1l-0.2-0.1c-0.1,0-0.1,0-0.1,0.1v1.7c0,0.1,0,0.1,0.1,0.1l0.9,0.3
	c0.1,0,0.1,0,0.1-0.1v-0.2c0-0.1,0-0.1-0.1-0.2L276.9,120z"/>
<path class="st3" d="M276.1,118.1C276,118.1,276,118.1,276.1,118.1l-0.1,1.2c0,0.2-0.1,0.3-0.3,0.2c-0.2-0.1-0.3-0.2-0.3-0.4V118
	c0-0.1,0-0.1-0.1-0.1l-0.2-0.1c-0.1,0-0.1,0-0.1,0.1v1.2c0,0.4,0.2,0.8,0.7,1c0.5,0.2,0.7,0,0.7-0.5v-1.2c0-0.1,0-0.1-0.1-0.2
	L276.1,118.1z"/>
<path class="st3" d="M263.7,118.8c-0.2,0-0.4,0.1-0.4-0.1c0-0.1,0.1-0.2,0.3-0.3c0.2-0.1,0.2,0,0.3,0.1c0,0.1,0.1,0.1,0.1,0l0.2-0.2
	c0.1-0.1,0.1-0.1,0.1-0.2c-0.1-0.2-0.3-0.3-0.7-0.2c-0.5,0.2-0.7,0.5-0.7,0.9c0,0.5,0.4,0.4,0.7,0.4c0.2,0,0.3-0.1,0.3,0.1
	c0,0.2-0.1,0.3-0.3,0.3c-0.2,0.1-0.3,0-0.3-0.1c0-0.1-0.1-0.1-0.1,0l-0.2,0.1c-0.1,0.1-0.1,0.1-0.1,0.2c0.1,0.3,0.3,0.3,0.7,0.2
	c0.4-0.2,0.7-0.5,0.7-0.9C264.4,118.7,264,118.8,263.7,118.8"/>
<path class="st3" d="M266.2,129.1c0.3-0.1,0.6-0.2,1.2-0.2c0.6,0,0.9,0.1,1.2,0.2c0.3,0.1,0.7,0.3,1.2,0.3c0.5,0,0.9-0.1,1.2-0.3
	c0.3-0.1,0.6-0.2,1.2-0.2c0.6,0,0.9,0.1,1.2,0.2c0.2,0.1,0.4,0.2,0.7,0.2l0.3-0.9c-0.2,0-0.4-0.1-0.7-0.2c-0.4-0.1-0.8-0.3-1.5-0.3
	c-0.7,0-1.2,0.2-1.5,0.3c-0.3,0.1-0.5,0.2-0.9,0.2c-0.3,0-0.6-0.1-0.9-0.2c-0.4-0.1-0.8-0.3-1.5-0.3c-0.7,0-1.2,0.2-1.5,0.3
	c-0.2,0.1-0.4,0.2-0.7,0.2l0.3,0.9C265.8,129.3,266,129.2,266.2,129.1"/>
<path class="st3" d="M243.6,142.3l1.2,0c0,0,0.1,0,0.1,0c0,0,0-0.1,0-0.1l0-1.2c0.6-0.1,1.2-0.4,1.6-0.8c0.6-0.5,0.9-1.3,0.9-2
	c0-0.8-0.3-1.5-0.8-2.1l-1.9-2c0,0-0.1-0.1-0.1-0.1s-0.1,0-0.1,0l-2,1.9c-0.6,0.5-0.9,1.3-0.9,2c0,0.4,0.1,0.8,0.2,1.1
	c-0.3-0.2-0.7-0.2-1.1-0.2h-0.1c-0.8,0-1.5,0.3-2,0.8l-2,1.9c-0.1,0.1-0.1,0.2,0,0.2l1.9,2c0.5,0.6,1.3,0.9,2,0.9c0,0,0.1,0,0.1,0
	c0,0,0.1,0,0.1,0C242.2,144.6,243.3,143.7,243.6,142.3 M244,141.4l-0.4,0c0-0.2-0.1-0.4-0.2-0.6c0.2,0.1,0.4,0.1,0.6,0.2L244,141.4z
	 M243.3,136.6l1.4-1.4l1.4,1.4c0.4,0.4,0.6,0.9,0.5,1.4c0,0.5-0.2,1-0.6,1.4c-0.3,0.3-0.6,0.4-0.9,0.5l0.1-2.7c0,0,0-0.1,0-0.1
	c0,0-0.1,0-0.1,0c0,0-0.6,0-0.6,0c0,0-0.1,0-0.1,0c0,0,0,0.1,0,0.1l-0.1,2.7c-0.8-0.2-1.5-1-1.4-1.9
	C242.7,137.5,242.9,137,243.3,136.6 M240.7,143.7L240.7,143.7c-0.6,0-1.1-0.2-1.4-0.6l-1.4-1.4l1.4-1.4c0.4-0.4,0.9-0.5,1.4-0.5h0.1
	c0.9,0,1.7,0.7,1.9,1.5l-2.7-0.1c0,0-0.1,0-0.1,0c0,0-0.1,0.1-0.1,0.1l0,0.6c0,0.1,0.1,0.2,0.2,0.2l2.7,0.1
	C242.4,143.1,241.6,143.7,240.7,143.7"/>
<path class="st3" d="M234.2,132.1c0.5,0.8,1.4,1.3,2.4,1.3c0,0,0.3,0,0.3,0c0.1,0,0.1,0,0.1-0.1l0.1-0.2c0.5-0.8,0.6-1.9,0.2-2.8
	c1-0.1,1.9-0.6,2.4-1.4l0.1-0.2c0,0,0-0.1,0-0.2l-0.1-0.2c-0.5-0.9-1.3-1.5-2.3-1.6c0.4-0.9,0.4-1.9,0-2.8l-0.1-0.2
	c0-0.1-0.1-0.1-0.1-0.1l-0.3,0c0,0-0.1,0-0.1,0c-0.9,0-1.8,0.4-2.4,1.2c-0.5-0.8-1.4-1.3-2.4-1.3l-0.3,0c-0.1,0-0.1,0-0.1,0.1
	l-0.1,0.2c-0.5,0.8-0.6,1.9-0.3,2.8c-1,0.1-1.9,0.6-2.4,1.4l-0.1,0.2c0,0,0,0.1,0,0.2l0.1,0.3c0.5,0.9,1.3,1.5,2.3,1.6
	c-0.4,0.9-0.4,1.9,0,2.8l0.1,0.2c0,0,0.1,0.1,0.1,0.1l0.3,0c0,0,0.1,0,0.1,0C232.7,133.2,233.6,132.8,234.2,132.1 M236.4,132.4
	c-0.7-0.1-1.3-0.5-1.6-1.1c-0.1-0.1-0.1-0.3-0.2-0.5l-0.1-0.6c0.1,0,0.1,0,0.2,0c0.4-0.1,0.7-0.3,1-0.6c0,0,0,0,0,0l0.4,0.5
	c0.1,0.1,0.2,0.3,0.3,0.4C236.7,131.1,236.7,131.8,236.4,132.4 M237.1,127.6C237.1,127.6,237.2,127.6,237.1,127.6
	c0.7,0,1.4,0.4,1.7,1c-0.4,0.5-1,0.8-1.7,0.8c0,0-0.1,0-0.1,0c-0.2,0-0.3,0-0.5-0.1l-0.6-0.2c0.2-0.4,0.2-0.8,0.1-1.2
	c0-0.1,0-0.1-0.1-0.2l0.6-0.1C236.8,127.6,237,127.6,237.1,127.6 M234.9,126c0.1-0.2,0.1-0.3,0.2-0.5c0.4-0.6,1-0.9,1.7-1
	c0.3,0.6,0.2,1.3-0.2,1.9c-0.1,0.1-0.2,0.3-0.3,0.4l-0.4,0.4c-0.1-0.2-0.3-0.3-0.5-0.5c-0.2-0.1-0.4-0.2-0.6-0.3L234.9,126z
	 M234.3,127.5c0.2,0,0.3,0,0.5,0.1c0.2,0.1,0.4,0.3,0.4,0.6c0.1,0.2,0,0.5-0.1,0.7c-0.1,0.2-0.3,0.4-0.6,0.4c-0.1,0-0.1,0-0.2,0
	c-0.2,0-0.3-0.1-0.5-0.1c-0.2-0.1-0.4-0.3-0.4-0.6c-0.1-0.2,0-0.5,0.1-0.7c0,0,0.1-0.1,0.1-0.1c0.1-0.1,0.3-0.2,0.5-0.3
	C234.2,127.5,234.2,127.5,234.3,127.5 M232.2,124.4c0.7,0.1,1.3,0.5,1.6,1.1c0.1,0.1,0.1,0.3,0.2,0.5l0.1,0.6c-0.1,0-0.1,0-0.2,0
	c-0.4,0.1-0.7,0.3-1,0.6l-0.4-0.5c-0.1-0.1-0.2-0.3-0.3-0.4C231.9,125.7,231.9,125,232.2,124.4 M231.5,129.2
	C231.5,129.2,231.5,129.2,231.5,129.2c-0.7,0-1.4-0.4-1.7-1c0.4-0.5,1-0.8,1.7-0.8c0,0,0,0,0.1,0c0.2,0,0.3,0,0.5,0.1l0.6,0.2
	c-0.2,0.4-0.2,0.8-0.1,1.2c0,0.1,0,0.1,0.1,0.2l-0.6,0.1C231.8,129.2,231.6,129.2,231.5,129.2 M231.9,132.3
	c-0.3-0.6-0.2-1.3,0.2-1.9c0.1-0.1,0.2-0.3,0.3-0.4l0.4-0.4c0.1,0.2,0.3,0.3,0.5,0.5c0.2,0.1,0.4,0.2,0.6,0.3l-0.2,0.6
	c-0.1,0.2-0.1,0.3-0.2,0.5C233.2,131.9,232.6,132.2,231.9,132.3"/>
<path class="st3" d="M239.1,137.4l1.2,0.2c0,0,0,0,0,0c0,0,0.1,0,0.1,0c0,0,0.1-0.1,0.1-0.1l0.2-1.2c1.4,0,2.6-1.1,2.8-2.5
	c0.1-0.8-0.1-1.5-0.6-2.1l-1.7-2.2c0,0-0.1-0.1-0.1-0.1c0,0-0.1,0-0.1,0l-2.2,1.7c-0.6,0.5-1,1.2-1.1,1.9c0,0.4,0,0.7,0.1,1.1
	c-0.3-0.2-0.7-0.3-1-0.3c-0.1,0-0.2,0-0.4,0c-0.6,0-1.3,0.2-1.8,0.6l-2.2,1.7c-0.1,0.1-0.1,0.2,0,0.2l1.7,2.2c0.5,0.6,1.2,1,1.9,1.1
	c0.1,0,0.2,0,0.4,0c0,0,0.1,0,0.1,0C237.7,139.5,238.8,138.6,239.1,137.4 M239.7,136.5l-0.4-0.1c0-0.2,0-0.4-0.1-0.6
	c0.2,0.1,0.4,0.2,0.6,0.2L239.7,136.5z M239.4,131.8l1.5-1.2l1.2,1.5c0.3,0.4,0.5,0.9,0.4,1.4c-0.1,0.5-0.3,1-0.7,1.3
	c-0.3,0.2-0.6,0.4-1,0.4l0.3-2.7c0-0.1-0.1-0.2-0.1-0.2l-0.6-0.1c0,0,0,0,0,0c0,0-0.1,0-0.1,0c0,0-0.1,0.1-0.1,0.1l-0.3,2.7
	c-0.8-0.3-1.3-1.2-1.2-2C238.7,132.6,239,132.1,239.4,131.8 M236.3,138.5c-0.1,0-0.2,0-0.3,0c-0.5-0.1-1-0.3-1.3-0.7l-1.2-1.5
	l1.5-1.2c0.3-0.3,0.8-0.4,1.2-0.4c0.1,0,0.2,0,0.3,0c0.5,0.1,1,0.3,1.3,0.7c0.2,0.3,0.3,0.6,0.4,0.9l-2.7-0.3c0,0,0,0,0,0
	c0,0-0.1,0-0.1,0c0,0-0.1,0.1-0.1,0.1l-0.1,0.6c0,0.1,0.1,0.2,0.1,0.2l2.7,0.3c-0.1,0.3-0.3,0.6-0.6,0.8
	C237.2,138.4,236.8,138.5,236.3,138.5"/>
<path class="st3" d="M285,119.1c-0.3,0.1-0.5,0.2-0.9,0.2c-0.2,0-0.4,0-0.5-0.1c0,0,0,0.1,0,0.1v0.9c0.1,0,0.3,0,0.5,0
	c0.5,0,0.9-0.1,1.2-0.3c0.3-0.1,0.6-0.2,1.2-0.2c0.1,0,0.3,0,0.4,0c0,0,0,0,0,0c0.2-0.3,0.3-0.6,0.5-0.9c-0.2,0-0.5-0.1-0.8-0.1
	C285.8,118.8,285.4,119,285,119.1"/>
<rect x="274" y="84.1" class="st3" width="2" height="0.9"/>
<path class="st3" d="M282.9,115.5c0.3,0.1,0.7,0.3,1.2,0.3c0.5,0,0.9-0.1,1.2-0.3c0.3-0.1,0.6-0.2,1.2-0.2c0.5,0,0.9,0.1,1.2,0.2
	c0.2,0.1,0.5,0.2,0.8,0.2c0-0.2,0.1-0.3,0.1-0.5c0,0,0,0,0,0c0-0.2,0.1-0.3,0.1-0.5c-0.3,0-0.5-0.1-0.7-0.2
	c-0.4-0.1-0.8-0.3-1.5-0.3c-0.7,0-1.2,0.2-1.5,0.3c-0.3,0.1-0.5,0.2-0.9,0.2c-0.3,0-0.6-0.1-0.9-0.2c-0.1,0-0.1-0.1-0.2-0.1
	l-0.4,0.9C282.8,115.4,282.9,115.4,282.9,115.5"/>
<path class="st3" d="M267.4,124.3c0.6,0,0.9,0.1,1.2,0.2c0.3,0.1,0.7,0.3,1.2,0.3s0.9-0.1,1.2-0.3c0.3-0.1,0.6-0.2,1.2-0.2
	c0.6,0,0.9,0.1,1.2,0.2c0.1,0,0.1,0,0.2,0.1l0.2-0.4l-0.5-0.7c-0.3-0.1-0.6-0.1-1.1-0.1c-0.7,0-1.2,0.2-1.5,0.3
	c-0.3,0.1-0.5,0.2-0.9,0.2c-0.3,0-0.6-0.1-0.9-0.2c-0.4-0.1-0.8-0.3-1.5-0.3c-0.5,0-0.8,0.1-1.1,0.1l-0.5,0.7l0.2,0.4
	c0.1,0,0.1-0.1,0.2-0.1C266.5,124.4,266.8,124.3,267.4,124.3"/>
<path class="st3" d="M266.3,115.2C266.4,115.2,266.4,115.3,266.3,115.2c0.1,0.1,0.1,0.1,0.2,0.1c0.2-0.1,0.5-0.1,0.9-0.1
	c0.6,0,0.9,0.1,1.2,0.2c0.3,0.1,0.7,0.3,1.2,0.3c0.5,0,0.9-0.1,1.2-0.3c0.3-0.1,0.6-0.2,1.2-0.2c0.4,0,0.7,0.1,0.9,0.1
	c0,0,0.1-0.1,0.1-0.1c0,0,0,0,0,0c0,0,0,0,0,0c0,0,0.1,0,0.1-0.1c0,0,0,0,0.1,0l1.1-0.4c-0.3,0-0.5-0.1-0.8-0.2
	c-0.4-0.1-0.8-0.3-1.5-0.3c-0.7,0-1.2,0.2-1.5,0.3c-0.3,0.1-0.5,0.2-0.9,0.2c-0.3,0-0.6-0.1-0.9-0.2c-0.4-0.1-0.8-0.3-1.5-0.3
	c-0.7,0-1.2,0.2-1.5,0.3c-0.3,0.1-0.5,0.2-0.8,0.2l1.1,0.4c0,0,0,0,0.1,0C266.2,115.2,266.3,115.2,266.3,115.2
	C266.3,115.2,266.3,115.2,266.3,115.2"/>
<path class="st3" d="M270.6,119.1c-0.3,0.1-0.5,0.2-0.9,0.2c-0.3,0-0.6-0.1-0.9-0.2c-0.4-0.1-0.8-0.3-1.5-0.3c-0.2,0-0.4,0-0.5,0v1
	c0.2,0,0.3,0,0.5,0c0.6,0,0.9,0.1,1.2,0.2c0.3,0.1,0.7,0.3,1.2,0.3c0.5,0,0.9-0.1,1.2-0.3c0.3-0.1,0.6-0.2,1.2-0.2
	c0.2,0,0.4,0,0.5,0v-1c-0.2,0-0.3,0-0.5,0C271.5,118.8,271,119,270.6,119.1"/>
<path class="st3" d="M313.8,106.2l0.1-0.2c0-0.1,0-0.1,0-0.2l-0.1-0.2c-0.4-0.7-1.2-1.3-2-1.4c0.3-0.8,0.3-1.7-0.1-2.4l-0.1-0.2
	c0,0-0.1-0.1-0.1-0.1l-0.2,0h-0.1c-0.8,0-1.6,0.4-2.2,1c-0.5-0.7-1.3-1.1-2.2-1.1c0,0-0.3,0-0.3,0c-0.1,0-0.1,0-0.1,0.1l-0.1,0.2
	c-0.4,0.7-0.5,1.6-0.2,2.4c-0.8,0.1-1.6,0.6-2.1,1.3l-0.1,0.2c0,0.1,0,0.1,0,0.2l0.1,0.2c0.4,0.7,1.2,1.3,2,1.4
	c-0.3,0.8-0.3,1.7,0.1,2.4l0.1,0.2c0,0,0.1,0.1,0.1,0.1h0.2c0,0,0,0,0,0h0.1c0.8,0,1.6-0.4,2.2-1c0.5,0.7,1.3,1.1,2.2,1.1
	c0,0,0.3,0,0.3,0c0.1,0,0.1,0,0.1-0.1l0.1-0.2c0.4-0.7,0.5-1.6,0.2-2.4C312.6,107.5,313.3,107,313.8,106.2 M309.4,103.7
	c0-0.1,0.1-0.3,0.2-0.4c0.3-0.5,0.8-0.8,1.4-0.9c0.2,0.5,0.2,1.1-0.1,1.6c-0.1,0.1-0.2,0.2-0.3,0.3l-0.3,0.3c-0.2-0.3-0.6-0.5-1-0.6
	L309.4,103.7z M306.9,102.3c0.6,0.1,1.1,0.4,1.3,0.9c0.1,0.1,0.1,0.3,0.2,0.4l0.1,0.5c-0.3,0.1-0.7,0.2-0.9,0.5c0,0-0.1,0.1-0.1,0.1
	l-0.3-0.4c-0.1-0.1-0.2-0.2-0.3-0.3C306.7,103.5,306.7,102.9,306.9,102.3 M306.3,106.5L306.3,106.5c-0.6,0-1.1-0.3-1.5-0.8
	c0.3-0.4,0.9-0.7,1.4-0.7h0c0.1,0,0.3,0,0.4,0.1l0.5,0.1c-0.1,0.2-0.1,0.4-0.1,0.6c0,0.2,0,0.4,0.1,0.6l-0.5,0.1
	C306.6,106.5,306.5,106.5,306.3,106.5 M308.3,108c0,0.1-0.1,0.3-0.2,0.4c-0.3,0.5-0.8,0.8-1.4,0.9c-0.2-0.5-0.2-1.1,0.1-1.6
	c0.1-0.1,0.2-0.2,0.3-0.3l0.3-0.3c0,0,0.1,0.1,0.1,0.1c0.2,0.2,0.5,0.4,0.9,0.5L308.3,108z M308.8,106.6c-0.2,0-0.4-0.1-0.5-0.2
	c-0.1-0.1-0.2-0.3-0.2-0.5c0-0.4,0.3-0.7,0.7-0.7c0,0,0,0,0.1,0h0c0.2,0,0.4,0.1,0.5,0.2c0.1,0.2,0.2,0.3,0.2,0.5
	c0,0.2-0.1,0.4-0.2,0.5C309.2,106.5,309.1,106.6,308.8,106.6L308.8,106.6z M310.8,109.3c-0.6-0.1-1.1-0.4-1.3-0.9
	c-0.1-0.1-0.1-0.3-0.2-0.4l-0.1-0.5c0.3-0.1,0.6-0.2,0.9-0.5c0,0,0.1-0.1,0.1-0.1l0.3,0.4c0.1,0.1,0.2,0.2,0.2,0.3
	C311,108.2,311,108.8,310.8,109.3 M311.4,106.6L311.4,106.6c-0.2,0-0.3,0-0.5-0.1l-0.5-0.1c0.1-0.2,0.1-0.4,0.1-0.6
	c0-0.2,0-0.4-0.1-0.6l0.5-0.1c0.1,0,0.3,0,0.4,0h0c0.6,0,1.1,0.3,1.4,0.8C312.5,106.3,312,106.6,311.4,106.6"/>
<path class="st3" d="M252.2,142.1c-0.1-0.8-0.5-1.5-1.1-2l-2.2-1.8c0,0-0.1,0-0.1,0c0,0-0.1,0-0.1,0.1l-1.8,2.2
	c-0.5,0.6-0.8,1.4-0.7,2.2c0,0.4,0.2,0.8,0.3,1.1c-0.3-0.1-0.6-0.1-0.9-0.1c-0.1,0-0.2,0-0.3,0c-0.8,0.1-1.5,0.5-2,1.1l-1.8,2.2
	c-0.1,0.1,0,0.2,0,0.2l2.2,1.8c0.5,0.4,1.2,0.7,1.9,0.7l0.1,0c0.1,0,0.2,0,0.2,0c0.8-0.1,1.5-0.5,2-1.1c0.4-0.5,0.6-1.1,0.7-1.7
	l0.9-0.1l0.9,0.7c0,0,0.1,0,0.1,0c0,0,0,0,0,0c0,0,0.1,0,0.1-0.1l0.4-0.5c0.1-0.1,0-0.2,0-0.2l-1-0.8l-0.1-0.7
	C251.4,145,252.3,143.6,252.2,142.1 M247.2,148c-0.4,0.4-0.8,0.7-1.4,0.7c-0.1,0-0.1,0-0.2,0c-0.5,0-0.9-0.2-1.3-0.5l-1.6-1.3
	l1.3-1.6c0.3-0.4,0.8-0.7,1.4-0.7c0.1,0,0.1,0,0.2,0c0.5,0,0.9,0.2,1.3,0.5c0.3,0.2,0.5,0.5,0.6,0.9l-2.8,0.3c0,0-0.1,0-0.1,0.1
	c0,0,0,0.1,0,0.1l0.1,0.6c0,0.1,0.1,0.1,0.2,0.1h0l2.8-0.3C247.6,147.4,247.5,147.7,247.2,148 M248.5,145.9
	c-0.1-0.2-0.1-0.4-0.3-0.7c0.2,0.1,0.5,0.1,0.7,0.1l0,0.5L248.5,145.9z M249.8,144.4l-0.3-2.8c0-0.1-0.1-0.1-0.2-0.1h0l-0.6,0.1
	c0,0-0.1,0-0.1,0.1c0,0,0,0.1,0,0.1l0.3,2.8c-0.9-0.1-1.7-0.9-1.7-1.8c-0.1-0.5,0.1-1.1,0.5-1.5l1.3-1.6l1.6,1.3
	c0.4,0.3,0.7,0.8,0.7,1.4C251.3,143.2,250.7,144.1,249.8,144.4"/>
<path class="st3" d="M228.9,123.4c0.2,0,0.4,0,0.5-0.1c0.6-0.1,1.1-0.4,1.5-0.9l1,0.6c0,0,0.1,0,0.1,0c0,0,0,0,0,0
	c0,0,0.1,0,0.1-0.1l0.6-1c0.3,0.1,0.7,0.2,1.1,0.2c0,0,0.1,0,0.1,0c0.9,0,1.8-0.5,2.3-1.3c0.4-0.6,0.5-1.4,0.4-2.1l-0.6-2.6
	c0-0.1-0.1-0.1-0.2-0.1c0,0,0,0,0,0l-2.6,0.6c-0.7,0.2-1.4,0.6-1.8,1.3c-0.2,0.3-0.3,0.6-0.4,1c-0.2-0.3-0.5-0.5-0.8-0.7
	c-0.5-0.3-1-0.4-1.5-0.4c-0.2,0-0.4,0-0.6,0.1l-2.6,0.6c-0.1,0-0.1,0.1-0.1,0.2l0.6,2.6c0.2,0.7,0.6,1.4,1.3,1.8
	C227.8,123.2,228.3,123.4,228.9,123.4C228.8,123.4,228.9,123.4,228.9,123.4 M232.3,118.4c0.3-0.4,0.7-0.7,1.2-0.8l1.8-0.4l0.4,1.8
	c0.1,0.5,0,1-0.2,1.4c-0.3,0.5-0.9,0.9-1.6,0.9c-0.2,0-0.4,0-0.6-0.1l1.4-2.2c0,0,0-0.1,0-0.1c0,0,0-0.1-0.1-0.1l-0.5-0.3
	c0,0-0.1,0-0.1,0c-0.1,0-0.1,0-0.1,0.1l-1.4,2.2C231.9,120,231.8,119.1,232.3,118.4 M231.6,121.1c0.1,0.1,0.2,0.3,0.4,0.4l-0.2,0.3
	l-0.3-0.2C231.5,121.4,231.6,121.2,231.6,121.1 M227.8,122.1c-0.4-0.3-0.7-0.7-0.8-1.2l-0.4-1.8l1.8-0.4c0.1,0,0.3-0.1,0.4-0.1
	c0.3,0,0.7,0.1,1,0.3c0.7,0.5,1,1.3,0.8,2.1l-2.2-1.4c0,0-0.1,0-0.1,0c-0.1,0-0.1,0-0.1,0.1l-0.3,0.5c0,0,0,0.1,0,0.1
	c0,0,0,0.1,0.1,0.1l2.2,1.4c-0.3,0.3-0.8,0.5-1.3,0.5C228.5,122.4,228.1,122.3,227.8,122.1"/>
<path class="st3" d="M314,118.4l-2.6-0.6c-0.2,0-0.4-0.1-0.6-0.1c-0.5,0-1.1,0.1-1.5,0.4c-0.3,0.2-0.6,0.4-0.8,0.7
	c-0.1-0.3-0.2-0.7-0.4-1c-0.4-0.6-1-1.1-1.8-1.3l-2.6-0.6c0,0,0,0,0,0c-0.1,0-0.1,0.1-0.2,0.1l-0.6,2.6c-0.2,0.7,0,1.5,0.4,2.1
	c0.5,0.8,1.4,1.3,2.3,1.3c0,0,0.1,0,0.1,0c0.4,0,0.7-0.1,1.1-0.2l0.6,1c0,0,0.1,0.1,0.1,0.1c0,0,0,0,0,0c0,0,0.1,0,0.1,0l1-0.6
	c0.4,0.4,0.9,0.8,1.5,0.9c0.2,0,0.4,0.1,0.5,0.1c0,0,0.1,0,0.1,0c0.5,0,1-0.2,1.5-0.4c0.6-0.4,1.1-1,1.3-1.8l0.6-2.6
	C314.2,118.5,314.1,118.4,314,118.4 M307.1,120.6l-1.4-2.2c0,0-0.1-0.1-0.1-0.1c0,0-0.1,0-0.1,0l-0.5,0.3c0,0-0.1,0.1-0.1,0.1
	c0,0,0,0.1,0,0.1l1.4,2.2c-0.2,0.1-0.4,0.1-0.6,0.1c-0.7,0-1.2-0.3-1.6-0.9c-0.3-0.4-0.3-0.9-0.2-1.4l0.4-1.8l1.8,0.4
	c0.5,0.1,0.9,0.4,1.2,0.8C307.8,119.1,307.7,120,307.1,120.6 M307.8,121.8l-0.2-0.3c0.1-0.1,0.3-0.3,0.4-0.4c0,0.2,0.1,0.4,0.2,0.5
	L307.8,121.8z M312.6,121c-0.1,0.5-0.4,0.9-0.8,1.2c-0.3,0.2-0.6,0.3-1,0.3c-0.5,0-1-0.2-1.3-0.5l2.2-1.4c0,0,0.1-0.1,0.1-0.1
	c0,0,0-0.1,0-0.1l-0.3-0.5c0,0-0.1-0.1-0.1-0.1c0,0-0.1,0-0.1,0l-2.2,1.4c-0.2-0.8,0.1-1.7,0.8-2.1c0.3-0.2,0.6-0.3,1-0.3
	c0.1,0,0.3,0,0.4,0l1.8,0.4L312.6,121z"/>
<polygon class="st3" points="289.3,125.7 288.7,124.6 288.2,125.7 286.9,125.9 287.8,126.8 287.6,128.1 288.7,127.5 289.9,128.1 
	289.7,126.8 290.6,125.9 "/>
<polygon class="st3" points="270.4,139.4 269.8,138.2 269.2,139.4 267.9,139.5 268.9,140.5 268.6,141.7 269.8,141.1 270.9,141.7 
	270.7,140.5 271.6,139.5 "/>
<polygon class="st3" points="260.3,133.6 259.7,132.4 259.1,133.6 257.9,133.8 258.8,134.7 258.6,136 259.7,135.3 260.9,136 
	260.6,134.7 261.6,133.8 "/>
<polygon class="st3" points="280.4,133.6 279.9,132.4 279.3,133.6 278,133.8 278.9,134.7 278.7,136 279.9,135.3 281,136 
	280.8,134.7 281.7,133.8 "/>
<polygon class="st3" points="287.9,81.5 289.1,80.9 290.2,81.5 290,80.2 290.9,79.3 289.7,79.1 289.1,77.9 288.5,79.1 287.2,79.3 
	288.2,80.2 "/>
<polygon class="st3" points="250.8,124.6 250.3,125.7 249,125.9 249.9,126.8 249.7,128.1 250.8,127.5 252,128.1 251.8,126.8 
	252.7,125.9 251.4,125.7 "/>
<polygon class="st3" points="293.4,104.1 294.6,103.5 295.7,104.1 295.5,102.8 296.4,101.9 295.2,101.7 294.6,100.5 294,101.7 
	292.7,101.9 293.7,102.8 "/>
<polygon class="st3" points="293.3,117 294.4,116.4 295.6,117 295.3,115.7 296.3,114.8 295,114.6 294.4,113.5 293.8,114.6 
	292.6,114.8 293.5,115.7 "/>
<polygon class="st3" points="293.4,91.6 294.6,91 295.7,91.6 295.5,90.3 296.4,89.4 295.2,89.2 294.6,88 294,89.2 292.7,89.4 
	293.7,90.3 "/>
<polygon class="st3" points="245.7,114.6 245.2,113.5 244.6,114.6 243.3,114.8 244.2,115.7 244,117 245.2,116.4 246.3,117 
	246.1,115.7 247,114.8 "/>
<polygon class="st3" points="249.4,81.5 250.5,80.9 251.6,81.5 251.4,80.2 252.3,79.3 251.1,79.1 250.5,77.9 249.9,79.1 248.7,79.3 
	249.6,80.2 "/>
<polygon class="st3" points="243.9,91.6 245,91 246.1,91.6 245.9,90.3 246.8,89.4 245.6,89.2 245,88 244.4,89.2 243.2,89.4 
	244.1,90.3 "/>
<polygon class="st3" points="243.9,104.1 245,103.5 246.1,104.1 245.9,102.8 246.8,101.9 245.6,101.7 245,100.5 244.4,101.7 
	243.2,101.9 244.1,102.8 "/>
<polygon class="st3" points="265.5,56.3 264.7,54.3 264,54.3 265.2,57.1 265.8,57.1 267,54.3 266.4,54.3 "/>
<polygon class="st3" points="269.4,56.6 267.9,56.6 267.9,55.9 269.2,55.9 269.2,55.4 267.9,55.4 267.9,54.8 269.3,54.8 269.3,54.3 
	267.3,54.3 267.3,57.1 269.4,57.1 "/>
<path class="st3" d="M270.6,56.3h0.6h0l0.5,0.8h0.7l-0.6-0.9c0.2-0.1,0.3-0.2,0.4-0.3c0.1-0.1,0.2-0.3,0.2-0.5
	c0-0.2-0.1-0.4-0.1-0.5c-0.1-0.2-0.2-0.3-0.4-0.3c-0.2-0.1-0.4-0.1-0.6-0.1h-1.2v2.8h0.6V56.3z M270.6,54.8h0.5c0.2,0,0.3,0,0.4,0.1
	c0.1,0.1,0.1,0.2,0.1,0.4c0,0.2,0,0.3-0.1,0.4c-0.1,0.1-0.2,0.1-0.4,0.1h-0.5V54.8z"/>
<path class="st3" d="M273.4,56.5h1.3l0.2,0.6h0.7l-1.2-2.8h-0.6l-1.2,2.8h0.7L273.4,56.5z M274,55l0.4,1.1h-0.9L274,55z"/>
<path class="st3" d="M220.8,175.9l-5.8,16.3c-0.3,0.7-0.6,0.9-1.3,0.9h-2.1c-0.7,0-1.1-0.2-1.3-0.8l-5.9-16.4c-0.3-0.7-0.1-1,0.7-1
	h1.9c1.3,0,1.7,0.2,1.9,0.9l3,9.6c0.4,1.4,0.6,3.1,0.6,3.1h0.2c0,0,0.2-1.6,0.6-3.1l3-9.6c0.2-0.7,0.6-0.9,1.9-0.9h1.9
	C220.9,174.9,221.1,175.2,220.8,175.9"/>
<path class="st3" d="M235,175.9v1.7c0,0.8-0.3,1-1,1h-7.2v3.3h5.9c0.8,0,1.1,0.3,1.1,1v1.7c0,0.8-0.3,1.1-1.1,1.1h-5.9v3.5h7.4
	c0.8,0,1.1,0.3,1.1,1.1v1.7c0,0.8-0.3,1.1-1.1,1.1h-10.6c-0.8,0-1.1-0.3-1.1-1.1v-16.1c0-0.8,0.3-1.1,1.1-1.1H234
	C234.8,174.9,235,175.1,235,175.9"/>
<path class="st3" d="M251.8,180.8c0,2.6-1.1,4.4-3,5.3c0.2,0.3,0.4,0.6,0.5,0.9l2.6,5.1c0.3,0.6,0.2,1.1-0.5,1.1h-2.1
	c-1.3,0-1.8-0.2-2.2-1l-1.9-3.9c-0.6-1.2-1.1-1.5-2.5-1.5h-1.1v5.4c0,0.8-0.3,1-1.1,1h-2.1c-0.8,0-1.1-0.3-1.1-1v-16.1
	c0-0.8,0.3-1.1,1.1-1.1h7.1C249.5,174.9,251.8,177.1,251.8,180.8 M245.4,178.7h-3.6v4.2h3.6c1.4,0,2.1-0.8,2.1-2.1
	C247.5,179.5,246.7,178.7,245.4,178.7"/>
<path class="st3" d="M269.2,193.1h-1.9c-1.3,0-1.7-0.2-1.9-0.9l-0.8-2.4h-6.3l-0.8,2.4c-0.3,0.7-0.6,0.9-1.9,0.9h-1.8
	c-0.8,0-0.9-0.3-0.7-1l6.1-16.3c0.3-0.7,0.6-0.9,1.3-0.9h2c0.7,0,1.1,0.2,1.3,0.8l6.1,16.4C270.1,192.8,269.9,193.1,269.2,193.1
	 M261.5,178.7h-0.3c0,0,0,1.8-0.6,3.6l-1.3,4h4.2l-1.3-4C261.6,180.5,261.5,178.7,261.5,178.7"/>
<path class="st3" d="M278.2,174.5c3.8,0,6.2,1.5,7.2,4.3c0.3,0.7,0.1,1.1-0.6,1.3l-2,0.7c-0.8,0.2-1.1,0.1-1.3-0.6
	c-0.5-1.3-1.5-1.9-3.2-1.9c-2.2,0-3.4,1-3.4,3.1v5.2c0,2,1.2,3.1,3.4,3.1c1.7,0,2.7-0.6,3.2-1.9c0.3-0.7,0.6-0.9,1.3-0.6l2,0.7
	c0.7,0.3,0.9,0.6,0.6,1.3c-1,2.8-3.4,4.3-7.2,4.3c-4.8,0-7.6-2.6-7.6-6.9v-5.2C270.6,177.1,273.4,174.5,278.2,174.5"/>
<path class="st3" d="M301.8,180.8c0,2.6-1.1,4.4-3,5.3c0.2,0.3,0.4,0.6,0.5,0.9l2.6,5.1c0.3,0.6,0.2,1.1-0.5,1.1h-2.1
	c-1.3,0-1.8-0.2-2.2-1l-1.9-3.9c-0.6-1.2-1.1-1.5-2.5-1.5h-1v5.4c0,0.8-0.3,1-1.1,1h-2.1c-0.8,0-1.1-0.3-1.1-1v-16.1
	c0-0.8,0.3-1.1,1.1-1.1h7.1C299.5,174.9,301.8,177.1,301.8,180.8 M295.4,178.7h-3.6v4.2h3.6c1.4,0,2.1-0.8,2.1-2.1
	C297.5,179.5,296.7,178.7,295.4,178.7"/>
<path class="st3" d="M311.7,189.7c2.2,0,3.3-1.1,3.3-2.9v-10.8c0-0.8,0.3-1.1,1.1-1.1h2.1c0.8,0,1.1,0.3,1.1,1.1v10.7
	c0,4.1-2.6,6.8-7.4,6.8c-4.8,0-7.4-2.7-7.4-6.8v-10.7c0-0.8,0.3-1.1,1.1-1.1h2.1c0.8,0,1,0.3,1,1.1v10.8
	C308.5,188.6,309.6,189.7,311.7,189.7"/>
<path class="st3" d="M335.1,175.9v1.5c0,0.4-0.1,0.7-0.4,1.1l-7.9,10.8h7.4c0.8,0,1.1,0.3,1.1,1.1v1.7c0,0.8-0.3,1.1-1.1,1.1h-11.7
	c-0.8,0-1.1-0.3-1.1-1.1v-1.5c0-0.4,0.1-0.7,0.3-1.1l8-10.8h-7.1c-0.8,0-1-0.3-1-1v-1.7c0-0.8,0.3-1.1,1-1.1H334
	C334.8,174.9,335.1,175.1,335.1,175.9"/>
<path class="st3" d="M224.3,208.9v3.2c0,3.7-2.5,6.1-7,6.1c-4.6,0-7.1-2.5-7.1-6.5v-6c0-4,2.4-6.4,7-6.4c3.9,0,5.9,1.5,6.8,4.4
	c0.1,0.4,0.1,0.5-0.3,0.7l-0.8,0.3c-0.4,0.1-0.5,0.1-0.7-0.3c-0.7-2.2-2.1-3.3-5.1-3.3c-3.4,0-5.2,1.7-5.2,4.7v6
	c0,3,1.8,4.7,5.2,4.7c3.4,0,5.2-1.8,5.2-4.4v-1.9h-4.9c-0.4,0-0.5-0.1-0.5-0.5v-0.7c0-0.4,0.1-0.5,0.5-0.5h6.3
	C224.2,208.3,224.3,208.5,224.3,208.9"/>
<path class="st3" d="M234.1,199.2c4.6,0,7,2.4,7,6.4v6c0,4-2.5,6.4-7,6.4c-4.6,0-7.1-2.4-7.1-6.4v-6
	C227,201.6,229.5,199.2,234.1,199.2 M234.1,200.9c-3.4,0-5.2,1.7-5.2,4.7v6c0,3,1.8,4.7,5.2,4.7c3.4,0,5.2-1.7,5.2-4.7v-6
	C239.2,202.7,237.4,200.9,234.1,200.9"/>
<path class="st3" d="M257.3,204.2c0,2.1-0.8,3.4-2.4,4.1v0.1c1.9,0.5,3.1,2.1,3.1,4.5c0,3.2-2.1,4.9-5.3,4.9h-7.5
	c-0.4,0-0.5-0.1-0.5-0.5v-17.2c0-0.4,0.1-0.5,0.5-0.5h7.2C255.4,199.6,257.3,201.2,257.3,204.2 M252.1,201.3h-5.7v6.4h5.7
	c2.1,0,3.3-1.1,3.3-3.2C255.4,202.4,254.2,201.3,252.1,201.3 M252.5,209.3h-6.1v6.7h6.1c2.2,0,3.4-1.1,3.4-3.3
	C255.9,210.5,254.7,209.3,252.5,209.3"/>
<path class="st3" d="M261.6,199.6h0.8c0.4,0,0.5,0.1,0.5,0.5v17.2c0,0.4-0.1,0.5-0.5,0.5h-0.8c-0.4,0-0.5-0.1-0.5-0.5v-17.2
	C261,199.7,261.2,199.6,261.6,199.6"/>
<path class="st3" d="M278.3,200.1v0.7c0,0.4-0.1,0.5-0.5,0.5h-9.1v6.4h7.9c0.4,0,0.5,0.1,0.5,0.5v0.7c0,0.4-0.1,0.5-0.5,0.5h-7.9
	v6.6h9.4c0.4,0,0.5,0.1,0.5,0.5v0.7c0,0.4-0.1,0.5-0.5,0.5h-10.7c-0.4,0-0.5-0.1-0.5-0.5v-17.2c0-0.4,0.1-0.5,0.5-0.5h10.4
	C278.1,199.6,278.3,199.7,278.3,200.1"/>
<path class="st3" d="M294.7,204.9c0,2.8-1.6,4.6-4.1,5c0.8,0.4,1.2,0.9,1.7,1.8l2.9,5.6c0.2,0.3,0.1,0.5-0.3,0.5H294
	c-0.6,0-0.8-0.1-1-0.5l-2.5-4.9c-0.8-1.6-1.6-2.2-3.7-2.2h-3.5v7.1c0,0.4-0.1,0.5-0.5,0.5h-0.8c-0.4,0-0.5-0.1-0.5-0.5v-17.2
	c0-0.4,0.1-0.5,0.5-0.5h7.3C292.7,199.6,294.7,201.5,294.7,204.9 M289.2,201.3h-5.7v7.1h5.7c2.3,0,3.6-1.3,3.6-3.5
	C292.8,202.6,291.5,201.3,289.2,201.3"/>
<path class="st3" d="M311.8,200.1v17.2c0,0.4-0.1,0.5-0.5,0.5h-0.8c-0.3,0-0.4-0.1-0.5-0.3l-8.2-11.7c-0.9-1.4-1.7-3.1-2.1-3.7h-0.1
	c0,0.7,0.3,2.6,0.3,4.5v10.6c0,0.4-0.1,0.5-0.5,0.5h-0.8c-0.4,0-0.5-0.1-0.5-0.5v-17.2c0-0.4,0.1-0.5,0.5-0.5h0.8
	c0.3,0,0.4,0.1,0.5,0.3l8,11.5c1,1.5,1.8,3.3,2.3,3.9h0.1c0-0.8-0.3-2.7-0.3-4.8v-10.4c0-0.4,0.1-0.5,0.5-0.5h0.8
	C311.7,199.6,311.8,199.7,311.8,200.1"/>
<path class="st3" d="M322.3,199.2c4.6,0,7,2.4,7,6.4v6c0,4-2.5,6.4-7,6.4c-4.6,0-7.1-2.4-7.1-6.4v-6
	C315.3,201.6,317.7,199.2,322.3,199.2 M322.3,200.9c-3.4,0-5.2,1.7-5.2,4.7v6c0,3,1.8,4.7,5.2,4.7c3.4,0,5.2-1.7,5.2-4.7v-6
	C327.5,202.7,325.7,200.9,322.3,200.9"/>
<path class="st3" d="M213.4,231v4.7c0,4.2-2.7,6.8-7.4,6.8h-5.4c-0.4,0-0.5-0.1-0.5-0.5v-17.2c0-0.4,0.1-0.5,0.5-0.5h5.4
	C210.7,224.3,213.4,226.8,213.4,231 M206,226h-4.1v14.7h4.1c3.6,0,5.6-1.8,5.6-5V231C211.5,227.8,209.6,226,206,226"/>
<path class="st3" d="M228.2,224.8v0.7c0,0.4-0.1,0.5-0.5,0.5h-9.1v6.4h7.9c0.4,0,0.5,0.1,0.5,0.5v0.7c0,0.4-0.1,0.5-0.5,0.5h-7.9
	v6.6h9.4c0.4,0,0.5,0.1,0.5,0.5v0.7c0,0.4-0.1,0.5-0.5,0.5h-10.7c-0.4,0-0.5-0.1-0.5-0.5v-17.2c0-0.4,0.1-0.5,0.5-0.5h10.4
	C228,224.3,228.2,224.4,228.2,224.8"/>
<path class="st3" d="M233.3,224.8v15.9h8.7c0.4,0,0.5,0.1,0.5,0.5v0.7c0,0.4-0.1,0.5-0.5,0.5h-10c-0.4,0-0.5-0.1-0.5-0.5v-17.2
	c0-0.4,0.1-0.5,0.5-0.5h0.8C233.2,224.3,233.3,224.4,233.3,224.8"/>
<path class="st3" d="M261.7,224.8v0.7c0,0.4-0.1,0.5-0.5,0.5h-9.1v6.4h7.9c0.4,0,0.5,0.1,0.5,0.5v0.7c0,0.4-0.1,0.5-0.5,0.5h-7.9
	v6.6h9.4c0.4,0,0.5,0.1,0.5,0.5v0.7c0,0.4-0.1,0.5-0.5,0.5h-10.7c-0.4,0-0.5-0.1-0.5-0.5v-17.2c0-0.4,0.1-0.5,0.5-0.5h10.4
	C261.6,224.3,261.7,224.4,261.7,224.8"/>
<path class="st3" d="M271,223.9c3.5,0,5.4,1.3,6.7,4c0.2,0.3,0.1,0.5-0.3,0.7l-0.8,0.4c-0.3,0.2-0.5,0.1-0.7-0.2c-1-2-2.4-3-5-3
	c-3,0-4.7,1.2-4.7,3.4c0,2.6,2.6,3.1,5.3,3.4c3.1,0.4,6.4,0.9,6.4,5c0,3.4-2.4,5.4-7,5.4c-3.7,0-5.8-1.4-6.9-4.4
	c-0.1-0.4-0.1-0.5,0.3-0.7l0.8-0.3c0.4-0.1,0.5-0.1,0.7,0.3c0.9,2.2,2.6,3.3,5.2,3.3c3.4,0,5.1-1.2,5.1-3.6c0-2.6-2.4-3-5-3.3
	c-3.2-0.4-6.8-0.9-6.8-5.1C264.4,226,266.7,223.9,271,223.9"/>
<path class="st3" d="M292.5,224.8v0.7c0,0.4-0.1,0.5-0.5,0.5h-5.2v15.9c0,0.4-0.1,0.5-0.5,0.5h-0.8c-0.4,0-0.5-0.1-0.5-0.5V226h-5.2
	c-0.4,0-0.5-0.1-0.5-0.5v-0.7c0-0.4,0.1-0.5,0.5-0.5H292C292.4,224.3,292.5,224.4,292.5,224.8"/>
<path class="st3" d="M306.6,242.5h-0.7c-0.6,0-0.8-0.1-0.9-0.5l-1.9-4.9h-8L293,242c-0.1,0.4-0.3,0.5-0.9,0.5h-0.7
	c-0.4,0-0.5-0.2-0.3-0.5l6.9-17.4c0.1-0.4,0.3-0.4,0.6-0.4h0.8c0.4,0,0.5,0.1,0.7,0.4l6.9,17.4C307.1,242.3,307,242.5,306.6,242.5
	 M299,225.9h-0.1c0,0.1,0,0.9-0.3,1.8l-3.1,7.9h7l-3.1-7.9C299.1,226.8,299,226,299,225.9"/>
<path class="st3" d="M322.6,231v4.7c0,4.2-2.7,6.8-7.4,6.8h-5.4c-0.4,0-0.5-0.1-0.5-0.5v-17.2c0-0.4,0.1-0.5,0.5-0.5h5.4
	C319.9,224.3,322.6,226.8,322.6,231 M315.2,226h-4.1v14.7h4.1c3.6,0,5.6-1.8,5.6-5V231C320.7,227.8,318.8,226,315.2,226"/>
<path class="st3" d="M332.5,223.9c4.6,0,7,2.4,7,6.4v6c0,4-2.5,6.4-7,6.4c-4.6,0-7-2.4-7-6.4v-6
	C325.5,226.3,327.9,223.9,332.5,223.9 M332.5,225.6c-3.4,0-5.2,1.7-5.2,4.7v6c0,3,1.8,4.7,5.2,4.7c3.4,0,5.2-1.7,5.2-4.7v-6
	C337.7,227.4,335.9,225.6,332.5,225.6"/>
</svg>
