<?xml version="1.0" encoding="utf-8"?>
<!-- Generator: Adobe Illustrator 21.1.0, SVG Export Plug-In . SVG Version: 6.00 Build 0)  -->
<svg version="1.1" id="Capa_1" xmlns="http://www.w3.org/2000/svg" xmlns:xlink="http://www.w3.org/1999/xlink" x="0px" y="0px"
	 viewBox="0 0 1027.4 506.4" style="enable-background:new 0 0 1027.4 506.4;" xml:space="preserve">
<style type="text/css">
	.st0{fill:#D2AD27;}
	.st1{fill:#D1D3D4;}
	.st2{fill:#F1F2F2;}
	.st3{fill:#00B3E0;}
	.st4{fill:#FFD000;}
	.st5{fill:#D62A34;}
	.st6{fill:#65A521;}
	.st7{fill:#3FB34F;}
	.st8{fill:#744C2C;}
	.st9{fill:#5D3328;}
	.st10{fill:#FFFFFF;}
	.st11{fill:#ECA918;}
	.st12{fill:none;stroke:#00B3E0;stroke-width:0.8515;stroke-miterlimit:10;}
</style>
<g>
	<path class="st0" d="M219.9,260.8v18.3h9.4v-20.6h2.9v20.6h8.2v-6.5h2.9v6.5h8.8v-18.3c0-6.3-3.6-11.7-8.8-14.4v21.7h-2.9v-22.8
		c-1.4-0.4-2.9-0.6-4.4-0.6c-1.3,0-2.6,0.2-3.8,0.5v9.9h-2.9v-8.9C223.8,248.6,219.9,254.3,219.9,260.8"/>
	<path class="st1" d="M256.8,322.4l-5.1,1.8l3,4.1c0.3,0.4,0.4,1,0.1,1.5l-2.6,5.4l4.5-1.7V322.4z"/>
	<polygon class="st1" points="256.8,302.2 253.6,303.3 256.8,304.4 	"/>
	<polygon class="st2" points="259.7,289.9 259.7,305.5 267.6,308.4 267.6,289.9 	"/>
	<polygon class="st2" points="212.5,289.9 204.5,289.9 204.5,308.4 212.5,305.5 	"/>
	<path class="st1" d="M220.5,324.3l-5.1-1.8v11.1l4.5,1.7l-2.6-5.4c-0.2-0.5-0.2-1.1,0.1-1.5L220.5,324.3z"/>
	<path class="st3" d="M218.3,342.8l2.3,6.4h30.8l2.3-6.4c0.2-0.6,0.8-1,1.4-1h1.6v-5.2l-6.9,2.5c-0.2,0.1-0.3,0.1-0.5,0.1
		c-0.4,0-0.8-0.2-1.1-0.5c-0.4-0.4-0.5-1.1-0.2-1.6l3.7-7.8l-3.6-5c-0.3-0.4-0.4-0.8-0.2-1.3c0.1-0.4,0.5-0.8,0.9-0.9l5.3-1.9
		l-5.3-1.9c-0.6-0.2-1-0.8-1-1.4v-13.6c0-0.5,0.2-0.9,0.6-1.2c0.1-0.1,0.2-0.1,0.3-0.2l0,0l7.9-2.9v-9.1h-1.6c-0.6,0-1.2-0.4-1.4-1
		l-2.3-6.8h-30.8l-2.3,6.8c-0.2,0.6-0.8,1-1.4,1h-1.6v9.1l7.9,2.9l0,0c0.1,0,0.2,0.1,0.3,0.2c0.4,0.3,0.6,0.7,0.6,1.2V317
		c0,0.6-0.4,1.2-1,1.4l-5.3,1.9l5.3,1.9c0.4,0.2,0.8,0.5,0.9,0.9c0.1,0.4,0.1,0.9-0.2,1.3l-3.6,5l3.7,7.8c0.3,0.5,0.2,1.2-0.2,1.6
		c-0.3,0.3-0.7,0.5-1.1,0.5c-0.2,0-0.3,0-0.5-0.1l-6.9-2.5v5.2h1.6C217.6,341.9,218.1,342.3,218.3,342.8 M224.2,299.9
		c-0.1,0-0.1-0.1-0.2-0.1l-3.4-1.3c1,0,1.7-0.3,2.5-0.6c1.2-0.5,2.6-1,5-1c2.4,0,3.9,0.6,5.1,1c0.9,0.4,1.7,0.6,2.8,0.6
		c1.1,0,1.9-0.3,2.8-0.6c1.2-0.5,2.6-1,5-1c2.4,0,3.9,0.6,5.1,1c0.9,0.3,1.6,0.6,2.5,0.6l-3.4,1.3c-0.1,0-0.1,0-0.2,0.1
		c-0.1,0.1-0.3,0.1-0.4,0.2c0,0-0.1,0.1-0.1,0.1c0,0-0.1,0.1-0.1,0.1c-0.1,0.1-0.2,0.2-0.3,0.3c-0.8-0.3-1.7-0.5-3-0.5
		c-1.8,0-2.8,0.4-3.9,0.8c-1,0.4-2.2,0.9-4,0.9c-1.7,0-2.9-0.5-4-0.9c-1.1-0.4-2.1-0.8-3.9-0.8c-1.3,0-2.2,0.2-2.9,0.5
		c-0.1-0.1-0.2-0.2-0.3-0.3c0,0-0.1-0.1-0.1-0.1c0,0-0.1-0.1-0.1-0.1C224.5,300,224.4,300,224.2,299.9 M245.7,312v3.2
		c-0.5-0.1-1.1-0.1-1.7-0.1c-1.8,0-2.8,0.4-3.9,0.8c-1,0.4-2.2,0.9-4,0.9c-1.7,0-2.9-0.5-4-0.9c-1.1-0.4-2.1-0.8-3.9-0.8
		c-0.7,0-1.2,0.1-1.7,0.1V312c0.5-0.1,1.1-0.1,1.7-0.1c2.4,0,3.9,0.6,5.1,1c0.9,0.4,1.7,0.6,2.8,0.6c1.1,0,1.9-0.3,2.8-0.6
		c1.2-0.5,2.6-1,5-1C244.6,311.9,245.1,311.9,245.7,312 M223.7,331.1l-0.7-1.4l1.7-2.3c0.9-0.3,2-0.5,3.5-0.5c2.4,0,3.9,0.6,5.1,1
		c0.9,0.4,1.7,0.6,2.8,0.6c1.1,0,1.9-0.3,2.8-0.6c1.2-0.5,2.6-1,5-1c1.5,0,2.6,0.2,3.5,0.5l1.7,2.3l-0.7,1.4
		c-0.2-0.1-0.4-0.2-0.7-0.2c-1.1-0.4-2.1-0.8-3.9-0.8c-1.8,0-2.8,0.4-3.9,0.8c-1,0.4-2.2,0.9-4,0.9c-1.7,0-2.9-0.5-4-0.9
		c-1.1-0.4-2.1-0.8-3.9-0.8c-1.8,0-2.8,0.4-3.9,0.8C224.1,330.9,223.9,331,223.7,331.1 M223.2,342.8c1.2-0.5,2.6-1,5-1
		c2.4,0,3.9,0.6,5.1,1c0.9,0.4,1.7,0.7,2.8,0.7c1.1,0,1.9-0.3,2.8-0.7c1.2-0.5,2.6-1,5-1c2.4,0,3.9,0.6,5.1,1
		c0.8,0.3,1.4,0.5,2.2,0.6l-1.1,3.1c-0.9-0.2-1.6-0.4-2.2-0.7c-1.1-0.4-2.1-0.8-3.9-0.8c-1.8,0-2.8,0.4-3.9,0.8
		c-1,0.4-2.2,0.9-4,0.9c-1.7,0-2.9-0.5-4-0.9c-1.1-0.4-2.1-0.8-3.9-0.8c-1.8,0-2.8,0.4-3.9,0.8c-0.7,0.3-1.4,0.5-2.3,0.7l-1.1-3.1
		C221.8,343.3,222.4,343.1,223.2,342.8"/>
	<polygon class="st2" points="272.7,282.1 254.6,282.1 256.2,287 271,287 	"/>
	<path class="st4" d="M149.8,197.3c-3.8,8.4-5.7,18.3-5.7,29.5v57.7c0,28.2,11.6,52.3,34.5,71.8c16.6,14.1,34,28.1,48.9,34.4
		l8.7,3.7l8.7-3.7c14.9-6.3,32.3-20.3,48.9-34.4c22.9-19.5,34.5-43.7,34.5-71.8v-57.7c0-11.2-1.9-21.2-5.7-29.5
		c-3.6-7.9-9-14.6-16-20.1c-6.1-4.8-13.4-8.7-21.7-11.8c-2.8,6.4-9.3,11.1-16.7,11.1c-7,0-12.9-2.6-17.1-7.5
		c-2.5-2.9-4.3-6.5-5.2-10.4h-19.2c-2.2,9.6-9.8,17.8-22.3,17.8c-7.4,0-13.9-4.6-16.7-11.1c-8.2,3.1-15.5,7-21.7,11.8
		C158.8,182.7,153.4,189.4,149.8,197.3 M222.5,179.1v-5.5h8v3.2h1.4v-3.2h8.4v3.2h1.4v-3.2h8v5.5c17.4,0.7,33.4,5.9,44.1,14.2
		c4.4,3.5,7.7,7.5,9.9,12.4c2.6,5.7,3.9,12.8,3.9,21v57.7c0,22.2-8.9,40.6-27.3,56.2c-14.6,12.4-31.2,25.8-43.6,31.1l-0.7,0.3
		l-0.7-0.3c-12.4-5.3-29-18.7-43.6-31.1c-18.3-15.6-27.3-34-27.3-56.2v-57.7c0-8.3,1.3-15.4,3.9-21c2.2-4.9,5.5-9,9.9-12.4
		C189.1,185,205.1,179.8,222.5,179.1"/>
	<path class="st0" d="M302.7,170.4v-9.7c0-16.7-13.6-30.3-30.3-30.3c-7.3,0-12.7,2.1-16.4,5.2c-0.4,0.4-0.9,0.9-1.3,1.3
		c-0.1,0.1-0.2,0.2-0.3,0.3c-4.1,4.3-5.8,10.1-5.8,15.4c0,10.2,6.7,20.5,19.6,20.5c8,0,14.7-6.7,14.7-14.7c0-10.3-9.2-14.2-15-14.2
		c-1,0-1.7-0.8-1.7-1.7c0-1,0.8-1.7,1.7-1.7c8.9,0,18.4,6.2,18.4,17.7c0,1.3-0.1,2.5-0.4,3.7C291.9,164.4,297.6,167.1,302.7,170.4"
		/>
	<path class="st5" d="M227.2,155.1c3.9,0,13.9,0,17.8,0v-41.6h22.3V95.7H245V73.4h-17.8v22.3h-22.3v17.8h22.3V155.1z"/>
	<polygon class="st4" points="230.5,205.2 241.6,205.2 241.6,199.3 235.6,199.3 235.6,196.4 241.6,196.4 241.6,188.2 246.8,188.2 
		246.8,186.9 231.2,186.9 231.2,183.9 246.8,183.9 246.8,176.5 244.6,176.5 244.6,179.7 237.4,179.7 237.4,176.5 234.8,176.5 
		234.8,179.7 227.5,179.7 227.5,176.5 225.4,176.5 225.4,188.2 230.5,188.2 	"/>
	<polygon class="st4" points="206.1,191.1 206.1,205.2 212,205.2 212,209.3 221.9,209.3 221.9,205.2 227.6,205.2 227.6,200.9 
		214.4,200.9 214.4,198 227.6,198 227.6,191.1 225.4,191.1 225.4,194.3 218.1,194.3 218.1,191.1 215.6,191.1 215.6,194.3 
		208.3,194.3 208.3,191.1 	"/>
	<path class="st6" d="M194.1,261.1l9.2-11.1v-18.9l-4.5-3.4v-22.5h4.5v-17h8.1v3.2h1.4v-3.2h8.4v3.2h1.4v-1v-7.8
		c-16.6,0.7-31.8,5.6-42,13.5c-4,3.1-6.9,6.8-8.9,11.1c-2.4,5.2-3.6,11.8-3.6,19.6v52.3h26.1V261.1z"/>
	<path class="st7" d="M236.1,368.4c7.2-3.2,16-9.3,24.9-16.2h-49.8C220.1,359.1,228.8,365.2,236.1,368.4"/>
	<path class="st3" d="M201.6,331.6l-7.9-2.9l0,0c-0.1,0-0.2-0.1-0.3-0.2c-0.4-0.3-0.6-0.7-0.6-1.2v-13.6c0-0.6,0.4-1.2,1-1.4
		l5.3-1.9l-5.3-1.9c-0.4-0.2-0.8-0.5-0.9-1c-0.1-0.4,0-0.9,0.2-1.3l3.6-4.7l-3.8-8.1c-0.2-0.5-0.1-1.2,0.3-1.6
		c0.4-0.4,1-0.6,1.6-0.4l6.9,2.5v-4h-1.6c-0.6,0-1.2-0.4-1.4-1l-2.3-6.8h-2.3V282H168v2.5c0,21.1,8.5,38.7,26.1,53.6
		c1.5,1.2,2.9,2.5,4.4,3.8h3.1V331.6z M174.3,301.7L174.3,301.7c-0.1-0.5-0.3-1-0.4-1.5c0,0,0,0,0,0c-0.1-0.5-0.2-1-0.4-1.6
		c0.9-0.1,1.6-0.3,2.4-0.6c1.2-0.5,2.6-1,5.1-1c2.4,0,3.9,0.6,5,1c0.9,0.4,1.7,0.7,2.8,0.7c1.1,0,1.9-0.3,2.8-0.7
		c0.2-0.1,0.4-0.2,0.7-0.3l1.3,2.9c-0.3,0.1-0.6,0.2-0.9,0.3c-1.1,0.4-2.2,0.9-4,0.9c-1.7,0-2.9-0.5-4-0.9c-1.1-0.4-2.1-0.8-3.9-0.8
		c-1.8,0-2.8,0.4-3.9,0.8C176.3,301.2,175.5,301.5,174.3,301.7 M190.5,313.7v2.9c-0.5,0.1-1,0.2-1.6,0.2c-1.7,0-2.9-0.5-4-0.9
		c-1.1-0.4-2.1-0.8-3.9-0.8c-0.5,0-0.9,0-1.2,0.1c0,0,0,0,0,0c-0.5-1-1.1-2-1.5-3c0.8-0.2,1.7-0.3,2.8-0.3c2.4,0,3.9,0.6,5,1
		c0.9,0.4,1.7,0.6,2.8,0.6c0.7,0,1.2-0.1,1.7-0.2C190.5,313.4,190.5,313.6,190.5,313.7"/>
	<polygon class="st2" points="212.5,322.3 204.5,325.2 204.5,341.9 212.5,341.9 	"/>
	<path class="st3" d="M278.1,282L278.1,282l-2.3,0.1l-2.3,6.8c-0.2,0.6-0.8,1-1.4,1h-1.6v4l6.9-2.5c0.6-0.2,1.2-0.1,1.6,0.4
		c0.4,0.4,0.5,1.1,0.3,1.6l-3.8,8.1l3.6,4.7c0.3,0.4,0.4,0.9,0.2,1.3c-0.1,0.4-0.5,0.8-0.9,1l-5.3,1.9l5.3,1.9c0.6,0.2,1,0.8,1,1.4
		v13.7c0,0.5-0.2,0.9-0.6,1.2c-0.1,0.1-0.2,0.1-0.3,0.2l0,0l-7.9,2.9v10.2h3.1c1.5-1.3,3-2.5,4.4-3.8c17.5-14.9,26.1-32.5,26.1-53.6
		V282H278.1z M292.4,315.1C292.4,315.1,292.4,315.1,292.4,315.1c-0.4,0-0.8-0.1-1.2-0.1c-1.8,0-2.8,0.4-3.9,0.8
		c-1,0.4-2.2,0.9-4,0.9c-0.6,0-1.1-0.1-1.6-0.1v-2.9c0-0.1,0-0.3,0-0.4c0.5,0.1,1,0.2,1.7,0.2c1.2,0,1.9-0.3,2.8-0.6
		c1.2-0.5,2.6-1,5-1c1.1,0,2,0.1,2.8,0.3C293.4,313.2,292.9,314.1,292.4,315.1 M298.6,298.5c-0.1,0.5-0.2,1-0.4,1.6l0,0
		c-0.1,0.5-0.3,1-0.4,1.5c-1.1-0.1-2-0.5-2.8-0.8c-1.1-0.4-2.1-0.8-3.9-0.8c-1.8,0-2.8,0.4-3.9,0.8c-1,0.4-2.2,0.9-4,0.9
		c-1.7,0-2.9-0.5-4-0.9c-0.3-0.1-0.6-0.2-0.9-0.3l1.3-2.9c0.2,0.1,0.5,0.2,0.7,0.3c0.9,0.4,1.7,0.6,2.8,0.6c1.2,0,1.9-0.3,2.8-0.6
		c1.2-0.5,2.6-1,5-1c2.4,0,3.9,0.6,5.1,1C297,298.2,297.7,298.5,298.6,298.5z"/>
	<path class="st2" d="M215.9,344.8H202l2.5,2.1c0.9,0.8,1.9,1.5,2.8,2.3h10.1L215.9,344.8z"/>
	<polygon class="st2" points="259.7,322.3 259.7,341.9 267.6,341.9 267.6,325.2 	"/>
	<path class="st2" d="M256.2,344.8l-1.6,4.4h10.1c1-0.8,1.9-1.5,2.9-2.3l2.5-2.1H256.2z"/>
	<path class="st7" d="M300.6,207.2c-2-4.4-4.9-8-8.9-11.1c-10.1-7.9-25.4-12.8-42-13.5v5.6v3.2h1.4v-3.2h8.4v3.2h1.4v-3.2h8.1v17
		h4.5v22.5l-4.5,3.4V250l9.1,11.1v18h26.1v-52.3C304.2,219,302.9,212.4,300.6,207.2"/>
	<polygon class="st1" points="215.4,302.2 215.4,304.4 218.5,303.3 	"/>
	<polygon class="st2" points="221.3,305.4 195.7,314.7 195.7,325.3 221.3,315.9 	"/>
	<path class="st1" d="M275.1,295.4l-4.6,1.7v11.1l5-1.8l-2.9-3.8c-0.3-0.4-0.4-1-0.2-1.5L275.1,295.4z"/>
	<rect x="247.1" y="226.8" class="st0" width="5" height="7.5"/>
	<rect x="220" y="226.8" class="st0" width="5" height="7.5"/>
	<path class="st4" d="M270.6,214.2v-6.1h-7.5v4.1h-15.8v-4.1h-22.5v4.1h-15.7v-4.1h-7.5v18.1l4.5,3.4V251l-9.2,11.1v17h20v-6.3
		h-15.3v-2.9H217v-8.5h-8.4v-2.9h8.6c1.1-9.4,9.2-16.8,18.9-16.8c10.5,0,19.1,8.6,19.1,19.1v18.3h20v-6.3h-6.9v-2.9h6.9v-7.7
		l-0.6-0.8h-9.8v-2.9h7.4L266,251v-0.5h-9.8v-2.9h9.8v-8.2h-13.4v-2.2h-5.9v2.2h-11.2v-2.9h8.6v-8.2h-8.6v-2.9h8.6v-1.5h10.8v12.6
		h11v-6.8l1.8-1.3h-9v-2.9h11.7v-8.2h-19.8v-2.9H270.6z M259.8,269.8h5.5v2.9h-5.5V269.8z M227.9,237.2h-8.7v2.2H211v-2.9h6.1v-8.2
		H211v-2.9h6.1v-1.5h10.8V237.2z M247,217.1h-11.4v-2.9H247V217.1z"/>
	<path class="st4" d="M244.6,191.1v14.1h5.7v4.1h9.9v-4.1h5.9v-4.3h-4.9V198h4.9v-6.9h-2.2v3.2h-7.3v-3.2H254v3.2h-7.3v-3.2H244.6z
		 M250,198h6.7v2.9H250V198z"/>
	<path class="st0" d="M272.3,126.9c15.5,0,28.6,10.5,32.6,24.8c1.6-4.1,4.1-8,8.3-12.3c-5.5-11.1-16.8-18.2-29.2-18.2
		c-6.2,0-12.2,2-18.6,6.4C267.7,127.1,270,126.9,272.3,126.9"/>
	<path class="st0" d="M204.4,144.1c-5.8,0-15,3.8-15,14.2c0,7.9,6.8,14.7,14.7,14.7c12.8,0,19.6-10.3,19.6-20.5
		c0-5.3-1.7-11.1-5.8-15.4c-0.1-0.1-0.2-0.1-0.3-0.3c-0.4-0.5-0.9-0.9-1.3-1.3c-3.8-3.1-9.1-5.2-16.4-5.2
		c-16.7,0-30.3,13.6-30.3,30.3v9.7c5.1-3.2,10.7-6,16.9-8.3c-0.3-1.2-0.4-2.5-0.4-3.8c0-11.5,9.5-17.7,18.4-17.7
		c1,0,1.7,0.8,1.7,1.7C206.1,143.4,205.3,144.1,204.4,144.1"/>
	<path class="st0" d="M199.8,126.9c2.3,0,4.6,0.2,6.9,0.7c-6.4-4.4-12.4-6.4-18.6-6.4c-12.4,0-23.8,7.1-29.2,18.2
		c4.2,4.3,6.8,8.2,8.3,12.3C171.2,137.4,184.3,126.9,199.8,126.9"/>
	<polygon class="st2" points="217.6,282.1 199.4,282.1 201.1,287 215.9,287 	"/>
	<polygon class="st1" points="201.6,326.2 198.5,327.4 201.6,328.5 	"/>
	<path class="st1" d="M196.6,306.4l5,1.8v-11.1l-4.6-1.7l2.6,5.7c0.2,0.5,0.2,1.1-0.2,1.5L196.6,306.4z"/>
	<polygon class="st1" points="273.7,327.4 270.5,326.2 270.5,328.5 	"/>
	<polygon class="st2" points="276.5,314.7 250.8,305.4 250.8,315.9 276.5,325.3 	"/>
	<path class="st0" d="M245.5,401.7v-7.5l-7.7,3.3l0,9.8c0,14.2,11.6,25.8,25.8,25.8c4.4,0,8.8-1.3,13.3-4.2
		c-1.3,0.2-2.6,0.3-3.9,0.3C257.8,429.1,245.5,416.8,245.5,401.7"/>
	<polygon class="st8" points="236.1,396.3 236.1,396.3 236.1,396.3 236.1,396.2 	"/>
	<path class="st0" d="M226.6,401.7c0,15.1-12.3,27.4-27.4,27.4c-1.3,0-2.6-0.1-3.9-0.3c4.6,2.8,8.9,4.2,13.3,4.2
		c14.2,0,25.8-11.6,25.8-25.8v-9.9l-7.7-3.3V401.7z"/>
	<path class="st0" d="M276.6,418c-7.3,0-15.1-5.1-15.1-14.5c0-5.5,3.1-10.4,7.7-13c8.3-5.2,16.1-10.7,23.2-16.5
		c30.6-25.2,46.7-55,46.7-86v-70.9c0-11.4,3.8-17.4,9.9-23.5l23.8-23.8l-42.6-42.6l-13.8,13.8c-8.7,8.7-10.2,15.2-10.2,26.3v4.4h0
		v0.8c0.8,0.6,1.6,1.2,2.4,1.8c7.5,5.8,13.2,13,17,21.4c4,8.8,6,19.2,6,31v57.7c0,29.2-12,54.3-35.7,74.5
		c-15.7,13.4-32.2,26.7-46.9,33.6v9.1c0,13.2,10.8,24,24,24c5.8,0,10-1.6,13-4.1c0.3-0.3,0.7-0.6,1-1l0,0c3.4-3.4,4.8-8.1,4.8-12.4
		c0-8-5.3-16.1-15.4-16.1c-1.9,0-3.7,0.5-5.3,1.3c-0.2,0.1-0.4,0.2-0.6,0.4l0,0c-3.3,2-5.6,5.7-5.6,9.8c0,8.1,7.2,11.1,11.7,11.1
		c1,0,1.7,0.8,1.7,1.7S277.6,418,276.6,418"/>
	<path class="st0" d="M223.2,401.7v-9.1c-14.6-7-31.1-20.2-46.9-33.6c-23.7-20.2-35.7-45.2-35.7-74.5v-57.7c0-11.7,2-22.1,6-31
		c3.8-8.4,9.5-15.6,17-21.4c0.8-0.6,1.6-1.2,2.4-1.8v-0.8l0,0v-4.4c0-11.1-1.5-17.6-10.2-26.3L142,127.3l-42.6,42.6l23.8,23.8
		c6.1,6.1,9.9,12.1,9.9,23.5v70.9c0,31,16.2,60.8,46.7,86c7,5.8,14.8,11.3,23.1,16.5c4.6,2.6,7.7,7.5,7.7,13c0,5.8-2.8,9.2-5.2,11.1
		c-2.7,2.2-6.4,3.4-10,3.4c-1,0-1.7-0.8-1.7-1.7s0.8-1.7,1.7-1.7c4.5,0,11.7-3,11.7-11.1c0-4.1-2.3-7.7-5.6-9.8l0,0
		c-0.2-0.1-0.4-0.2-0.6-0.4c-1.6-0.8-3.4-1.3-5.3-1.3c-10.1,0-15.4,8.1-15.4,16.1c0,4.3,1.4,8.9,4.8,12.4l0,0c0.3,0.3,0.7,0.7,1,1
		c3,2.5,7.2,4.1,13,4.1C212.4,425.7,223.2,414.9,223.2,401.7"/>
	<path class="st7" d="M368.8,240.1c-1.9,1.9-2.2,4.8-0.9,7.1l5.8-5.9c0.1-0.1,0.2-0.2,0.4-0.2h0c0.1,0,0.3,0.1,0.4,0.2l1.5,1.5
		c0.2,0.2,0.2,0.5,0,0.7l-5.8,5.9c0.9,0.5,1.9,0.8,2.9,0.8c1.6,0,3.1-0.6,4.2-1.8c1.1-1.1,1.7-2.6,1.7-4.2l-0.1-5.9l-5.9,0.1
		C371.4,238.4,369.9,239,368.8,240.1"/>
	<path class="st7" d="M350.6,244.5c0,1.6,0.6,3.1,1.8,4.2c1.1,1.1,2.6,1.7,4.1,1.7c1.1,0,2.1-0.3,3-0.8l-5.9-5.8
		c-0.1-0.1-0.2-0.2-0.2-0.4c0-0.1,0.1-0.3,0.2-0.4l1.5-1.5c0.1-0.1,0.2-0.2,0.4-0.2c0.1,0,0.3,0,0.4,0.1l5.9,5.8
		c0.5-0.9,0.7-1.9,0.7-2.9c0-1.6-0.6-3.1-1.8-4.2c-1.1-1.1-2.5-1.7-4-1.7h-0.2l-5.9,0L350.6,244.5z"/>
	<path class="st7" d="M351.6,311.6l1.8-1.1c0.1-0.1,0.2-0.1,0.3-0.1c0.2,0,0.4,0.1,0.4,0.3l4.6,7.3c1.9-2,2.2-5.1,0.7-7.5
		c-0.9-1.4-2.2-2.4-3.9-2.7l-6-1.4l-1.4,6c-0.4,1.6-0.1,3.2,0.8,4.6c1.1,1.8,3.1,2.9,5.2,2.9c0.6,0,1.3-0.1,1.9-0.3l-4.6-7.3
		c-0.1-0.1-0.1-0.3-0.1-0.4C351.4,311.8,351.4,311.7,351.6,311.6"/>
	<path class="st7" d="M370.7,311.4c-1.1,0-2.3,0.3-3.3,0.9c-2.4,1.5-3.4,4.4-2.6,7l7.3-4.6c0.1-0.1,0.2-0.1,0.3-0.1
		c0.2,0,0.3,0.1,0.5,0.2l1.1,1.8c0.1,0.1,0.1,0.3,0.1,0.4c0,0.1-0.1,0.3-0.2,0.3l-7.3,4.6c1.1,1.1,2.7,1.7,4.3,1.7
		c1.1,0,2.3-0.3,3.3-0.9c1.4-0.9,2.4-2.2,2.7-3.8l1.4-6l-6-1.4C371.6,311.5,371.2,311.4,370.7,311.4"/>
	<path class="st7" d="M362.9,294.1c0-1.6-0.6-3.2-1.7-4.4c-1.1-1.2-2.7-1.9-4.3-1.9l-6.2-0.1l-0.1,6.2c0,1.6,0.6,3.2,1.7,4.4
		c1.1,1.2,2.7,1.9,4.3,1.9l0.1,0c1.1,0,2.1-0.3,3-0.8l-6-6.2c-0.1-0.1-0.1-0.2-0.1-0.4c0-0.1,0.1-0.3,0.2-0.4l1.5-1.4
		c0.1-0.1,0.2-0.1,0.4-0.1c0.1,0,0.3,0.1,0.4,0.2l5.9,6.2C362.6,296.2,362.9,295.2,362.9,294.1"/>
	<path class="st7" d="M373.8,288.1c-1.6,0-3.1,0.6-4.3,1.7c-2,2-2.5,5-1.1,7.4l6.2-6c0.1-0.1,0.2-0.2,0.4-0.2c0.1,0,0.3,0.1,0.4,0.2
		l1.4,1.5c0.1,0.1,0.2,0.2,0.2,0.4c0,0.1-0.1,0.3-0.2,0.4l-6.2,6c0.9,0.6,2,0.9,3.1,0.9h0.1c1.6,0,3.1-0.6,4.3-1.7
		c1.2-1.1,1.9-2.7,1.9-4.3l0.1-6.2L373.8,288.1z"/>
	<path class="st7" d="M316.1,396.9c-0.2,0-0.4,0-0.7,0c-1.6,0-3.1,0.5-4.3,1.6c-1,0.8-1.7,1.8-2.1,3l9.3,0.9c0.1,0,0.3,0.1,0.4,0.2
		c0.1,0.1,0.1,0.2,0.1,0.4l-0.2,2.1c0,0.3-0.3,0.5-0.5,0.5c0,0,0,0,0,0l-9.4-0.9c0.2,1.2,0.7,2.4,1.5,3.4c1.2,1.4,2.8,2.2,4.6,2.4
		c0.2,0,0.4,0,0.7,0c1.6,0,3-0.5,4.3-1.5l5.2-4.3l-4.3-5.2C319.5,397.9,317.9,397.1,316.1,396.9"/>
	<path class="st7" d="M309,385.2l-4.3-5.2l-5.2,4.3c-1.4,1.1-2.2,2.8-2.4,4.6c-0.3,3.1,1.6,6,4.6,7l0.9-9.4c0-0.3,0.3-0.5,0.5-0.5
		c0,0,0,0,0,0l2.1,0.2c0.1,0,0.3,0.1,0.4,0.2c0.1,0.1,0.1,0.2,0.1,0.4l-0.9,9.3c3-0.4,5.4-2.9,5.7-6
		C310.7,388.3,310.1,386.6,309,385.2"/>
	<path class="st7" d="M318.6,366l-4.5,4.7c-1.2,1.2-1.8,2.9-1.8,4.6c0,1.7,0.8,3.3,2,4.5c0.9,0.8,1.9,1.4,3.1,1.6l-0.2-9
		c0-0.1,0-0.3,0.1-0.4c0.1-0.1,0.2-0.2,0.4-0.2l2.1,0c0.1,0,0.3,0,0.4,0.1c0.1,0.1,0.2,0.2,0.2,0.4l0.2,9c2.8-0.8,4.8-3.4,4.7-6.4
		c0-1.7-0.7-3.3-2-4.5L318.6,366z"/>
	<path class="st7" d="M331.6,380.9h-0.2c-2.9,0.1-5.5,2.2-6.1,5l9-0.2c0.1,0,0.3,0.1,0.4,0.1c0.1,0.1,0.2,0.2,0.2,0.4l0.1,2.1
		c0,0.3-0.2,0.5-0.5,0.6l-9,0.2c0.8,2.8,3.3,4.8,6.2,4.8h0.2c1.7,0,3.3-0.7,4.5-2l4.5-4.7l-4.7-4.5
		C334.9,381.5,333.3,380.9,331.6,380.9"/>
	<path class="st7" d="M330.7,356.5l2.1-0.3c0,0,0,0,0.1,0c0.1,0,0.2,0,0.3,0.1c0.1,0.1,0.2,0.2,0.2,0.4l1.1,8.8
		c2.7-1.1,4.3-3.9,4-6.7c-0.2-1.7-1.1-3.2-2.4-4.2l-5-3.9l-3.9,5.1c-1,1.3-1.5,3-1.3,4.7c0.2,1.7,1.1,3.2,2.4,4.2
		c0.9,0.7,2,1.2,3.2,1.3l-1.1-8.9C330.2,356.8,330.4,356.5,330.7,356.5"/>
	<path class="st7" d="M346,364c-0.3,0-0.5,0-0.8,0.1c-1.7,0.2-3.2,1.1-4.3,2.4c-0.7,0.9-1.1,2-1.3,3.1l8.8-1.1c0,0,0,0,0.1,0
		c0.1,0,0.2,0,0.3,0.1c0.1,0.1,0.2,0.2,0.2,0.4l0.3,2.1c0,0.3-0.2,0.6-0.5,0.6l-8.9,1.1c0.4,1.1,1.1,2,2,2.7
		c1.1,0.9,2.5,1.4,3.9,1.4c0.3,0,0.5,0,0.8-0.1c1.7-0.2,3.2-1.1,4.2-2.4l3.9-5.1l-5-3.9C348.8,364.4,347.4,364,346,364"/>
	<path class="st5" d="M357.3,339.4l1.3-1.5c0.4-0.4,0.7-0.9,1-1.3c1-2,1-4.3,0-6.3c-2.2,0.3-4.2,1.6-5.2,3.6c-0.2,0.5-0.4,1-0.6,1.5
		l-0.5,1.9c0.2,0,0.4,0.1,0.6,0.1C355.3,337.7,356.5,338.4,357.3,339.4"/>
	<path class="st5" d="M343.4,346.7c0.5,0,1.1-0.1,1.6-0.3l1.9-0.6c-0.5-1.2-0.6-2.5-0.4-3.8c0-0.2,0.1-0.4,0.2-0.6l-1.9-0.4
		c-0.5-0.1-0.9-0.1-1.4-0.1c-0.1,0-0.2,0-0.2,0c-2.2,0.1-4.3,1.3-5.5,3.1c1.3,1.7,3.3,2.7,5.5,2.7
		C343.3,346.7,343.3,346.7,343.4,346.7"/>
	<path class="st5" d="M362.2,340.2c-0.1,0-0.2,0-0.2,0c-0.5,0-1.1,0.1-1.6,0.3l-1.9,0.5c0.5,1.2,0.6,2.5,0.3,3.8
		c0,0.2-0.1,0.4-0.2,0.6l2,0.4c0.5,0.1,0.9,0.2,1.4,0.2c0.1,0,0.2,0,0.2,0c2.2-0.1,4.3-1.3,5.5-3.1
		C366.3,341.2,364.3,340.2,362.2,340.2"/>
	<path class="st5" d="M359.1,348.6l-1.4-1.4c-0.5,0.6-1,1.1-1.7,1.5c-0.7,0.4-1.4,0.7-2.1,0.8l0.6,1.9c0.2,0.5,0.4,1,0.7,1.5
		c1.2,1.9,3.2,3.1,5.5,3.2c0.9-2,0.7-4.4-0.5-6.3C359.8,349.4,359.5,348.9,359.1,348.6"/>
	<path class="st5" d="M350.9,353.1c0.2-0.5,0.4-1,0.6-1.5l0.5-1.9c-0.2,0-0.4-0.1-0.7-0.1c-1.3-0.3-2.4-1-3.3-1.9c0,0,0,0,0,0
		l-1.3,1.5c-0.4,0.4-0.7,0.9-0.9,1.3c-1,2-1,4.3,0,6.3C347.9,356.4,349.8,355,350.9,353.1"/>
	<path class="st4" d="M352.7,346.5c0.6,0,1.1-0.2,1.6-0.5c0.7-0.4,1.2-1.1,1.4-1.9c0.2-0.8,0-1.6-0.4-2.3c-0.1-0.1-0.2-0.3-0.3-0.4
		c-0.4-0.5-1-0.8-1.6-1c-0.2-0.1-0.5-0.1-0.7-0.1c-0.6,0-1.1,0.2-1.6,0.5c-0.7,0.4-1.2,1.1-1.3,1.9c-0.2,0.8,0,1.6,0.4,2.3
		c0.4,0.7,1.1,1.2,1.9,1.4C352.2,346.5,352.4,346.5,352.7,346.5"/>
	<path class="st5" d="M345.2,337.1c0.3,0.5,0.6,0.9,1,1.3l1.4,1.4c0.5-0.6,1-1.1,1.7-1.5c0.7-0.4,1.4-0.7,2.1-0.8l-0.6-1.9
		c-0.2-0.5-0.4-1-0.7-1.5c-1.2-1.9-3.2-3.1-5.5-3.2C343.9,332.8,344,335.2,345.2,337.1"/>
	<path class="st5" d="M360.2,265.4c0.1-0.1,0.2-0.2,0.3-0.3c0.8-0.8,1.9-1.3,3-1.5l-0.4-1.5c-0.1-0.5-0.3-0.9-0.5-1.3
		c-0.9-1.6-2.5-2.7-4.4-3c-0.8,1.7-0.7,3.7,0.2,5.3c0.2,0.4,0.5,0.8,0.8,1.1L360.2,265.4z"/>
	<path class="st5" d="M368.8,265.6l1.1-1.1c0.3-0.3,0.6-0.7,0.9-1.1c1-1.6,1.1-3.6,0.4-5.3c-1.8,0.2-3.6,1.2-4.5,2.8
		c-0.2,0.4-0.4,0.8-0.6,1.3l-0.5,1.5C366.9,264,368,264.6,368.8,265.6"/>
	<path class="st5" d="M360.3,273.2c-0.1-0.1-0.2-0.2-0.3-0.3L359,274c-0.3,0.3-0.6,0.7-0.9,1.1c-1,1.6-1.1,3.6-0.4,5.3
		c1.9-0.2,3.5-1.2,4.5-2.8c0.2-0.4,0.4-0.8,0.6-1.3l0.5-1.5C362.1,274.6,361.1,274,360.3,273.2"/>
	<path class="st5" d="M357.6,266.9c-0.5-0.1-0.9-0.2-1.4-0.2h-0.1c-1.8,0-3.6,0.9-4.7,2.3c1.1,1.5,2.8,2.5,4.7,2.5h0.1
		c0.4,0,0.9,0,1.3-0.1l1.5-0.3c-0.2-0.6-0.3-1.2-0.3-1.9c0-0.6,0.1-1.3,0.3-1.8L357.6,266.9z"/>
	<path class="st5" d="M366.3,277.7c0.9,1.7,2.5,2.8,4.4,3c0.8-1.7,0.7-3.7-0.2-5.3c-0.2-0.4-0.5-0.8-0.8-1.1l-1.1-1.2
		c-0.1,0.1-0.2,0.2-0.3,0.3c-0.8,0.8-1.8,1.3-3,1.5l0.4,1.5C365.9,276.8,366.1,277.3,366.3,277.7"/>
	<path class="st5" d="M372.7,271.8h0.1c1.8,0,3.6-0.9,4.7-2.3c-1.1-1.5-2.8-2.5-4.7-2.5h-0.1c-0.4,0-0.9,0-1.3,0.1l-1.5,0.3
		c0.2,0.6,0.3,1.2,0.3,1.9c0,0.6-0.1,1.3-0.3,1.8l1.5,0.4C371.7,271.7,372.2,271.8,372.7,271.8"/>
	<path class="st4" d="M364.4,271.8c0.7,0,1.3-0.2,1.7-0.7c0.5-0.5,0.8-1.1,0.8-1.8c0-0.7-0.2-1.3-0.7-1.8c-0.5-0.5-1.1-0.8-1.8-0.8
		h-0.1c-0.1,0-0.2,0-0.2,0c-1.3,0.1-2.3,1.2-2.3,2.5c0,0.7,0.2,1.3,0.7,1.8C363.1,271.5,363.7,271.8,364.4,271.8L364.4,271.8z"/>
	<path class="st4" d="M361.8,220.9c0.2,0.6,0.6,1.2,1.2,1.5c0.4,0.2,0.8,0.3,1.2,0.3c0.2,0,0.4,0,0.6-0.1c0.6-0.2,1.2-0.6,1.5-1.1
		c0.3-0.6,0.4-1.2,0.2-1.9c-0.2-0.6-0.6-1.2-1.2-1.5c-0.4-0.2-0.8-0.3-1.2-0.3c-0.1,0-0.1,0-0.2,0c-0.1,0-0.3,0-0.4,0.1
		c-0.6,0.2-1.2,0.6-1.5,1.2C361.7,219.6,361.7,220.2,361.8,220.9"/>
	<path class="st5" d="M369,214.9l-1.1,1.1c0.9,0.8,1.6,1.9,1.8,3.1l1.5-0.4c0.5-0.1,0.9-0.3,1.3-0.5c1.6-0.9,2.7-2.6,2.9-4.4
		c-0.7-0.3-1.5-0.5-2.3-0.5c-1,0-2,0.3-2.9,0.8C369.7,214.3,369.4,214.6,369,214.9"/>
	<path class="st5" d="M372.5,222.3c-0.4-0.2-0.8-0.4-1.3-0.5l-1.5-0.4c-0.1,0.6-0.3,1.2-0.6,1.7c-0.3,0.5-0.7,1-1.2,1.4l1.1,1.1
		c0.3,0.3,0.7,0.6,1.1,0.8c0.9,0.5,1.9,0.8,2.9,0.8c0.8,0,1.6-0.2,2.3-0.5C375.1,224.8,374.1,223.2,372.5,222.3"/>
	<path class="st5" d="M362.7,214.8c0.5-0.1,1-0.2,1.5-0.2c0.6,0,1.2,0.1,1.8,0.3l0.4-1.5c0.1-0.5,0.2-0.9,0.2-1.4
		c0-1.9-0.9-3.6-2.4-4.7c-1.5,1.1-2.4,2.8-2.4,4.7c0,0.5,0.1,0.9,0.2,1.4l0.4,1.5C362.5,214.9,362.6,214.8,362.7,214.8"/>
	<path class="st5" d="M358.3,214.1c-0.9-0.5-1.9-0.8-2.9-0.8c-0.8,0-1.6,0.2-2.3,0.5c0.2,1.8,1.3,3.4,2.9,4.4
		c0.4,0.2,0.8,0.4,1.3,0.5l1.5,0.4c0.1-0.6,0.3-1.2,0.6-1.7c0.3-0.5,0.7-1,1.2-1.4l-1.1-1.1C359.1,214.6,358.7,214.3,358.3,214.1"/>
	<path class="st5" d="M364.2,233.1c1.5-1.1,2.3-2.8,2.3-4.7c0-0.5-0.1-0.9-0.2-1.4l-0.4-1.5c-0.1,0-0.2,0.1-0.4,0.1
		c-0.3,0.1-0.7,0.1-1,0.2c-0.1,0-0.3,0-0.4,0c-0.6,0-1.2-0.1-1.8-0.3L362,227c-0.1,0.5-0.2,0.9-0.2,1.4
		C361.9,230.3,362.7,232,364.2,233.1"/>
	<path class="st5" d="M357.2,221.7c-0.5,0.1-0.9,0.3-1.3,0.5c-1.6,0.9-2.7,2.5-2.9,4.4c0.7,0.3,1.5,0.5,2.3,0.5c1,0,2-0.3,2.9-0.8
		c0.4-0.2,0.8-0.5,1.1-0.8l1.1-1.1c-0.9-0.8-1.6-1.9-1.8-3.1L357.2,221.7z"/>
	<path class="st7" d="M109.7,244.4c0,1,0.2,2,0.7,2.9l5.9-5.8c0.1-0.1,0.2-0.1,0.4-0.1c0.1,0,0.3,0.1,0.4,0.2l1.5,1.5
		c0.1,0.1,0.1,0.2,0.1,0.4c0,0.1-0.1,0.3-0.2,0.4l-5.9,5.8c0.9,0.5,1.9,0.8,3,0.8c1.6,0,3-0.6,4.1-1.7c1.1-1.1,1.8-2.6,1.8-4.2
		l0.1-6l-5.9,0h-0.2c-1.5,0-2.9,0.6-4,1.7C110.4,241.3,109.7,242.8,109.7,244.4"/>
	<path class="st7" d="M99.1,250.2c1,0,2-0.3,2.9-0.8l-5.8-5.9c-0.2-0.2-0.2-0.5,0-0.8l1.5-1.5c0.1-0.1,0.2-0.1,0.4-0.1l0,0
		c0.1,0,0.3,0.1,0.4,0.2l5.8,5.9c1.3-2.3,1-5.2-0.9-7.1c-1.1-1.1-2.6-1.8-4.2-1.8l-5.9-0.1l-0.1,5.9c0,1.6,0.6,3.1,1.7,4.2
		C96,249.6,97.5,250.2,99.1,250.2"/>
	<path class="st7" d="M98.4,317.5c-0.1-0.1-0.2-0.2-0.2-0.3c0-0.1,0-0.3,0.1-0.4l1.1-1.8c0.1-0.2,0.3-0.2,0.4-0.2
		c0.1,0,0.2,0,0.3,0.1l7.3,4.6c0.8-2.7-0.2-5.5-2.6-7c-1-0.6-2.1-0.9-3.3-0.9c-0.5,0-0.9,0.1-1.4,0.2l-6,1.4l1.4,6
		c0.4,1.6,1.3,3,2.7,3.8c1,0.6,2.1,0.9,3.3,0.9c1.6,0,3.1-0.6,4.3-1.7L98.4,317.5z"/>
	<path class="st7" d="M122.7,306.3l-6,1.4c-1.6,0.4-3,1.3-3.8,2.7c-1.5,2.4-1.2,5.4,0.7,7.5l4.5-7.3c0.1-0.2,0.3-0.3,0.5-0.3
		c0.1,0,0.2,0,0.3,0.1l1.8,1.1c0.1,0.1,0.2,0.2,0.2,0.3c0,0.1,0,0.3-0.1,0.4l-4.5,7.3c0.6,0.2,1.2,0.3,1.9,0.3
		c2.1,0,4.1-1.1,5.2-2.9c0.9-1.4,1.2-3,0.8-4.6L122.7,306.3z"/>
	<path class="st7" d="M116.1,290.9c0.1-0.1,0.2-0.2,0.4-0.2c0.1,0,0.3,0,0.4,0.1l1.5,1.4c0.1,0.1,0.2,0.2,0.2,0.4
		c0,0.1,0,0.3-0.1,0.4l-6,6.2c0.9,0.5,2,0.8,3,0.8l0.1,0c1.6,0,3.2-0.7,4.3-1.9c1.1-1.2,1.8-2.7,1.7-4.4l-0.1-6.2l-6.2,0.1
		c-1.7,0-3.2,0.7-4.3,1.9c-1.1,1.2-1.8,2.8-1.7,4.4c0,1.1,0.3,2.1,0.9,3.1L116.1,290.9z"/>
	<path class="st7" d="M98.3,300.5h0.1c1.1,0,2.2-0.3,3.1-0.9l-6.2-6c-0.1-0.1-0.2-0.2-0.2-0.4c0-0.1,0-0.3,0.2-0.4l1.5-1.5
		c0.1-0.1,0.2-0.2,0.4-0.2c0.1,0,0.3,0.1,0.4,0.2l6.2,6c1.3-2.4,0.9-5.5-1.2-7.4c-1.2-1.1-2.7-1.7-4.3-1.7l-6.3,0.1l0.1,6.2
		c0,1.6,0.7,3.2,1.9,4.3C95.2,299.9,96.7,300.5,98.3,300.5"/>
	<path class="st7" d="M172.7,384.3l-5.2-4.3l-4.3,5.2c-1.2,1.4-1.7,3.1-1.5,4.9c0.3,3.1,2.7,5.6,5.7,6l-0.9-9.3c0-0.1,0-0.3,0.1-0.4
		c0.1-0.1,0.2-0.2,0.4-0.2l2.1-0.2c0,0,0,0,0.1,0c0.3,0,0.5,0.2,0.5,0.5l0.9,9.4c2.9-1,4.9-3.9,4.6-7
		C174.9,387,174.1,385.4,172.7,384.3"/>
	<path class="st7" d="M154,405.4c-0.3,0-0.5-0.2-0.5-0.5l-0.2-2.1c0-0.1,0-0.3,0.1-0.4c0.1-0.1,0.2-0.2,0.4-0.2l9.3-0.9
		c-0.4-1.2-1.1-2.2-2.1-3c-1.2-1-2.7-1.6-4.3-1.6c-0.2,0-0.4,0-0.7,0c-1.8,0.2-3.4,1-4.6,2.4l-4.3,5.2l5.2,4.3
		c1.2,1,2.7,1.5,4.3,1.5c0.2,0,0.4,0,0.7,0c1.8-0.2,3.4-1,4.6-2.4c0.8-1,1.3-2.1,1.5-3.4L154,405.4C154,405.4,154,405.4,154,405.4"
		/>
	<path class="st7" d="M137.4,385.8c0.1-0.1,0.2-0.1,0.4-0.1c0,0,9,0.2,9,0.2c-0.7-2.8-3.2-4.9-6.1-5h-0.2c-1.7,0-3.3,0.6-4.5,1.8
		l-4.7,4.5l4.5,4.7c1.2,1.2,2.8,2,4.5,2h0.2c2.9,0,5.5-2,6.2-4.8l-9-0.2c-0.3,0-0.5-0.3-0.5-0.6l0.1-2.1
		C137.3,386,137.3,385.9,137.4,385.8"/>
	<path class="st7" d="M157.8,379.8c1.2-1.2,2-2.8,2-4.5c0-1.7-0.6-3.4-1.8-4.6l-4.5-4.7l-4.7,4.5c-1.3,1.2-2,2.8-2,4.5
		c-0.1,2.9,1.9,5.6,4.7,6.4l0.2-9c0-0.1,0.1-0.3,0.2-0.4c0.1-0.1,0.2-0.1,0.4-0.1c0,0,2.1,0,2.1,0c0.1,0,0.3,0.1,0.4,0.2
		c0.1,0.1,0.1,0.2,0.1,0.4l-0.2,9C155.9,381.2,157,380.6,157.8,379.8"/>
	<path class="st7" d="M123.3,371.5c-0.3,0-0.5-0.3-0.5-0.6l0.3-2.1c0-0.1,0.1-0.3,0.2-0.4c0.1-0.1,0.2-0.1,0.3-0.1c0,0,0.1,0,0.1,0
		l8.8,1.1c-0.1-1.1-0.6-2.2-1.3-3.1c-1.1-1.3-2.6-2.2-4.2-2.4c-0.3,0-0.6-0.1-0.8-0.1c-1.4,0-2.8,0.5-3.9,1.3l-5,3.9l3.9,5.1
		c1,1.3,2.5,2.2,4.2,2.4c0.3,0,0.5,0.1,0.8,0.1c1.4,0,2.8-0.5,3.9-1.3c0.9-0.7,1.6-1.7,2-2.8L123.3,371.5z"/>
	<path class="st7" d="M144,364.7c1.3-1,2.2-2.6,2.4-4.2c0.2-1.7-0.2-3.4-1.3-4.7l-3.9-5.1l-5.1,3.9c-1.3,1-2.2,2.6-2.4,4.2
		c-0.4,2.9,1.3,5.7,4,6.7l1.1-8.8c0-0.1,0.1-0.3,0.2-0.4c0.1-0.1,0.2-0.1,0.3-0.1c0,0,0,0,0.1,0l2.1,0.3c0.3,0,0.5,0.3,0.5,0.6
		l-1.1,8.9C142,365.8,143,365.4,144,364.7"/>
	<path class="st5" d="M122,334c-0.3,0.5-0.5,1-0.7,1.5l-0.6,1.9c0.8,0.1,1.5,0.4,2.1,0.8c0.7,0.4,1.2,0.9,1.7,1.5l1.4-1.4
		c0.4-0.4,0.8-0.8,1-1.3c1.2-1.9,1.4-4.3,0.5-6.3C125.3,330.9,123.2,332.1,122,334"/>
	<path class="st5" d="M129,340.9c-0.1,0-0.2,0-0.2,0c-0.5,0-0.9,0-1.4,0.1l-2,0.4c0.1,0.2,0.1,0.4,0.2,0.6c0.3,1.3,0.2,2.6-0.3,3.8
		l1.9,0.6c0.5,0.2,1.1,0.2,1.6,0.3c0.1,0,0.2,0,0.2,0c2.2,0,4.2-1,5.5-2.7C133.2,342.1,131.2,341,129,340.9"/>
	<path class="st4" d="M117.9,346c0.5,0.3,1.1,0.5,1.6,0.5c0.2,0,0.5,0,0.7-0.1c0.8-0.2,1.5-0.7,1.9-1.4c0.4-0.7,0.6-1.5,0.4-2.3
		c-0.2-0.8-0.7-1.5-1.4-1.9c-0.5-0.3-1-0.5-1.6-0.5c-0.2,0-0.5,0-0.7,0.1c-0.6,0.1-1.2,0.5-1.6,1c-0.1,0.1-0.2,0.3-0.3,0.4
		c-0.4,0.7-0.6,1.5-0.4,2.3C116.7,344.9,117.2,345.6,117.9,346"/>
	<path class="st5" d="M118.8,337.3l-0.5-1.9c-0.1-0.5-0.3-1.1-0.6-1.5c-1-2-3-3.3-5.2-3.6c-1,2-1,4.4,0,6.3c0.3,0.5,0.6,0.9,0.9,1.3
		l1.3,1.5c0.9-1,2-1.7,3.3-2C118.3,337.4,118.5,337.3,118.8,337.3"/>
	<path class="st5" d="M121.3,353.1c1,2,3,3.3,5.2,3.6c1-2,1-4.4,0-6.3c-0.3-0.5-0.6-0.9-0.9-1.3l-1.3-1.5c0,0,0,0,0,0
		c-0.9,1-2,1.6-3.3,1.9c-0.2,0-0.4,0.1-0.7,0.1l0.5,1.9C120.8,352.1,121,352.6,121.3,353.1"/>
	<path class="st5" d="M113.6,345.5c-0.1-0.2-0.1-0.4-0.2-0.6c-0.3-1.3-0.2-2.6,0.3-3.8l-1.9-0.5c-0.5-0.2-1.1-0.2-1.6-0.3
		c-0.1,0-0.2,0-0.3,0c-2.1,0-4.2,1-5.5,2.7c1.2,1.9,3.3,3,5.5,3.1c0.1,0,0.2,0,0.2,0c0.5,0,0.9-0.1,1.4-0.2L113.6,345.5z"/>
	<path class="st5" d="M118.3,349.5c-0.8-0.1-1.5-0.4-2.1-0.8c-0.7-0.4-1.2-0.9-1.7-1.5l-1.4,1.4c-0.4,0.4-0.7,0.8-1,1.3
		c-1.2,1.9-1.4,4.3-0.5,6.3c2.2-0.1,4.3-1.3,5.5-3.2c0.3-0.4,0.5-0.9,0.7-1.5L118.3,349.5z"/>
	<path class="st5" d="M114.7,271.3c0.4,0.1,0.9,0.1,1.3,0.1h0.1c1.9,0,3.6-1,4.7-2.5c-1.1-1.5-2.8-2.3-4.7-2.3H116
		c-0.5,0-0.9,0.1-1.4,0.2l-1.5,0.4c0.2,0.6,0.3,1.2,0.3,1.8c0,0.6-0.1,1.3-0.3,1.9L114.7,271.3z"/>
	<path class="st5" d="M100.8,267.2c-0.4-0.1-0.9-0.1-1.3-0.1h-0.1c-1.9,0-3.6,1-4.7,2.5c1.1,1.5,2.8,2.3,4.7,2.3h0.1
		c0.5,0,0.9-0.1,1.4-0.2l1.5-0.4c-0.2-0.6-0.3-1.2-0.4-1.8c0-0.6,0.1-1.3,0.3-1.9L100.8,267.2z"/>
	<path class="st5" d="M101,258.1c-0.7,1.7-0.6,3.7,0.4,5.3c0.2,0.4,0.5,0.8,0.9,1.1l1.1,1.1c0.8-1,1.9-1.6,3.2-1.9l-0.5-1.5
		c-0.1-0.5-0.3-0.9-0.6-1.3C104.5,259.3,102.8,258.3,101,258.1"/>
	<path class="st5" d="M110,277.6c1,1.6,2.6,2.7,4.5,2.8c0.7-1.7,0.6-3.7-0.4-5.3c-0.2-0.4-0.5-0.8-0.9-1.1l-1.1-1.1
		c-0.1,0.1-0.2,0.2-0.3,0.3c-0.8,0.8-1.8,1.4-2.9,1.6l0.5,1.5C109.5,276.7,109.7,277.2,110,277.6"/>
	<path class="st5" d="M109.6,260.8c-0.2,0.4-0.4,0.9-0.5,1.3l-0.4,1.5c1.1,0.2,2.1,0.7,3,1.5c0.1,0.1,0.2,0.2,0.3,0.3l1.1-1.2
		c0.3-0.3,0.6-0.7,0.8-1.1c0.9-1.6,1-3.6,0.2-5.3C112.2,258.1,110.5,259.2,109.6,260.8"/>
	<path class="st4" d="M107.8,271.8c0.7,0,1.3-0.3,1.8-0.8c0.5-0.5,0.7-1.1,0.7-1.8c0-1.3-1-2.3-2.3-2.5c-0.1,0-0.1,0-0.2,0h-0.1
		c-0.7,0-1.3,0.3-1.8,0.8c-0.5,0.5-0.7,1.1-0.7,1.8c0,0.7,0.3,1.3,0.8,1.8C106.4,271.5,107.1,271.8,107.8,271.8L107.8,271.8z"/>
	<path class="st5" d="M105.8,277.7c0.2-0.4,0.4-0.8,0.5-1.3l0.4-1.5c-1.1-0.2-2.1-0.7-3-1.5c-0.1-0.1-0.2-0.2-0.3-0.3l-1.1,1.2
		c-0.3,0.4-0.6,0.7-0.8,1.1c-0.9,1.6-1,3.6-0.2,5.3C103.3,280.4,104.9,279.3,105.8,277.7"/>
	<path class="st5" d="M99.7,218.2c0.4,0.2,0.8,0.4,1.3,0.5l1.5,0.4c0.2-1.2,0.9-2.3,1.8-3.1l-1.1-1.1c-0.3-0.3-0.7-0.6-1.1-0.8
		c-0.9-0.5-1.9-0.8-2.9-0.8c-0.8,0-1.6,0.2-2.3,0.5C97,215.6,98.1,217.2,99.7,218.2"/>
	<path class="st5" d="M112.8,217.4c0.3,0.5,0.5,1.1,0.6,1.7l1.5-0.4c0.5-0.1,0.9-0.3,1.3-0.5c1.6-0.9,2.7-2.5,2.9-4.4
		c-0.7-0.3-1.5-0.5-2.3-0.5c-1,0-2,0.3-2.9,0.8c-0.4,0.2-0.8,0.5-1.1,0.8l-1.1,1.1C112.1,216.4,112.5,216.9,112.8,217.4"/>
	<path class="st4" d="M105.8,221.5c0.3,0.6,0.9,1,1.5,1.1c0.2,0.1,0.4,0.1,0.6,0.1c0.4,0,0.9-0.1,1.2-0.3c0.6-0.3,1-0.9,1.2-1.5
		c0.2-0.6,0.1-1.3-0.3-1.9c-0.3-0.6-0.9-1-1.5-1.2c-0.1,0-0.3-0.1-0.4-0.1c-0.1,0-0.1,0-0.2,0c-0.4,0-0.8,0.1-1.2,0.3
		c-0.6,0.3-1,0.9-1.2,1.5C105.4,220.2,105.5,220.9,105.8,221.5"/>
	<path class="st5" d="M110.1,227l-0.4-1.5c-0.6,0.2-1.2,0.3-1.8,0.3c-0.1,0-0.3,0-0.4,0c-0.3,0-0.7-0.1-1-0.2
		c-0.1,0-0.2-0.1-0.4-0.1l-0.4,1.5c-0.1,0.5-0.2,0.9-0.2,1.4c0,1.9,0.9,3.6,2.4,4.7c1.5-1.1,2.4-2.8,2.4-4.7
		C110.3,228,110.2,227.5,110.1,227"/>
	<path class="st5" d="M102,226.4c0.4-0.2,0.8-0.5,1.1-0.8l1.1-1.1c-0.5-0.4-0.9-0.9-1.2-1.4c-0.3-0.5-0.5-1.1-0.6-1.7l-1.5,0.4
		c-0.5,0.1-0.9,0.3-1.3,0.5c-1.6,0.9-2.6,2.5-2.9,4.4c0.7,0.3,1.5,0.5,2.3,0.5C100.1,227.1,101.1,226.9,102,226.4"/>
	<path class="st5" d="M108,214.6c0.5,0,1,0.1,1.5,0.2c0.1,0,0.2,0.1,0.4,0.1l0.4-1.5c0.1-0.5,0.2-0.9,0.2-1.4c0-1.9-0.9-3.6-2.4-4.7
		c-1.5,1.1-2.4,2.8-2.4,4.7c0,0.5,0.1,0.9,0.2,1.4l0.4,1.5C106.7,214.7,107.3,214.6,108,214.6"/>
	<path class="st5" d="M112.8,225.5c0.3,0.3,0.7,0.6,1.1,0.8c0.9,0.5,1.9,0.8,2.9,0.8c0.8,0,1.6-0.2,2.3-0.5
		c-0.2-1.8-1.3-3.5-2.9-4.4c-0.4-0.2-0.8-0.4-1.3-0.5l-1.5-0.4c-0.2,1.2-0.9,2.3-1.8,3.1L112.8,225.5z"/>
	<path class="st9" d="M93.6,227.3v0.8c0,0.2,0.1,0.4,0.3,0.5l0.7,0.4c1.4,0.8,2.9,1.2,4.5,1.2c1.2,0,2.3-0.2,3.4-0.7
		c0.4,2.7,2,5.2,4.4,6.6l0.7,0.4c0.1,0,0.2,0.1,0.3,0.1c0.1,0,0.2,0,0.3-0.1l0.8-0.4c2.4-1.4,4-3.8,4.4-6.6c1.1,0.4,2.2,0.7,3.4,0.7
		c1.6,0,3.1-0.4,4.5-1.2l0.7-0.4c0.2-0.1,0.3-0.3,0.3-0.5v-0.8c0-2.8-1.3-5.4-3.5-7.1c2.2-1.7,3.5-4.3,3.5-7.1v-0.9
		c0-0.2-0.1-0.4-0.3-0.5l-0.7-0.4c-1.4-0.8-2.9-1.2-4.5-1.2c-1.2,0-2.3,0.2-3.4,0.7c-0.4-2.8-2-5.2-4.4-6.6l-0.7-0.4
		c-0.1,0-0.2-0.1-0.3-0.1c-0.1,0-0.2,0-0.3,0.1l-0.8,0.4c-2.4,1.4-4,3.8-4.4,6.6c-1.1-0.4-2.2-0.7-3.4-0.7c-1.6,0-3.1,0.4-4.5,1.2
		l-0.7,0.4c-0.2,0.1-0.3,0.3-0.3,0.4l0,0.9c0,2.8,1.3,5.4,3.5,7.1C94.9,221.9,93.6,224.5,93.6,227.3 M112.8,214.9
		c0.3-0.3,0.7-0.6,1.1-0.8c0.9-0.5,1.9-0.8,2.9-0.8c0.8,0,1.6,0.2,2.3,0.5c-0.2,1.8-1.3,3.5-2.9,4.4c-0.4,0.2-0.8,0.4-1.3,0.5
		l-1.5,0.4c-0.1-0.6-0.3-1.2-0.6-1.7c-0.3-0.5-0.7-1-1.2-1.4L112.8,214.9z M113.5,221.3l1.5,0.4c0.5,0.1,0.9,0.3,1.3,0.5
		c1.6,0.9,2.7,2.5,2.9,4.4c-0.7,0.3-1.5,0.5-2.3,0.5c-1,0-2-0.3-2.9-0.8c-0.4-0.2-0.8-0.5-1.1-0.8l-1.1-1.1
		C112.6,223.6,113.2,222.5,113.5,221.3 M107.9,233.1c-1.5-1.1-2.4-2.8-2.3-4.7c0-0.5,0.1-0.9,0.2-1.4l0.4-1.5c0.1,0,0.2,0.1,0.4,0.1
		c0.3,0.1,0.7,0.2,1,0.2c0.1,0,0.3,0,0.4,0c0.6,0,1.2-0.1,1.8-0.3l0.4,1.5c0.1,0.5,0.2,0.9,0.2,1.4
		C110.3,230.3,109.4,232,107.9,233.1 M108,207.4c1.5,1.1,2.4,2.8,2.4,4.7c0,0.5-0.1,0.9-0.2,1.4l-0.4,1.5c-0.1,0-0.2-0.1-0.4-0.1
		c-0.5-0.1-1-0.2-1.5-0.2c-0.6,0-1.2,0.1-1.8,0.3l-0.4-1.5c-0.1-0.5-0.2-0.9-0.2-1.4C105.6,210.2,106.5,208.5,108,207.4
		 M105.6,219.6c0.2-0.6,0.6-1.2,1.2-1.5c0.4-0.2,0.8-0.3,1.2-0.3c0.1,0,0.1,0,0.2,0c0.1,0,0.3,0,0.4,0.1c0.6,0.2,1.2,0.6,1.5,1.2
		c0.3,0.6,0.4,1.2,0.3,1.9c-0.2,0.6-0.6,1.2-1.1,1.5c-0.4,0.2-0.8,0.3-1.2,0.3c-0.2,0-0.4,0-0.6-0.1c-0.6-0.2-1.2-0.6-1.5-1.1
		C105.5,220.9,105.4,220.2,105.6,219.6 M96.8,213.8c0.7-0.3,1.5-0.5,2.3-0.5c1,0,2,0.3,2.9,0.8c0.4,0.2,0.8,0.5,1.1,0.8l1.1,1.1
		c-0.9,0.8-1.6,1.9-1.8,3.1l-1.5-0.4c-0.5-0.1-0.9-0.3-1.3-0.5C98.1,217.2,97,215.6,96.8,213.8 M99.7,222.3c0.4-0.2,0.8-0.4,1.3-0.5
		l1.5-0.4c0.1,0.6,0.3,1.2,0.6,1.7c0.3,0.5,0.7,1,1.2,1.4l-1.1,1.1c-0.3,0.3-0.7,0.6-1.1,0.8c-0.9,0.5-1.9,0.8-2.9,0.8
		c-0.8,0-1.6-0.2-2.3-0.5C97,224.8,98.1,223.2,99.7,222.3 M366.5,237.9c-0.8,0.8-1.4,1.7-1.8,2.7c-0.5-1-1.1-1.9-1.9-2.6
		c-1.7-1.7-4-2.6-6.4-2.6l-8.6,0.1c-0.3,0-0.5,0.2-0.5,0.5l0.1,8.6c0,2.4,1,4.7,2.7,6.4c1.7,1.6,3.8,2.5,6.1,2.6c0.1,0,0.2,0,0.2,0
		c1.9,0,3.8-0.6,5.3-1.7l2.7,2.6c0.1,0.1,0.2,0.1,0.4,0.1h0c0.1,0,0.3-0.1,0.4-0.2l2.6-2.7c1.5,1,3.2,1.6,4.9,1.6c0.1,0,0.3,0,0.3,0
		c2.4,0,4.7-1,6.4-2.7c1.7-1.7,2.6-4,2.6-6.4l-0.1-8.6c0-0.3-0.2-0.5-0.5-0.5l-8.6,0.1C370.5,235.2,368.2,236.2,366.5,237.9
		 M361.7,247.3l-5.9-5.8c-0.1-0.1-0.2-0.1-0.4-0.1c-0.1,0-0.3,0-0.4,0.2l-1.5,1.5c-0.1,0.1-0.2,0.2-0.2,0.4c0,0.1,0.1,0.3,0.2,0.4
		l5.9,5.8c-0.9,0.5-1.9,0.8-3,0.8c-1.6,0-3-0.6-4.1-1.7c-1.1-1.1-1.7-2.6-1.8-4.2l0-5.9l5.9,0h0.2c1.5,0,2.9,0.6,4,1.7
		c1.1,1.1,1.8,2.6,1.8,4.2C362.4,245.4,362.2,246.4,361.7,247.3 M364.8,250.4l-0.8-0.8c0.3-0.5,0.6-0.9,0.8-1.4
		c0.2,0.5,0.5,1,0.8,1.4L364.8,250.4z M378.9,238.3l0.1,5.9c0,1.6-0.6,3.1-1.7,4.2c-1.1,1.1-2.6,1.8-4.2,1.8c-1,0-2.1-0.3-2.9-0.8
		l5.8-5.9c0.2-0.2,0.2-0.5,0-0.7l-1.5-1.5c-0.1-0.1-0.2-0.2-0.4-0.2h0c-0.1,0-0.3,0.1-0.4,0.2l-5.8,5.9c-1.3-2.3-1-5.2,0.9-7.1
		c1.1-1.1,2.6-1.8,4.2-1.8L378.9,238.3z M97.8,303.6c0.2,0,0.3,0,0.5,0h0.2c2,0,3.8-0.7,5.4-1.8l2.8,2.7c0.1,0.1,0.2,0.2,0.4,0.2h0
		c0.1,0,0.3-0.1,0.4-0.2l2.7-2.8c1.4,1,3,1.5,4.7,1.6c0.2,0,0.4,0,0.5,0c2.6,0,5-1,6.7-2.9c1.7-1.8,2.7-4.2,2.6-6.6l-0.2-8.8
		c0-0.3-0.2-0.5-0.5-0.5c0,0-8.8,0.2-8.8,0.2c-2.5,0.1-4.8,1.1-6.5,2.9c-0.8,0.8-1.4,1.8-1.9,2.9c-0.5-1-1.2-2-2-2.8
		c-1.7-1.7-4-2.6-6.5-2.6h-0.2l-8.8,0.2c-0.3,0-0.5,0.3-0.5,0.5l0.2,8.8c0,2.5,1.1,4.8,2.9,6.5C93.5,302.6,95.6,303.5,97.8,303.6
		 M111,289.7c1.1-1.2,2.7-1.9,4.3-1.9l6.2-0.1l0.1,6.2c0,1.6-0.6,3.2-1.7,4.4c-1.2,1.2-2.7,1.9-4.3,1.9h-0.1c-1.1,0-2.1-0.3-3-0.8
		l6-6.2c0.1-0.1,0.1-0.2,0.1-0.4c0-0.1-0.1-0.3-0.2-0.4l-1.5-1.4c-0.1-0.1-0.2-0.1-0.4-0.1c-0.1,0-0.3,0.1-0.4,0.2l-5.9,6.2
		c-0.6-0.9-0.9-2-0.9-3.1C109.2,292.4,109.8,290.8,111,289.7 M107,297.9c0.3,0.6,0.6,1.1,0.9,1.6l-0.9,0.9l-0.9-0.9
		C106.4,299,106.7,298.4,107,297.9 M98.4,288.1c1.6,0,3.1,0.6,4.3,1.7c2,2,2.5,5,1.2,7.4l-6.2-6c-0.1-0.1-0.2-0.2-0.4-0.2
		c-0.1,0-0.3,0.1-0.4,0.2l-1.5,1.5c-0.1,0.1-0.1,0.2-0.1,0.4c0,0.1,0.1,0.3,0.2,0.4l6.2,6c-0.9,0.6-2,0.9-3.1,0.9h-0.1
		c-1.6,0-3.1-0.6-4.3-1.7c-1.2-1.1-1.9-2.7-1.9-4.3l-0.1-6.2L98.4,288.1z M123.9,269.9l0.4-0.7c0.1-0.2,0.1-0.4,0-0.5l-0.4-0.7
		c-1.5-2.4-4-4-6.7-4.3c1-2.6,0.7-5.6-0.7-8l-0.5-0.7c-0.1-0.2-0.3-0.3-0.4-0.3l-0.9,0c-2.8,0.1-5.5,1.4-7.1,3.7
		c-1.7-2.1-4.3-3.4-7.1-3.4h-0.2l-0.8,0c-0.2,0-0.3,0.1-0.4,0.3l-0.5,0.8c-1.4,2.5-1.5,5.5-0.4,8c-2.7,0.4-5.2,2.1-6.6,4.6l-0.4,0.7
		c-0.1,0.2-0.1,0.4,0,0.5l0.4,0.7c1.5,2.4,4,4,6.7,4.3c-1,2.6-0.7,5.6,0.7,8l0.4,0.7c0.1,0.2,0.3,0.3,0.5,0.3l0.9,0
		c2.8-0.1,5.4-1.5,7.1-3.7c1.7,2.1,4.3,3.4,7.1,3.4h0.2c0,0,0,0,0.1,0l0.8,0c0.2,0,0.4-0.1,0.5-0.3l0.4-0.8c1.4-2.5,1.5-5.5,0.4-8
		C120.1,274.1,122.5,272.4,123.9,269.9 M109.1,262.1c0.1-0.5,0.3-0.9,0.5-1.3c0.9-1.6,2.5-2.7,4.4-3c0.8,1.7,0.7,3.7-0.2,5.3
		c-0.2,0.4-0.5,0.8-0.8,1.1l-1.1,1.2c-0.1-0.1-0.2-0.2-0.3-0.3c-0.8-0.8-1.9-1.3-3-1.5L109.1,262.1z M101,258.1
		c1.8,0.2,3.5,1.2,4.5,2.8c0.2,0.4,0.4,0.8,0.6,1.3l0.5,1.5c-1.3,0.3-2.4,0.9-3.2,1.9l-1.1-1.1c-0.3-0.3-0.6-0.7-0.9-1.1
		C100.4,261.8,100.3,259.8,101,258.1 M99.5,271.8l-0.1,0c-1.8,0-3.6-0.9-4.7-2.3c1.1-1.5,2.8-2.5,4.7-2.5h0.1c0.4,0,0.9,0.1,1.3,0.1
		l1.5,0.3c-0.2,0.6-0.3,1.2-0.3,1.9c0,0.6,0.1,1.3,0.4,1.8l-1.5,0.4C100.4,271.7,100,271.8,99.5,271.8 M106.4,276.4
		c-0.1,0.5-0.3,0.9-0.5,1.3c-0.9,1.6-2.5,2.8-4.4,3c-0.8-1.7-0.7-3.7,0.2-5.3c0.2-0.4,0.5-0.8,0.8-1.1l1.1-1.2
		c0.1,0.1,0.2,0.2,0.3,0.3c0.8,0.8,1.8,1.3,3,1.5L106.4,276.4z M107.8,271.8L107.8,271.8c-0.7,0-1.3-0.2-1.8-0.7
		c-0.5-0.5-0.8-1.1-0.8-1.8c0-0.7,0.2-1.3,0.7-1.8c0.5-0.5,1.1-0.8,1.8-0.8h0.1c0.1,0,0.1,0,0.2,0c1.3,0.1,2.3,1.2,2.3,2.5
		c0,0.7-0.2,1.3-0.7,1.8C109.1,271.5,108.5,271.8,107.8,271.8 M114.5,280.4c-1.9-0.2-3.5-1.2-4.5-2.8c-0.2-0.4-0.4-0.8-0.6-1.3
		l-0.5-1.5c1.1-0.2,2.1-0.8,2.9-1.6c0.1-0.1,0.2-0.2,0.3-0.3l1.1,1.1c0.3,0.3,0.6,0.7,0.9,1.1C115,276.7,115.2,278.7,114.5,280.4
		 M116.1,271.5h-0.1c-0.4,0-0.8,0-1.3-0.1l-1.5-0.3c0.2-0.6,0.3-1.2,0.3-1.9c0-0.6-0.1-1.2-0.3-1.8l1.5-0.4c0.5-0.1,0.9-0.2,1.4-0.2
		h0.1c1.8,0,3.6,0.9,4.7,2.3C119.7,270.5,118,271.4,116.1,271.5 M373,210.2c-1.2,0-2.3,0.2-3.4,0.7c-0.4-2.7-2-5.2-4.4-6.6l-0.7-0.4
		c-0.1,0-0.2-0.1-0.3-0.1c-0.1,0-0.2,0-0.3,0.1l-0.7,0.4c-2.4,1.4-4,3.8-4.4,6.6c-1.1-0.4-2.2-0.7-3.4-0.7c-1.6,0-3.1,0.4-4.5,1.2
		l-0.7,0.4c-0.2,0.1-0.3,0.3-0.3,0.5v0.9c0,2.8,1.3,5.4,3.5,7.1c-2.2,1.7-3.5,4.3-3.5,7.1l0,0.8c0,0.2,0.1,0.4,0.3,0.5l0.7,0.4
		c1.4,0.8,2.9,1.2,4.5,1.2c1.2,0,2.3-0.2,3.4-0.7c0.4,2.7,2,5.2,4.4,6.6l0.8,0.4c0.1,0.1,0.2,0.1,0.3,0.1c0.1,0,0.2,0,0.3-0.1
		l0.7-0.4c2.4-1.4,4-3.8,4.4-6.6c1.1,0.4,2.2,0.7,3.4,0.7c1.6,0,3.1-0.4,4.5-1.2l0.7-0.4c0.2-0.1,0.3-0.3,0.3-0.5v-0.8
		c0-2.8-1.3-5.4-3.5-7.1c2.2-1.7,3.5-4.3,3.5-7.1l0-0.9c0-0.2-0.1-0.3-0.3-0.4l-0.7-0.4C376.2,210.6,374.6,210.2,373,210.2
		 M353.1,213.8c0.7-0.3,1.5-0.5,2.3-0.5c1,0,2,0.3,2.9,0.8c0.4,0.2,0.8,0.5,1.1,0.8l1.1,1.1c-0.5,0.4-0.9,0.9-1.2,1.4
		c-0.3,0.5-0.5,1.1-0.6,1.7l-1.5-0.4c-0.5-0.1-0.9-0.3-1.3-0.5C354.3,217.2,353.3,215.6,353.1,213.8 M359.4,225.5
		c-0.3,0.3-0.7,0.6-1.1,0.8c-0.9,0.5-1.9,0.8-2.9,0.8c-0.8,0-1.6-0.2-2.3-0.5c0.2-1.8,1.3-3.5,2.9-4.4c0.4-0.2,0.8-0.4,1.3-0.5
		l1.5-0.4c0.3,1.2,0.9,2.3,1.8,3.1L359.4,225.5z M364.2,207.4c1.5,1.1,2.4,2.8,2.4,4.7c0,0.5-0.1,0.9-0.2,1.4l-0.4,1.5
		c-0.6-0.2-1.2-0.3-1.8-0.3c-0.5,0-1,0.1-1.5,0.2c-0.1,0-0.2,0.1-0.4,0.1l-0.4-1.5c-0.1-0.5-0.2-0.9-0.2-1.4
		C361.9,210.2,362.7,208.5,364.2,207.4 M364.2,233.1c-1.5-1.1-2.4-2.8-2.4-4.7c0-0.5,0.1-0.9,0.2-1.4l0.4-1.5
		c0.6,0.2,1.2,0.3,1.8,0.3c0.1,0,0.3,0,0.4,0c0.3,0,0.7-0.1,1-0.2c0.1,0,0.2-0.1,0.4-0.1l0.4,1.5c0.1,0.5,0.2,0.9,0.2,1.4
		C366.6,230.3,365.7,232,364.2,233.1 M366.4,221.5c-0.3,0.6-0.9,1-1.5,1.1c-0.2,0.1-0.4,0.1-0.6,0.1c-0.4,0-0.9-0.1-1.2-0.3
		c-0.6-0.3-1-0.9-1.2-1.5c-0.2-0.6-0.1-1.3,0.2-1.9c0.3-0.6,0.9-1,1.5-1.2c0.1,0,0.3-0.1,0.4-0.1c0.1,0,0.1,0,0.2,0
		c0.4,0,0.8,0.1,1.2,0.3c0.6,0.3,1,0.9,1.2,1.5C366.8,220.2,366.7,220.9,366.4,221.5 M375.4,226.7c-0.7,0.3-1.5,0.5-2.3,0.5
		c-1,0-2-0.3-2.9-0.8c-0.4-0.2-0.8-0.5-1.1-0.8l-1.1-1.1c0.5-0.4,0.9-0.9,1.2-1.4c0.3-0.5,0.5-1.1,0.6-1.7l1.5,0.4
		c0.5,0.1,0.9,0.3,1.3,0.5C374.1,223.2,375.1,224.8,375.4,226.7 M372.5,218.2c-0.4,0.2-0.8,0.4-1.3,0.5l-1.5,0.4
		c-0.2-1.2-0.9-2.3-1.8-3.1l1.1-1.1c0.3-0.3,0.7-0.6,1.1-0.8c0.9-0.5,1.9-0.8,2.9-0.8c0.8,0,1.6,0.2,2.3,0.5
		C375.1,215.6,374.1,217.2,372.5,218.2 M101.7,326.9c0.6,0,1.2-0.1,1.8-0.2c1.9-0.4,3.6-1.4,4.9-2.9l3.3,2.1c0.1,0,0.2,0.1,0.3,0.1
		c0,0,0.1,0,0.1,0c0.1,0,0.3-0.1,0.3-0.2l2.1-3.3c1.1,0.5,2.3,0.7,3.6,0.7c0.1,0,0.2,0,0.3,0c3.1-0.1,6-1.7,7.6-4.4
		c1.3-2.1,1.7-4.6,1.2-7l-2-8.6c-0.1-0.2-0.3-0.4-0.5-0.4c0,0-0.1,0-0.1,0l-8.6,2c-2.4,0.5-4.5,2-5.8,4.1c-0.6,1-1,2.1-1.2,3.2
		c-0.7-0.9-1.5-1.7-2.5-2.3c-1.5-0.9-3.2-1.4-4.9-1.4c-0.7,0-1.4,0.1-2.1,0.2l-8.6,2c-0.3,0.1-0.5,0.4-0.4,0.6l2,8.6
		c0.6,2.4,2,4.5,4.1,5.8c1.5,0.9,3.2,1.4,4.9,1.4C101.5,326.9,101.6,326.9,101.7,326.9 M112.8,310.5c0.9-1.4,2.2-2.4,3.8-2.7l6-1.4
		l1.4,6c0.4,1.6,0.1,3.2-0.8,4.6c-1.1,1.8-3.1,2.9-5.3,2.9c-0.6,0-1.3-0.1-1.9-0.3l4.5-7.3c0.1-0.1,0.1-0.3,0.1-0.4
		c0-0.1-0.1-0.3-0.2-0.3l-1.8-1.1c-0.1-0.1-0.2-0.1-0.3-0.1c-0.2,0-0.3,0.1-0.4,0.3l-4.5,7.3C111.7,315.9,111.4,312.9,112.8,310.5
		 M110.6,319.3c0.4,0.5,0.8,0.9,1.2,1.4l-0.7,1.1l-1.1-0.7C110.3,320.5,110.5,319.9,110.6,319.3 M98.2,322.8
		c-1.4-0.9-2.4-2.2-2.7-3.8l-1.4-6l6-1.4c0.5-0.1,0.9-0.2,1.4-0.2c1.1,0,2.3,0.3,3.3,0.9c2.4,1.5,3.4,4.4,2.6,7l-7.3-4.6
		c-0.1-0.1-0.2-0.1-0.3-0.1c-0.2,0-0.3,0.1-0.5,0.2l-1.1,1.8c-0.1,0.1-0.1,0.3-0.1,0.4c0,0.1,0.1,0.3,0.2,0.3l7.3,4.6
		c-1.1,1.1-2.7,1.7-4.3,1.7C100.3,323.8,99.1,323.4,98.2,322.8 M99.1,253.4c0,0,0.2,0,0.3,0c1.8,0,3.5-0.6,4.9-1.6l2.6,2.7
		c0.1,0.1,0.2,0.2,0.4,0.2l0,0c0.1,0,0.3-0.1,0.4-0.1l2.7-2.6c1.5,1.1,3.4,1.7,5.3,1.7c0.1,0,0.1,0,0.2,0c2.3-0.1,4.5-1,6.1-2.6
		c1.7-1.7,2.7-4,2.7-6.4l0.1-8.6c0-0.3-0.2-0.5-0.5-0.5l-8.6-0.1c-2.4,0-4.7,0.9-6.4,2.6c-0.8,0.8-1.4,1.7-1.9,2.6
		c-0.4-1-1-1.9-1.8-2.7c-1.7-1.7-4-2.7-6.4-2.7l-8.6-0.1c-0.3,0-0.5,0.2-0.5,0.5l-0.1,8.6c0,2.4,0.9,4.7,2.6,6.4
		C94.4,252.4,96.6,253.4,99.1,253.4 M111.5,240.2c1.1-1.1,2.5-1.7,4-1.7h0.2l5.9,0l-0.1,5.9c0,1.6-0.6,3.1-1.8,4.2
		c-1.1,1.1-2.6,1.7-4.1,1.7c-1.1,0-2.1-0.3-3-0.8l5.9-5.8c0.1-0.1,0.2-0.2,0.2-0.4c0-0.1-0.1-0.3-0.1-0.4l-1.5-1.5
		c-0.1-0.1-0.2-0.2-0.4-0.2c-0.1,0-0.3,0-0.4,0.1l-5.9,5.8c-0.5-0.9-0.7-1.9-0.7-2.9C109.7,242.8,110.4,241.3,111.5,240.2
		 M107.4,248.1c0.2,0.5,0.5,1,0.8,1.4l-0.8,0.8l-0.8-0.8C106.9,249.1,107.1,248.6,107.4,248.1 M93.3,238.3l5.9,0.1
		c1.6,0,3.1,0.6,4.2,1.8c1.9,1.9,2.2,4.8,0.9,7.1l-5.8-5.9c-0.1-0.1-0.2-0.2-0.4-0.2l0,0c-0.1,0-0.3,0.1-0.4,0.2l-1.5,1.5
		c-0.2,0.2-0.2,0.5,0,0.7l5.8,5.9c-0.9,0.5-1.9,0.8-2.9,0.8c-1.6,0-3.1-0.6-4.2-1.8c-1.1-1.1-1.7-2.6-1.7-4.2L93.3,238.3z
		 M380.5,270.6l0.4-0.7c0.1-0.2,0.1-0.4,0-0.5l-0.4-0.7c-1.4-2.5-3.8-4.2-6.6-4.6c1.1-2.6,1-5.6-0.4-8l-0.5-0.8
		c-0.1-0.2-0.3-0.3-0.4-0.3l-0.8,0h-0.2c-2.8,0-5.3,1.3-7.1,3.4c-1.7-2.2-4.3-3.6-7.1-3.7l-0.9,0c-0.2,0-0.4,0.1-0.5,0.3l-0.4,0.7
		c-1.5,2.4-1.7,5.4-0.7,8c-2.8,0.3-5.3,1.9-6.7,4.3l-0.4,0.7c-0.1,0.2-0.1,0.4,0,0.5l0.4,0.7c1.3,2.5,3.8,4.2,6.6,4.6
		c-1.1,2.5-1,5.6,0.4,8l0.4,0.8c0.1,0.2,0.3,0.3,0.5,0.3l0.8,0c0,0,0,0,0.1,0h0.2c2.8,0,5.4-1.3,7.1-3.4c1.7,2.2,4.3,3.6,7.1,3.7
		c0,0,0.9,0,0.9,0c0.2,0,0.4-0.1,0.5-0.3l0.4-0.7c1.5-2.4,1.7-5.4,0.7-8C376.6,274.6,379.1,273,380.5,270.6 M366.1,262.2
		c0.1-0.5,0.3-0.9,0.6-1.3c1-1.6,2.7-2.7,4.5-2.8c0.7,1.7,0.6,3.7-0.4,5.3c-0.2,0.4-0.5,0.8-0.9,1.1l-1.1,1.1
		c-0.8-1-1.9-1.6-3.2-1.9L366.1,262.2z M358.1,257.8c1.9,0.3,3.5,1.4,4.4,3c0.2,0.4,0.4,0.8,0.5,1.3l0.4,1.5c-1.1,0.2-2.1,0.7-3,1.5
		c-0.1,0.1-0.2,0.2-0.3,0.3l-1.1-1.2c-0.3-0.3-0.6-0.7-0.8-1.1C357.4,261.5,357.4,259.5,358.1,257.8 M356.2,271.5h-0.1
		c-1.9,0-3.6-1-4.7-2.5c1.1-1.5,2.8-2.3,4.7-2.3h0.1c0.5,0,0.9,0.1,1.4,0.2l1.5,0.4c-0.2,0.6-0.3,1.2-0.3,1.8c0,0.6,0.1,1.3,0.3,1.9
		l-1.5,0.3C357.1,271.4,356.6,271.5,356.2,271.5 M362.8,276.3c-0.1,0.5-0.3,0.9-0.6,1.3c-1,1.6-2.6,2.7-4.5,2.8
		c-0.7-1.7-0.6-3.7,0.4-5.3c0.2-0.4,0.5-0.8,0.9-1.1l1.1-1.1c0.1,0.1,0.2,0.2,0.3,0.3c0.8,0.8,1.8,1.4,2.9,1.6L362.8,276.3z
		 M364.4,271.8L364.4,271.8c-0.7,0-1.4-0.3-1.8-0.8c-0.5-0.5-0.7-1.1-0.7-1.8c0-1.3,1-2.3,2.3-2.5c0.1,0,0.1,0,0.2,0h0.1
		c0.7,0,1.3,0.3,1.8,0.8c0.5,0.5,0.7,1.1,0.7,1.8c0,0.7-0.3,1.3-0.8,1.8C365.7,271.5,365.1,271.8,364.4,271.8 M370.7,280.7
		c-1.9-0.2-3.5-1.4-4.4-3c-0.2-0.4-0.4-0.8-0.5-1.3l-0.4-1.5c1.1-0.2,2.1-0.7,3-1.5c0.1-0.1,0.2-0.2,0.3-0.3l1.1,1.2
		c0.3,0.4,0.6,0.7,0.8,1.1C371.4,277,371.5,279,370.7,280.7 M372.8,271.8l-0.1,0c-0.5,0-0.9-0.1-1.4-0.2l-1.5-0.4
		c0.2-0.6,0.3-1.2,0.4-1.8c0-0.6-0.1-1.3-0.3-1.9l1.5-0.3c0.4-0.1,0.9-0.1,1.3-0.1h0.1c1.9,0,3.6,1,4.7,2.5
		C376.3,271,374.6,271.8,372.8,271.8 M207.6,317.7l-2.1,0.8v-4.7c0-0.3-0.1-0.3-0.3-0.3l-0.7,0.2c-0.2,0.1-0.3,0.2-0.3,0.5v5.7
		c0,0.3,0.1,0.3,0.3,0.3l3-1.1c0.2-0.1,0.3-0.2,0.3-0.5v-0.6C207.9,317.7,207.8,317.6,207.6,317.7 M247,214.2h-11.4v2.9H247V214.2z
		 M224.8,300.2c0.1,0,0.1,0.1,0.1,0.1c0.1,0.1,0.2,0.2,0.3,0.3c0.8-0.3,1.7-0.5,2.9-0.5c1.8,0,2.8,0.4,3.9,0.8c1,0.4,2.2,0.9,4,0.9
		c1.7,0,2.9-0.5,4-0.9c1.1-0.4,2.1-0.8,3.9-0.8c1.3,0,2.2,0.2,3,0.5c0.1-0.1,0.2-0.2,0.3-0.3c0,0,0.1-0.1,0.1-0.1
		c0,0,0.1-0.1,0.1-0.1c0.1-0.1,0.3-0.1,0.4-0.2c0.1,0,0.1-0.1,0.2-0.1l3.4-1.3c-1,0-1.7-0.3-2.5-0.6c-1.2-0.5-2.6-1-5.1-1
		c-2.4,0-3.9,0.6-5,1c-0.9,0.4-1.7,0.6-2.8,0.6c-1.1,0-1.9-0.3-2.8-0.6c-1.2-0.5-2.6-1-5.1-1c-2.4,0-3.9,0.6-5,1
		c-0.9,0.3-1.6,0.6-2.5,0.6l3.4,1.3c0.1,0,0.1,0,0.2,0.1c0.1,0.1,0.3,0.1,0.4,0.2C224.7,300.1,224.7,300.2,224.8,300.2 M238.9,312.9
		c-0.9,0.4-1.7,0.6-2.8,0.6c-1.1,0-1.9-0.3-2.8-0.6c-1.2-0.5-2.6-1-5.1-1c-0.6,0-1.2,0-1.7,0.1v3.2c0.5-0.1,1-0.1,1.7-0.1
		c1.8,0,2.8,0.4,3.9,0.8c1,0.4,2.2,0.9,4,0.9c1.7,0,2.9-0.5,4-0.9c1.1-0.4,2.1-0.8,3.9-0.8c0.7,0,1.2,0.1,1.7,0.1V312
		c-0.5-0.1-1.1-0.1-1.7-0.1C241.5,311.9,240.1,312.4,238.9,312.9 M212.6,310.8L212,311c-0.3,0.1-0.3,0.2-0.3,0.5v3.8
		c0,0.7-0.3,1.1-1,1.4c-0.7,0.2-1,0-1-0.7v-3.8c0-0.3-0.1-0.3-0.3-0.2l-0.7,0.2c-0.2,0.1-0.3,0.2-0.3,0.5v3.8c0,1.5,0.8,2.1,2.3,1.6
		c1.5-0.6,2.3-1.8,2.3-3.2V311C213,310.8,212.9,310.7,212.6,310.8 M228.2,330c1.8,0,2.8,0.4,3.9,0.8c1,0.4,2.2,0.9,4,0.9
		c1.7,0,2.9-0.5,4-0.9c1.1-0.4,2.1-0.8,3.9-0.8c1.8,0,2.8,0.4,3.9,0.8c0.2,0.1,0.4,0.2,0.7,0.2l0.7-1.4l-1.7-2.3
		c-0.9-0.3-2.1-0.5-3.5-0.5c-2.4,0-3.9,0.6-5,1c-0.9,0.4-1.7,0.6-2.8,0.6c-1.1,0-1.9-0.3-2.8-0.6c-1.2-0.5-2.6-1-5.1-1
		c-1.5,0-2.6,0.2-3.5,0.5l-1.7,2.3l0.7,1.4c0.2-0.1,0.4-0.2,0.7-0.2C225.4,330.4,226.4,330,228.2,330 M219.2,237.2h8.7v-13.4h-10.8
		v1.5H211v2.9h6.1v8.2H211v2.9h8.2V237.2z M220,226.8h5v7.5h-5V226.8z M224.3,345.8c1.1-0.4,2.1-0.8,3.9-0.8c1.8,0,2.8,0.4,3.9,0.8
		c1,0.4,2.2,0.9,4,0.9c1.7,0,2.9-0.5,4-0.9c1.1-0.4,2.1-0.8,3.9-0.8c1.8,0,2.8,0.4,3.9,0.8c0.7,0.3,1.4,0.5,2.2,0.7l1.1-3.1
		c-0.8-0.1-1.4-0.3-2.2-0.6c-1.2-0.5-2.6-1-5.1-1c-2.4,0-3.9,0.6-5,1c-0.9,0.4-1.7,0.6-2.8,0.6c-1.1,0-1.9-0.3-2.8-0.6
		c-1.2-0.5-2.6-1-5.1-1c-2.4,0-3.9,0.6-5,1c-0.8,0.3-1.4,0.5-2.2,0.6l1.1,3.1C222.9,346.3,223.7,346,224.3,345.8 M257.4,310
		l-0.7-0.2c-0.2-0.1-0.3,0-0.3,0.3v3.8c0,0.6-0.3,0.9-1,0.6c-0.7-0.2-1-0.7-1-1.4v-3.8c0-0.3-0.1-0.4-0.3-0.5l-0.6-0.2
		c-0.2-0.1-0.3,0-0.3,0.2v3.8c0,1.5,0.8,2.7,2.3,3.2c1.5,0.6,2.3-0.1,2.3-1.6v-3.8C257.7,310.2,257.6,310,257.4,310 M272.4,315.7
		c-0.1-0.3-0.2-0.4-0.4-0.4l-0.6-0.2c-0.2-0.1-0.3-0.1-0.4,0.2l-1.8,4.7l-0.7-1.7c-0.1-0.1-0.1-0.2-0.2-0.4c0.6-0.1,0.9-0.6,0.9-1.5
		c0-1.3-0.7-2.3-1.9-2.8l-2.2-0.8c-0.2-0.1-0.3,0-0.3,0.2c0-0.2-0.1-0.4-0.3-0.4l-3.8-1.4c-0.3-0.1-0.3,0-0.3,0.2v0.6
		c0,0.3,0.1,0.4,0.3,0.5l1.3,0.5v4.7c0,0.3,0.1,0.4,0.3,0.5l0.7,0.2c0.2,0.1,0.3,0,0.3-0.3v-4.7l1.2,0.5c0.2,0.1,0.3,0,0.3-0.2v5
		c0,0.3,0.1,0.4,0.3,0.5l0.6,0.2c0.2,0.1,0.3,0,0.3-0.3v-1.9l0.3,0.1c0.5,0.2,0.6,0.3,0.8,0.8l0.6,1.6c0.1,0.3,0.3,0.4,0.7,0.6
		l0.6,0.2c0,0,0,0,0,0c0,0,0,0,0.1,0l0.5,0.2c0.4,0.1,0.5,0.1,0.6-0.1l0.3-0.8l2,0.7l0.3,0.9c0.1,0.3,0.2,0.4,0.6,0.6l0.6,0.2
		c0.2,0.1,0.3,0,0.2-0.3L272.4,315.7z M267.3,316.4l-1.1-0.4v-1.5l1.1,0.4c0.4,0.2,0.7,0.5,0.7,1C268,316.4,267.7,316.5,267.3,316.4
		 M271.1,319l0.4-1.3c0.2-0.6,0.2-1.2,0.2-1.2l0.1,0c0,0,0,0.6,0.2,1.4l0.4,1.6L271.1,319z M261.4,316.5l-2.1-0.8V311
		c0-0.3-0.1-0.4-0.3-0.5l-0.6-0.2c-0.2-0.1-0.3,0-0.3,0.3v5.7c0,0.3,0.1,0.4,0.3,0.5l3,1.1c0.2,0.1,0.3,0,0.3-0.3V317
		C261.7,316.7,261.6,316.6,261.4,316.5 M201.6,314.8l-2.1,0.8c-0.2,0.1-0.3,0.2-0.3,0.5v5.7c0,0.3,0.1,0.3,0.3,0.2l0.6-0.2
		c0.2-0.1,0.3-0.2,0.3-0.5v-1.7l1.2-0.4c1.2-0.4,2-1.5,2-2.9C203.5,314.9,202.8,314.4,201.6,314.8 M201.4,317.8l-1,0.4v-1.6l1-0.4
		c0.5-0.2,0.7,0,0.7,0.6C202.2,317.3,201.9,317.7,201.4,317.8 M216.2,312c-0.7,0.2-1.2,0.3-1.2-0.2c0-0.4,0.3-0.7,0.9-1
		c0.5-0.2,0.8-0.1,0.9,0.3c0.1,0.2,0.2,0.2,0.4,0l0.6-0.5c0.2-0.2,0.3-0.3,0.2-0.6c-0.4-0.8-1-1-2.1-0.5c-1.5,0.5-2.3,1.7-2.3,2.9
		c0,1.7,1.3,1.4,2.2,1.2c0.6-0.1,1.1-0.2,1.1,0.3c0,0.5-0.4,0.9-1.1,1.1c-0.5,0.2-0.9,0.1-1-0.2c-0.1-0.2-0.2-0.3-0.4-0.1l-0.6,0.4
		c-0.2,0.2-0.3,0.3-0.2,0.5c0.3,0.8,1,1.1,2.2,0.6c1.5-0.5,2.4-1.7,2.4-2.9C218.3,311.6,217.2,311.8,216.2,312 M370.7,341.7
		c-1.7-2.7-4.6-4.5-7.8-4.7c1.2-2.9,0.9-6.4-0.8-9.1l-0.5-0.8c-0.1-0.2-0.3-0.2-0.4-0.2c0,0-0.9,0-0.9,0c-3.2,0.1-6.2,1.8-8,4.4
		c-1.9-2.4-4.8-3.8-7.9-3.8c-0.1,0-0.3,0-0.4,0l-0.9,0c-0.2,0-0.4,0.1-0.4,0.3l-0.4,0.8c-1.5,2.8-1.5,6.3-0.2,9.1
		c-3.1,0.5-5.9,2.4-7.4,5.3l-0.4,0.8c-0.1,0.2-0.1,0.4,0,0.5l0.5,0.8c1.7,2.7,4.6,4.4,7.8,4.7c-1.2,2.9-0.9,6.3,0.8,9.1l0.5,0.8
		c0.1,0.2,0.3,0.3,0.4,0.3c0,0,0.9,0,0.9,0c3.2-0.1,6.2-1.8,8-4.4c1.9,2.4,4.8,3.8,7.9,3.8c0.1,0,0.3,0,0.4,0l0.9,0
		c0.2,0,0.4-0.1,0.5-0.3l0.4-0.8c1.5-2.8,1.5-6.2,0.2-9.1c3.1-0.5,6-2.4,7.5-5.3l0.4-0.8c0.1-0.2,0.1-0.4,0-0.5L370.7,341.7z
		 M353.9,335.4c0.1-0.5,0.3-1.1,0.6-1.5c1-2,3-3.3,5.2-3.6c1,2,1,4.4,0,6.3c-0.3,0.5-0.6,0.9-1,1.4l-1.3,1.5c-0.9-1-2-1.7-3.3-2
		c-0.2,0-0.4-0.1-0.6-0.1L353.9,335.4z M344.7,330.8c2.2,0.1,4.3,1.3,5.4,3.2c0.3,0.5,0.5,1,0.7,1.5l0.6,1.9
		c-0.8,0.1-1.5,0.4-2.1,0.8c-0.7,0.4-1.2,0.9-1.7,1.5l-1.4-1.4c-0.4-0.4-0.8-0.8-1-1.3C344,335.2,343.9,332.8,344.7,330.8
		 M343.4,346.7c-0.1,0-0.2,0-0.3,0c-2.1,0-4.2-1-5.5-2.7c1.2-1.9,3.3-3,5.5-3.1c0.1,0,0.2,0,0.2,0c0.5,0,0.9,0,1.4,0.1l1.9,0.4
		c-0.1,0.2-0.1,0.4-0.2,0.6c-0.3,1.3-0.2,2.6,0.4,3.8l-1.9,0.6C344.5,346.6,344,346.7,343.4,346.7 M351.4,351.5
		c-0.1,0.6-0.3,1.1-0.6,1.5c-1,2-3,3.3-5.2,3.6c-1-2-1-4.4,0-6.3c0.3-0.5,0.6-0.9,0.9-1.3l1.3-1.5c0,0,0,0,0,0c0.9,1,2,1.7,3.3,1.9
		c0.2,0.1,0.4,0.1,0.7,0.1L351.4,351.5z M352.7,346.5c-0.2,0-0.5,0-0.7-0.1c-0.8-0.2-1.5-0.7-1.9-1.4c-0.4-0.7-0.6-1.5-0.4-2.3
		c0.2-0.8,0.7-1.5,1.3-1.9c0.5-0.3,1-0.5,1.6-0.5c0.2,0,0.5,0,0.7,0.1c0.6,0.1,1.2,0.5,1.6,1c0.1,0.1,0.2,0.3,0.3,0.4
		c0.4,0.7,0.6,1.5,0.4,2.3c-0.2,0.8-0.7,1.5-1.3,1.9C353.8,346.3,353.2,346.5,352.7,346.5 M360.6,356.1c-2.2-0.1-4.3-1.3-5.5-3.2
		c-0.3-0.5-0.5-0.9-0.7-1.5l-0.6-1.9c0.7-0.1,1.5-0.4,2.1-0.8c0.7-0.4,1.2-0.9,1.7-1.5l1.4,1.4c0.4,0.4,0.8,0.8,1,1.3
		C361.3,351.7,361.5,354.1,360.6,356.1 M362.1,346c-0.1,0-0.2,0-0.2,0c-0.5,0-0.9-0.1-1.4-0.2l-2-0.4c0.1-0.2,0.1-0.4,0.2-0.6
		c0.3-1.3,0.2-2.6-0.4-3.8l1.9-0.5c0.5-0.2,1.1-0.2,1.6-0.3c0.1,0,0.2,0,0.2,0c2.2,0,4.2,1,5.5,2.7
		C366.4,344.8,364.4,345.9,362.1,346 M338.3,380.4c-1.8-1.7-4.1-2.7-6.6-2.7c-0.1,0-0.2,0-0.3,0c-1.3,0-2.5,0.3-3.6,0.8
		c0.4-1.2,0.6-2.4,0.6-3.6c-0.1-2.6-1.1-5-3-6.7l-6.6-6.3c-0.1-0.1-0.2-0.1-0.4-0.1c-0.1,0-0.3,0.1-0.4,0.2l-6.3,6.6
		c-1.8,1.9-2.7,4.3-2.6,6.9c0.1,2.6,1.1,5,3,6.7c1.5,1.4,3.3,2.3,5.3,2.6l0.1,4.1c0,0.1,0.1,0.3,0.2,0.4c0.1,0.1,0.2,0.1,0.4,0.1
		c0,0,4.1-0.1,4.1-0.1c0.8,4.4,4.6,7.7,9.2,7.8c0.1,0,0.2,0,0.3,0c0.1,0,0.2,0,0.2,0c2.6-0.1,5-1.1,6.7-3l6.3-6.6
		c0.2-0.2,0.2-0.6,0-0.8L338.3,380.4z M322.1,386l-1.4,0l0-1.4c0.7-0.1,1.4-0.3,2-0.6C322.4,384.6,322.2,385.3,322.1,386
		 M320.6,381.3l-0.2-9c0-0.1-0.1-0.3-0.2-0.4c-0.1-0.1-0.2-0.1-0.4-0.1c0,0-2.1,0-2.1,0c-0.1,0-0.3,0.1-0.4,0.2
		c-0.1,0.1-0.1,0.2-0.1,0.4l0.2,9c-1.2-0.3-2.2-0.8-3.1-1.6c-1.3-1.2-2-2.8-2-4.5c0-1.7,0.6-3.4,1.8-4.6l4.5-4.7l4.7,4.5
		c1.3,1.2,2,2.8,2,4.5C325.3,377.9,323.4,380.5,320.6,381.3 M336.3,391.8c-1.2,1.2-2.8,2-4.5,2h-0.2c-2.9,0-5.5-2-6.2-4.8l9-0.2
		c0.3,0,0.5-0.3,0.5-0.6l-0.1-2.1c0-0.2-0.1-0.3-0.2-0.4c-0.1-0.1-0.2-0.1-0.4-0.1l-9,0.2c0.7-2.8,3.2-4.9,6.1-5h0.2
		c1.7,0,3.3,0.6,4.5,1.8l4.7,4.5L336.3,391.8z M351.8,362.8c-1.7-1.3-3.7-2-5.8-2c-0.4,0-0.8,0-1.2,0.1c-1.2,0.2-2.4,0.5-3.4,1.1
		c0.3-1.2,0.4-2.4,0.2-3.6c-0.3-2.5-1.6-4.8-3.6-6.3l-7.1-5.5c-0.1-0.1-0.2-0.1-0.3-0.1c-0.1,0-0.3,0.1-0.4,0.2l-5.5,7.1
		c-1.6,2-2.2,4.5-1.9,7c0.6,4.6,4.5,8.2,9.1,8.3l0.5,4c0,0.1,0.1,0.3,0.2,0.4c0.1,0.1,0.2,0.1,0.3,0.1c0,0,0,0,0.1,0l4-0.5
		c1.2,3.9,4.7,6.7,8.9,6.8c0.1,0,0.2,0,0.3,0c0.4,0,0.8,0,1.2-0.1c2.5-0.3,4.8-1.6,6.3-3.6l5.5-7.1c0.2-0.2,0.1-0.6-0.1-0.8
		L351.8,362.8z M336.4,369.9l-1.4,0.2l-0.2-1.4c0.6-0.2,1.3-0.5,1.8-0.8C336.6,368.6,336.5,369.3,336.4,369.9 M334.5,365.5l-1.1-8.8
		c0-0.1-0.1-0.3-0.2-0.4c-0.1-0.1-0.2-0.1-0.3-0.1c0,0,0,0-0.1,0l-2.1,0.3c-0.3,0-0.5,0.3-0.5,0.6l1.1,8.9c-1.2-0.1-2.2-0.6-3.2-1.3
		c-1.4-1-2.2-2.6-2.4-4.2c-0.2-1.7,0.2-3.4,1.3-4.7l3.9-5.1l5,3.9c1.3,1,2.2,2.6,2.4,4.3C338.8,361.7,337.1,364.5,334.5,365.5
		 M351,374.3c-1,1.3-2.5,2.2-4.2,2.4c-0.3,0-0.6,0.1-0.8,0.1c-1.4,0-2.8-0.5-3.9-1.3c-0.9-0.7-1.6-1.7-2-2.7l8.9-1.1
		c0.3,0,0.5-0.3,0.5-0.6l-0.3-2.1c0-0.1-0.1-0.3-0.2-0.4c-0.1-0.1-0.2-0.1-0.3-0.1c0,0,0,0-0.1,0l-8.8,1.1c0.1-1.1,0.6-2.2,1.3-3.1
		c1-1.3,2.6-2.2,4.3-2.4c0.3,0,0.5-0.1,0.8-0.1c1.4,0,2.8,0.5,3.9,1.3l5,3.9L351,374.3z M382.8,285.2L374,285h-0.2
		c-2.4,0-4.7,0.9-6.5,2.6c-0.8,0.8-1.5,1.8-2,2.8c-0.4-1.1-1.1-2-1.9-2.9c-1.7-1.8-4-2.8-6.5-2.9c0,0-8.8-0.2-8.8-0.2
		c-0.3,0-0.5,0.2-0.5,0.5l-0.2,8.8c-0.1,2.5,0.9,4.8,2.6,6.6c1.8,1.9,4.2,2.9,6.7,2.9c0.2,0,0.3,0,0.5,0c1.7-0.1,3.3-0.6,4.7-1.6
		l2.7,2.8c0.1,0.1,0.2,0.2,0.4,0.2h0c0.1,0,0.3-0.1,0.4-0.2l2.8-2.7c1.6,1.2,3.4,1.8,5.4,1.8h0.2c0.2,0,0.3,0,0.5,0
		c2.2-0.1,4.3-1,5.9-2.6c1.8-1.7,2.8-4,2.9-6.5l0.2-8.8C383.3,285.4,383.1,285.2,382.8,285.2 M362,297.1l-5.9-6.2
		c-0.1-0.1-0.2-0.2-0.4-0.2c-0.1,0-0.3,0-0.4,0.1l-1.5,1.4c-0.1,0.1-0.2,0.2-0.2,0.4c0,0.1,0.1,0.3,0.1,0.4l6,6.2
		c-0.9,0.5-2,0.8-3,0.8h-0.1c-1.7,0-3.2-0.7-4.3-1.9c-1.1-1.2-1.8-2.7-1.7-4.4l0.1-6.2l6.2,0.1c1.7,0,3.2,0.7,4.3,1.9
		c1.1,1.2,1.8,2.8,1.7,4.4C362.9,295.2,362.6,296.2,362,297.1 M365.1,300.4l-0.9-0.9c0.4-0.5,0.7-1,0.9-1.6c0.2,0.6,0.5,1.1,0.9,1.6
		L365.1,300.4z M380,294.4c0,1.6-0.7,3.2-1.9,4.3c-1.2,1.1-2.7,1.7-4.3,1.7h-0.1c-1.1,0-2.2-0.4-3.1-0.9l6.2-6
		c0.1-0.1,0.2-0.2,0.2-0.4c0-0.1-0.1-0.3-0.2-0.4l-1.4-1.5c-0.1-0.1-0.2-0.2-0.4-0.2c-0.1,0-0.3,0.1-0.4,0.2l-6.2,6
		c-1.3-2.4-0.9-5.5,1.1-7.4c1.2-1.1,2.7-1.7,4.3-1.7l6.3,0.1L380,294.4z M381.4,310.5l-8.6-2c-0.7-0.2-1.4-0.2-2.1-0.2
		c-1.7,0-3.4,0.5-4.9,1.4c-1,0.6-1.8,1.4-2.5,2.3c-0.2-1.1-0.6-2.2-1.3-3.2c-1.3-2.1-3.4-3.6-5.8-4.1l-8.6-2c0,0-0.1,0-0.1,0
		c-0.2,0-0.5,0.2-0.5,0.4l-2,8.6c-0.6,2.4-0.1,4.9,1.2,7c1.7,2.6,4.5,4.3,7.6,4.4c0.1,0,0.2,0,0.3,0c1.2,0,2.4-0.2,3.6-0.7l2.1,3.3
		c0.1,0.1,0.2,0.2,0.3,0.2c0,0,0.1,0,0.1,0c0.1,0,0.2,0,0.3-0.1l3.3-2.1c1.3,1.5,3,2.5,4.9,2.9c0.6,0.1,1.2,0.2,1.8,0.2
		c0.1,0,0.2,0,0.3,0c1.7,0,3.4-0.5,4.9-1.4c2.1-1.3,3.6-3.4,4.1-5.8l2-8.6C381.9,310.8,381.7,310.5,381.4,310.5 M358.6,317.9
		l-4.5-7.3c-0.1-0.2-0.3-0.3-0.4-0.3c-0.1,0-0.2,0-0.3,0.1l-1.8,1.1c-0.1,0.1-0.2,0.2-0.2,0.3c0,0.1,0,0.3,0.1,0.4l4.6,7.3
		c-0.6,0.2-1.2,0.3-1.9,0.3c-2.1,0-4.1-1.1-5.2-2.9c-0.9-1.4-1.1-3-0.8-4.6l1.4-6l6,1.4c1.6,0.4,3,1.3,3.9,2.7
		C360.8,312.9,360.5,315.9,358.6,317.9 M361,321.8l-0.7-1.1c0.4-0.4,0.9-0.9,1.2-1.4c0.1,0.6,0.3,1.2,0.5,1.8L361,321.8z M376.7,319
		c-0.4,1.6-1.3,3-2.7,3.8c-1,0.6-2.1,0.9-3.3,0.9c-1.6,0-3.1-0.6-4.3-1.7l7.3-4.6c0.1-0.1,0.2-0.2,0.2-0.3c0-0.1,0-0.3-0.1-0.4
		l-1.1-1.8c-0.1-0.2-0.3-0.2-0.5-0.2c-0.1,0-0.2,0-0.3,0.1l-7.3,4.6c-0.8-2.7,0.2-5.5,2.6-7c1-0.6,2.1-0.9,3.2-0.9
		c0.5,0,0.9,0.1,1.4,0.2l6,1.4L376.7,319z M168.4,205.8c-2.6,5.7-3.9,12.8-3.9,21v57.7c0,22.2,8.9,40.6,27.3,56.2
		c14.6,12.4,31.2,25.8,43.6,31.1l0.7,0.3l0.7-0.3c12.4-5.3,29-18.7,43.6-31.1c18.4-15.6,27.3-34,27.3-56.2v-57.7
		c0-8.3-1.3-15.4-3.9-21c-2.2-4.9-5.5-8.9-9.9-12.4c-10.7-8.3-26.7-13.5-44.1-14.2v-5.5h-8v3.2h-1.4v-3.2h-8.4v3.2h-1.4v-3.2h-8v5.5
		c-17.4,0.7-33.4,5.9-44.1,14.2C173.9,196.8,170.7,200.9,168.4,205.8 M201.6,341.9h-3.1c-1.5-1.3-3-2.5-4.4-3.8
		c-17.5-14.9-26.1-32.5-26.1-53.6V282l28.3,0.1l2.3,6.8c0.2,0.6,0.8,1,1.4,1h1.6v4l-6.9-2.5c-0.6-0.2-1.2-0.1-1.6,0.4
		c-0.4,0.4-0.5,1.1-0.3,1.6l3.8,8.1l-3.6,4.7c-0.3,0.4-0.4,0.9-0.2,1.3c0.1,0.4,0.5,0.8,0.9,1l5.3,1.9l-5.3,1.9
		c-0.6,0.2-1,0.8-1,1.4v13.6c0,0.5,0.2,0.9,0.6,1.2c0.1,0.1,0.2,0.1,0.3,0.2l0,0l7.9,2.9V341.9z M201.6,226.2v-18.1h7.5v4.1h15.7
		v-4.1h22.5v4.1h15.8v-4.1h7.5v6.1h-19.8v2.9h19.8v8.2h-11.7v2.9h9l-1.8,1.3v6.9h-11v-12.6h-10.8v1.5h-8.6v2.9h8.6v8.2h-8.6v2.9
		h11.2v-2.2h5.8v2.2H266v8.2h-9.8v2.9h9.8v0.5l6.1,7.4h-7.4v2.9h9.8l0.6,0.8v7.7h-6.9v2.9h6.9v6.3h-20v-18.3
		c0-10.5-8.6-19.1-19.1-19.1c-9.7,0-17.8,7.3-18.9,16.8h-8.6v2.9h8.4v8.5h-15.3v2.9H217v6.3h-20v-17l9.2-11.1v-21.4L201.6,226.2z
		 M215.6,194.3v-3.2h2.6v3.2h7.2v-3.2h2.2v6.9h-13.2v2.9h13.2v4.3h-5.7v4.1H212v-4.1h-5.9v-14.1h2.2v3.2H215.6z M252.1,234.3h-5
		v-7.5h5V234.3z M272.6,302.6l2.9,3.8l-5,1.8v-11.1l4.6-1.7l-2.6,5.7C272.2,301.6,272.3,302.2,272.6,302.6 M250.8,315.9v-10.5
		l25.6,9.3v10.5L250.8,315.9z M273.7,327.4l-3.1,1.2v-2.3L273.7,327.4z M267.6,325.2v16.7h-7.9v-19.6L267.6,325.2z M195.7,325.3
		v-10.5l25.6-9.3v10.5L195.7,325.3z M212.5,322.3v19.6h-7.9v-16.7L212.5,322.3z M199.7,301.1l-2.6-5.7l4.6,1.7v11.1l-5-1.8l2.9-3.8
		C199.9,302.2,199.9,301.6,199.7,301.1 M201.1,287l-1.7-4.9h18.1l-1.7,4.9H201.1z M215.4,302.2l3.1,1.2l-3.1,1.1V302.2z
		 M204.5,289.9h7.9v15.6l-7.9,2.9V289.9z M217.3,329.9l2.6,5.4l-4.5-1.7v-11.1l5.1,1.8l-3,4.1C217.2,328.8,217.1,329.4,217.3,329.9
		 M215.4,336.7l6.9,2.5c0.2,0.1,0.3,0.1,0.5,0.1c0.4,0,0.8-0.2,1.1-0.5c0.4-0.4,0.5-1.1,0.2-1.6l-3.7-7.8l3.6-5
		c0.3-0.4,0.4-0.8,0.2-1.3c-0.1-0.4-0.5-0.8-0.9-1l-5.3-1.9l5.3-1.9c0.6-0.2,1-0.8,1-1.4v-13.7c0-0.5-0.2-0.9-0.6-1.2
		c-0.1-0.1-0.2-0.1-0.3-0.2l-7.9-2.9v-9.1h1.6c0.6,0,1.2-0.4,1.4-1l2.3-6.8h30.8l2.3,6.8c0.2,0.6,0.8,1,1.4,1h1.6v9.1l-7.9,2.9
		c-0.1,0-0.2,0.1-0.3,0.2c-0.4,0.3-0.6,0.7-0.6,1.2V317c0,0.6,0.4,1.2,1,1.4l5.3,1.9l-5.3,1.9c-0.4,0.2-0.8,0.5-0.9,1
		c-0.1,0.4-0.1,0.9,0.2,1.3l3.6,5l-3.7,7.8c-0.3,0.6-0.2,1.2,0.2,1.6c0.3,0.3,0.7,0.5,1.1,0.5c0.2,0,0.3,0,0.5-0.1l6.9-2.5v5.2h-1.6
		c-0.6,0-1.2,0.4-1.4,1l-2.3,6.4h-30.8l-2.3-6.4c-0.2-0.6-0.8-1-1.4-1h-1.6V336.7z M232.3,255v-9.9c1.2-0.3,2.5-0.5,3.8-0.5
		c1.5,0,3,0.2,4.4,0.6v22.8h2.9v-21.7c5.2,2.7,8.8,8.1,8.8,14.4v18.3h-8.8v-6.5h-2.9v6.5h-8.2v-20.6h-2.9v20.6h-9.4v-18.3
		c0-6.5,3.9-12.1,9.4-14.7v8.9H232.3z M256.8,302.2v2.3l-3.1-1.1L256.8,302.2z M252.3,335.2l2.6-5.4c0.2-0.5,0.2-1.1-0.1-1.5l-3-4.1
		l5.1-1.8v11.1L252.3,335.2z M259.7,305.5v-15.6h7.9v18.5L259.7,305.5z M256.2,287l-1.7-4.9h18.1L271,287H256.2z M201.6,328.5
		l-3.1-1.2l3.1-1.1V328.5z M204.5,346.9v-2.1h11.4l1.6,4.4h-10.1C206.4,348.4,205.5,347.6,204.5,346.9 M236.1,368.4
		c-7.2-3.2-16-9.3-24.9-16.2H261C252.1,359.1,243.3,365.2,236.1,368.4 M264.8,349.2h-10.1l1.6-4.4h13.9
		C268.4,346.3,266.6,347.7,264.8,349.2 M304.2,284.5c0,21.1-8.5,38.7-26.1,53.6c-1.5,1.2-2.9,2.5-4.4,3.8h-3.1v-10.2l7.9-2.9l0,0
		c0.1,0,0.2-0.1,0.3-0.2c0.4-0.3,0.6-0.7,0.6-1.2v-13.6c0-0.6-0.4-1.2-1-1.4l-5.3-1.9l5.3-1.9c0.4-0.2,0.8-0.5,0.9-1
		c0.1-0.4,0-0.9-0.2-1.3l-3.6-4.7l3.8-8.1c0.3-0.5,0.1-1.2-0.3-1.6c-0.4-0.4-1-0.6-1.6-0.4l-6.9,2.5v-4h1.6c0.6,0,1.2-0.4,1.4-1
		l2.3-6.8l28.4-0.1V284.5z M249.7,182.6c16.6,0.7,31.9,5.6,42,13.5c4,3.1,6.9,6.8,8.9,11.1c2.4,5.2,3.6,11.8,3.6,19.6v52.3h-26.1
		v-18l-9.1-11.1v-18.9l4.5-3.4v-22.5h-4.5v-17h-8.1v3.2h-1.4v-3.2h-8.4v3.2h-1.4v-3.2V182.6z M254,194.3v-3.2h2.5v3.2h7.3v-3.2h2.2
		v6.9h-4.9v2.9h4.9v4.3h-5.9v4.1h-9.9v-4.1h-5.7v-14.1h2.2v3.2H254z M225.4,176.5h2.2v3.2h7.3v-3.2h2.5v3.2h7.3v-3.2h2.1v7.4h-15.5
		v2.9h15.5v1.3h-5.1v8.2h-6v2.9h6v5.9h-11.1v-17h-5.1V176.5z M222.5,182.6v7.8l0,0v1h-1.4v-3.2h-8.4v3.2h-1.4v-3.2h-8.1v17h-4.5
		v22.5l4.5,3.4V250l-9.2,11.1v18H168v-52.3c0-7.8,1.2-14.4,3.6-19.6c2-4.4,4.9-8,8.9-11.1C190.6,188.2,205.8,183.3,222.5,182.6
		 M279.3,300.9c1,0.4,2.2,0.9,4,0.9c1.7,0,2.9-0.5,4-0.9c1.1-0.4,2.1-0.8,3.9-0.8c1.8,0,2.8,0.4,3.9,0.8c0.8,0.3,1.6,0.6,2.8,0.8
		c0.1-0.5,0.3-1,0.4-1.5c0,0,0,0,0,0c0.1-0.5,0.2-1,0.4-1.6c-0.9-0.1-1.6-0.3-2.4-0.6c-1.2-0.5-2.6-1-5.1-1c-2.4,0-3.9,0.6-5,1
		c-0.9,0.4-1.7,0.6-2.8,0.6c-1.1,0-1.9-0.3-2.8-0.6c-0.2-0.1-0.4-0.2-0.7-0.3l-1.3,2.9C278.7,300.7,279,300.8,279.3,300.9
		 M256.7,198H250v2.9h6.7V198z M278.4,388.7c5.7-3.8,11.1-7.8,16.1-12c31.4-25.9,48-56.6,48-88.6l0-70.9c0-10.2,3.2-15.5,8.8-21.1
		l26.3-26.3l-47.5-47.5l-14.4,14.4c-6.2-11.7-18.5-19.1-31.8-19.1c-10.3,0-19.9,4.9-31,15.8c-1.8,1.5-3.3,3.3-4.5,5.4v-22h22.3V92.2
		h-22.3V69.9h-24.7v22.3h-22.3V117h22.3v22c-1.2-2.1-2.8-3.9-4.5-5.4c-11.2-10.9-20.8-15.8-31-15.8c-13.3,0-25.6,7.4-31.8,19.1
		L142,122.4l-47.5,47.5l26.3,26.3c5.6,5.6,8.8,10.9,8.8,21.1v70.9c0,32.1,16.6,62.7,48,88.6c5,4.1,10.4,8.2,16.1,12
		c-4.8,0.4-8.9,2.5-12,6c-3.1,3.6-4.8,8.4-4.8,13.5c0,7,2.6,12.1,6.6,15.5c6.2,6.1,14.6,12.8,25.1,12.8c12.6,0,23.4-8.1,27.5-19.3
		c4.1,11.3,14.9,19.3,27.5,19.3c10.6,0,19-6.7,25.2-12.8c4.3-3.8,6.5-9.1,6.5-15.5c0-5.1-1.7-9.9-4.8-13.5
		C287.4,391.2,283.3,389.2,278.4,388.7 M284,121.2c12.4,0,23.8,7.1,29.2,18.2c-4.2,4.3-6.8,8.2-8.3,12.3
		c-3.9-14.3-17-24.8-32.6-24.8c-2.3,0-4.6,0.2-6.9,0.7C271.9,123.2,277.8,121.2,284,121.2 M254.2,137.1c0.1-0.1,0.2-0.1,0.3-0.3
		c0.4-0.5,0.9-0.9,1.3-1.3c3.8-3.1,9.1-5.2,16.4-5.2c16.7,0,30.3,13.6,30.3,30.3v9.7c-5.1-3.2-10.7-6-16.9-8.3
		c0.3-1.2,0.4-2.5,0.4-3.7c0-11.5-9.5-17.7-18.4-17.7c-1,0-1.7,0.8-1.7,1.7s0.8,1.7,1.7,1.7c5.8,0,15,3.8,15,14.2
		c0,7.9-6.7,14.7-14.7,14.7c-12.8,0-19.6-10.3-19.6-20.5C248.5,147.2,250.1,141.4,254.2,137.1 M204.8,113.5V95.7h22.4V73.4H245v22.3
		h22.3v17.8H245v41.6c-3.9,0-13.9,0-17.8,0v-41.6H204.8z M226.5,158.6l19.2,0c0.9,3.9,2.7,7.5,5.2,10.4c4.2,4.9,10.2,7.5,17.1,7.5
		c7.4,0,13.9-4.6,16.7-11.1c8.3,3.1,15.5,7,21.7,11.8c7,5.5,12.4,12.2,16,20.1c3.8,8.4,5.7,18.3,5.7,29.5v57.7
		c0,28.2-11.6,52.3-34.5,71.8c-16.6,14.1-34,28-48.9,34.4l-8.7,3.7l-8.7-3.7c-14.9-6.3-32.3-20.2-48.9-34.4
		c-22.9-19.5-34.5-43.7-34.5-71.8v-57.7c0-11.2,1.9-21.2,5.7-29.5c3.6-7.9,8.9-14.6,16-20.1c6.1-4.8,13.4-8.7,21.7-11.8
		c2.8,6.4,9.3,11.1,16.7,11.1C216.7,176.5,224.2,168.2,226.5,158.6 M217.6,136.8c0.1,0.1,0.2,0.2,0.3,0.3c4.1,4.3,5.8,10.1,5.8,15.4
		c0,10.2-6.7,20.5-19.6,20.5c-8,0-14.7-6.7-14.7-14.7c0-10.3,9.2-14.2,15-14.2c1,0,1.7-0.8,1.7-1.7s-0.8-1.7-1.7-1.7
		c-8.9,0-18.4,6.2-18.4,17.7c0,1.3,0.1,2.5,0.4,3.7c-6.2,2.3-11.8,5.1-16.9,8.3v-9.7c0-16.7,13.6-30.3,30.3-30.3
		c7.3,0,12.7,2.1,16.4,5.2C216.7,136,217.1,136.4,217.6,136.8 M188.1,121.2c6.2,0,12.2,2,18.6,6.4c-2.3-0.5-4.6-0.7-6.9-0.7
		c-15.5,0-28.6,10.5-32.6,24.8c-1.6-4.1-4.1-8-8.3-12.3C164.4,128.3,175.7,121.2,188.1,121.2 M185.2,420.5L185.2,420.5
		c-3.4-3.4-4.8-8.1-4.8-12.3c0-8,5.3-16.1,15.4-16.1c1.9,0,3.7,0.5,5.3,1.3c0.2,0.1,0.4,0.2,0.6,0.4l0,0c3.3,2,5.6,5.7,5.6,9.8
		c0,8.1-7.1,11.1-11.7,11.1c-0.9,0-1.7,0.8-1.7,1.7s0.8,1.7,1.7,1.7c3.6,0,7.2-1.2,10-3.4c2.4-1.9,5.2-5.3,5.2-11.1
		c0-5.5-3.1-10.4-7.7-13c-8.3-5.2-16.1-10.7-23.1-16.5c-30.6-25.2-46.7-55-46.7-86v-70.9c0-11.4-3.8-17.4-9.9-23.5l-23.8-23.8
		l42.6-42.6l13.8,13.8c8.7,8.7,10.2,15.2,10.2,26.3v4.4v0.8c-0.8,0.6-1.6,1.2-2.4,1.8c-7.5,5.8-13.2,13-17,21.4c-4,8.8-6,19.2-6,31
		v57.7c0,29.2,12,54.3,35.7,74.5c15.7,13.4,32.2,26.7,46.9,33.6v9.1c0,13.2-10.8,24-24,24c-5.8,0-10-1.6-13-4.1
		C185.8,421.2,185.5,420.9,185.2,420.5 M234.4,407.2c0,14.2-11.6,25.8-25.8,25.8c-4.4,0-8.8-1.3-13.3-4.2c1.3,0.2,2.6,0.3,3.9,0.3
		c15.1,0,27.4-12.3,27.4-27.4l0-7.5l7.7,3.3V407.2z M236.1,396.3L236.1,396.3L236.1,396.3L236.1,396.3z M263.6,433
		c-14.2,0-25.8-11.6-25.8-25.8l0-9.8l7.7-3.3v7.5c0,15.1,12.3,27.4,27.4,27.4c1.3,0,2.7-0.1,3.9-0.3C272.3,431.7,268,433,263.6,433
		 M287,420.6L287,420.6c-0.4,0.3-0.7,0.6-1.1,1c-3,2.5-7.2,4.1-13,4.1c-13.2,0-24-10.8-24-24v-9.1c14.7-7,31.1-20.2,46.9-33.6
		c23.7-20.2,35.7-45.2,35.7-74.5v-57.7c0-11.7-2-22.1-6-31c-3.8-8.4-9.5-15.6-17-21.4c-0.8-0.6-1.6-1.2-2.4-1.8v-0.8h0v-4.4
		c0-11.1,1.5-17.6,10.2-26.3l13.8-13.8l42.6,42.6l-23.8,23.8c-6.1,6.1-9.9,12.1-9.9,23.5v70.9c0,31-16.2,60.8-46.7,86
		c-7,5.8-14.8,11.3-23.2,16.5c-4.5,2.6-7.7,7.5-7.7,13c0,9.4,7.8,14.5,15.1,14.5c1,0,1.7-0.8,1.7-1.7s-0.8-1.7-1.7-1.7
		c-4.5,0-11.7-3-11.7-11.1c0-4.1,2.3-7.7,5.6-9.8l0,0c0.2-0.1,0.4-0.2,0.6-0.4c1.6-0.8,3.4-1.3,5.3-1.3c10.1,0,15.4,8.1,15.4,16.1
		C291.8,412.5,290.4,417.1,287,420.6 M286.1,312.9c-0.9,0.4-1.7,0.6-2.8,0.6c-0.6,0-1.2-0.1-1.7-0.2c0,0.1,0,0.3,0,0.4v2.9
		c0.5,0.1,1,0.1,1.6,0.1c1.7,0,2.9-0.5,4-0.9c1.1-0.4,2.1-0.8,3.9-0.8c0.5,0,0.9,0,1.2,0.1c0,0,0,0,0,0c0.5-1,1.1-2,1.5-3
		c-0.8-0.2-1.7-0.3-2.8-0.3C288.7,311.9,287.3,312.4,286.1,312.9 M323.1,397.3c-1.7-2-4.1-3.3-6.7-3.6c-0.3,0-0.6,0-0.9,0
		c-1,0-2,0.2-2.9,0.5c0.6-1.2,1-2.4,1.1-3.7c0.3-2.6-0.5-5.2-2.2-7.3l-6-7.2c-0.1-0.1-0.3-0.2-0.4-0.2c-0.1,0-0.2,0-0.3,0.1l-7.2,6
		c-2,1.7-3.3,4.1-3.5,6.7c-0.5,4.9,2.7,9.3,7.4,10.5l-0.2,2.2l-3.2,2.5c-0.2,0.2-0.3,0.5-0.1,0.7l1.2,1.7c0.1,0.1,0.2,0.2,0.4,0.2
		c0,0,0,0,0.1,0c0.1,0,0.2,0,0.3-0.1l3-2.3l2.8,0.3c0.1,2.1,0.9,4.1,2.2,5.7c1.7,2,4.1,3.3,6.7,3.6c0.3,0,0.5,0,0.8,0.1h0.2
		c2.3,0,4.5-0.8,6.3-2.3l7.2-6c0.2-0.2,0.3-0.5,0.1-0.7L323.1,397.3z M305.9,401.1l-1.6-0.1l0.2-1.6c0.8,0,1.5-0.2,2.3-0.4
		C306.3,399.6,306.1,400.3,305.9,401.1 M304.8,396.1l0.9-9.3c0-0.1,0-0.3-0.1-0.4c-0.1-0.1-0.2-0.2-0.4-0.2l-2.1-0.2c0,0,0,0,0,0
		c-0.3,0-0.5,0.2-0.5,0.5l-0.9,9.4c-2.9-1-4.9-3.9-4.6-7c0.2-1.8,1-3.4,2.4-4.6l5.2-4.3l4.3,5.2c1.1,1.4,1.7,3.1,1.5,4.9
		C310.2,393.2,307.8,395.7,304.8,396.1 M319.7,408.8c-1.2,1-2.7,1.5-4.3,1.5c-0.2,0-0.4,0-0.7,0c-1.8-0.2-3.4-1-4.6-2.4
		c-0.8-1-1.3-2.1-1.5-3.4l9.4,0.9c0,0,0,0,0.1,0c0.3,0,0.5-0.2,0.5-0.5l0.2-2.1c0-0.1,0-0.3-0.1-0.4c-0.1-0.1-0.2-0.2-0.4-0.2
		l-9.3-0.9c0.4-1.2,1.1-2.2,2.1-3c1.2-1,2.7-1.6,4.3-1.6c0.2,0,0.4,0,0.7,0c1.8,0.2,3.4,1,4.6,2.4l4.3,5.2L319.7,408.8z M150,389.1
		l4.1,0.1c0.1,0,0.3-0.1,0.4-0.1c0.1-0.1,0.2-0.2,0.2-0.4l0.1-4.1c2-0.3,3.8-1.1,5.3-2.6c1.9-1.8,2.9-4.2,3-6.7
		c0.1-2.6-0.9-5-2.6-6.9l-6.3-6.6c-0.1-0.1-0.2-0.2-0.4-0.2c-0.1,0-0.3,0-0.4,0.1l-6.6,6.3c-1.9,1.8-2.9,4.2-3,6.7
		c0,1.2,0.2,2.5,0.6,3.6c-1.1-0.5-2.4-0.8-3.6-0.8c-0.1,0-0.2,0-0.3,0c-2.5,0-4.8,0.9-6.6,2.7l-6.6,6.3c-0.2,0.2-0.2,0.5,0,0.8
		l6.3,6.6c1.8,1.9,4.2,2.9,6.7,3c0.1,0,0.2,0,0.3,0c0.1,0,0.2,0,0.3,0C145.4,396.8,149.2,393.5,150,389.1 M151.5,386l-1.4,0
		c-0.1-0.7-0.3-1.4-0.5-2c0.6,0.3,1.3,0.5,2,0.6L151.5,386z M137.7,388.8l9,0.2c-0.8,2.8-3.3,4.8-6.2,4.8h-0.2c-1.7,0-3.3-0.7-4.5-2
		l-4.5-4.7l4.7-4.5c1.2-1.2,2.8-1.8,4.5-1.8h0.2c2.9,0.1,5.5,2.2,6.1,5c0,0-9-0.2-9-0.2c-0.1,0-0.3,0.1-0.4,0.1
		c-0.1,0.1-0.2,0.2-0.2,0.4l-0.1,2.1C137.2,388.5,137.4,388.8,137.7,388.8 M148.9,370.4l4.7-4.5l4.5,4.7c1.2,1.2,1.8,2.9,1.8,4.6
		c0,1.7-0.8,3.3-2,4.5c-0.9,0.8-1.9,1.4-3.1,1.6l0.2-9c0-0.1-0.1-0.3-0.1-0.4c-0.1-0.1-0.2-0.2-0.4-0.2c0,0-2.1,0-2.1,0
		c-0.1,0-0.3,0.1-0.4,0.1c-0.1,0.1-0.2,0.2-0.2,0.4l-0.2,9c-2.8-0.8-4.8-3.4-4.7-6.4C146.9,373.2,147.6,371.6,148.9,370.4
		 M135.3,373.1l4,0.5c0,0,0,0,0.1,0c0.1,0,0.2,0,0.3-0.1c0.1-0.1,0.2-0.2,0.2-0.4l0.5-4c4.6-0.2,8.6-3.7,9.1-8.3
		c0.3-2.5-0.4-5-1.9-7l-5.5-7.1c-0.1-0.1-0.3-0.2-0.4-0.2c-0.1,0-0.2,0-0.3,0.1l-7.1,5.5c-2,1.6-3.3,3.8-3.6,6.3
		c-0.2,1.2-0.1,2.4,0.2,3.6c-1.1-0.6-2.2-1-3.4-1.1c-0.4,0-0.8-0.1-1.2-0.1c-2.1,0-4.1,0.7-5.8,2l-7.1,5.5c-0.2,0.2-0.3,0.5-0.1,0.8
		l5.5,7.1c1.6,2,3.8,3.3,6.3,3.6c0.4,0.1,0.8,0.1,1.2,0.1c0.1,0,0.2,0,0.3,0C130.6,379.8,134.2,377,135.3,373.1 M137.1,370.1
		l-1.4-0.2c0-0.7-0.1-1.3-0.3-2c0.6,0.3,1.2,0.6,1.8,0.8L137.1,370.1z M133.7,358.8c0.2-1.7,1.1-3.2,2.4-4.3l5.1-3.9l3.9,5.1
		c1,1.3,1.5,3,1.3,4.7c-0.2,1.7-1.1,3.2-2.4,4.2c-0.9,0.7-2,1.2-3.2,1.3l1.1-8.9c0-0.3-0.2-0.6-0.5-0.6l-2.1-0.3c0,0,0,0-0.1,0
		c-0.1,0-0.2,0-0.3,0.1c-0.1,0.1-0.2,0.2-0.2,0.4l-1.1,8.8C135,364.5,133.3,361.7,133.7,358.8 M123.3,371.5l8.9,1.1
		c-0.4,1.1-1.1,2-2,2.7c-1.1,0.9-2.5,1.3-3.9,1.3c-0.3,0-0.5,0-0.8-0.1c-1.7-0.2-3.2-1.1-4.2-2.4l-3.9-5.1l5.1-3.9
		c1.1-0.9,2.5-1.3,3.9-1.3c0.3,0,0.5,0,0.8,0.1c1.7,0.2,3.2,1.1,4.3,2.4c0.7,0.9,1.1,2,1.3,3.1l-8.8-1.1c0,0,0,0-0.1,0
		c-0.1,0-0.2,0-0.3,0.1c-0.1,0.1-0.2,0.2-0.2,0.4l-0.3,2.1C122.8,371.2,123,371.5,123.3,371.5 M178.2,388.5c-0.3-2.6-1.5-5-3.5-6.7
		l-7.2-6c-0.1-0.1-0.2-0.1-0.3-0.1c-0.2,0-0.3,0.1-0.4,0.2l-6,7.2c-1.7,2-2.5,4.6-2.2,7.3c0.1,1.3,0.5,2.6,1.1,3.7
		c-0.9-0.3-1.9-0.5-2.9-0.5c-0.3,0-0.6,0-1,0c-2.6,0.3-5,1.5-6.7,3.6l-6,7.2c-0.2,0.2-0.1,0.6,0.1,0.7l7.2,6c1.8,1.5,4,2.3,6.3,2.3
		h0.2c0.3,0,0.5,0,0.8-0.1c2.6-0.3,5-1.5,6.7-3.6c1.4-1.6,2.1-3.6,2.3-5.7l2.8-0.3l3,2.3c0.1,0.1,0.2,0.1,0.3,0.1c0,0,0,0,0.1,0
		c0.1,0,0.3-0.1,0.4-0.2l1.2-1.7c0.2-0.2,0.1-0.6-0.1-0.7l-3.2-2.5l-0.2-2.2C175.6,397.9,178.7,393.4,178.2,388.5 M161.9,407.9
		c-1.2,1.4-2.8,2.2-4.6,2.4c-0.2,0-0.4,0-0.7,0c-1.6,0-3-0.5-4.3-1.5l-5.2-4.3l4.3-5.2c1.1-1.4,2.8-2.3,4.6-2.4c0.2,0,0.4,0,0.7,0
		c1.6,0,3.1,0.5,4.3,1.6c1,0.8,1.7,1.8,2.1,3l-9.3,0.9c-0.1,0-0.3,0.1-0.4,0.2c-0.1,0.1-0.1,0.3-0.1,0.4l0.2,2.1
		c0,0.3,0.3,0.5,0.5,0.5c0,0,0,0,0.1,0l9.4-0.9C163.2,405.8,162.7,406.9,161.9,407.9 M166.3,401.1c-0.2-0.8-0.5-1.5-0.8-2.1
		c0.7,0.2,1.5,0.4,2.3,0.4l0.2,1.6L166.3,401.1z M170.5,395.9l-0.9-9.4c0-0.3-0.3-0.5-0.5-0.5c0,0,0,0-0.1,0l-2.1,0.2
		c-0.1,0-0.3,0.1-0.4,0.2c-0.1,0.1-0.1,0.3-0.1,0.4l0.9,9.3c-3-0.4-5.4-2.9-5.7-6c-0.2-1.8,0.4-3.6,1.5-4.9l4.3-5.2l5.2,4.3
		c1.4,1.1,2.2,2.8,2.4,4.6C175.4,392,173.5,394.9,170.5,395.9 M265.3,269.8h-5.5v2.9h5.5V269.8z M184.9,300.9c1,0.4,2.2,0.9,4,0.9
		c1.7,0,2.9-0.5,4-0.9c0.3-0.1,0.6-0.2,0.9-0.3l-1.3-2.9c-0.2,0.1-0.5,0.2-0.7,0.3c-0.9,0.4-1.7,0.6-2.8,0.6c-1.1,0-1.9-0.3-2.8-0.6
		c-1.2-0.5-2.6-1-5-1c-2.4,0-3.9,0.6-5.1,1c-0.8,0.3-1.5,0.6-2.4,0.6l0,0c0.1,0.5,0.2,1,0.4,1.6v0c0.1,0.5,0.3,1,0.4,1.5l0,0
		c1.1-0.1,2-0.5,2.8-0.8c1.1-0.4,2.1-0.8,3.9-0.8C182.8,300.1,183.8,300.5,184.9,300.9 M186.1,312.9c-1.2-0.5-2.6-1-5-1
		c-1.1,0-2,0.1-2.8,0.3c0.5,1,1,2,1.5,3c0,0,0,0,0,0c0.4-0.1,0.8-0.1,1.2-0.1c1.8,0,2.8,0.4,3.9,0.8c1,0.4,2.2,0.9,4,0.9
		c0.6,0,1.1-0.1,1.6-0.1v-2.9c0-0.1,0-0.3,0-0.4c-0.5,0.1-1,0.2-1.7,0.2C187.7,313.5,187,313.2,186.1,312.9 M119.1,355.5
		c1.8,2.6,4.8,4.3,8,4.4l0.9,0c0.2,0,0.4-0.1,0.5-0.3l0.5-0.8c1.7-2.7,2-6.1,0.8-9.1c3.2-0.2,6.1-2,7.8-4.7l0.5-0.8
		c0.1-0.2,0.1-0.4,0-0.5l-0.4-0.8c-1.5-2.8-4.3-4.8-7.4-5.3c1.4-2.9,1.3-6.3-0.2-9.1l-0.4-0.8c-0.1-0.2-0.3-0.3-0.4-0.3l-0.9,0
		c-0.1,0-0.3,0-0.4,0c-3.1,0-6,1.4-7.9,3.8c-1.8-2.6-4.8-4.3-8-4.4c0,0-0.9,0-0.9,0c-0.2,0-0.4,0.1-0.5,0.2l-0.5,0.8
		c-1.7,2.7-2,6.1-0.8,9.1c-3.2,0.2-6.1,2-7.8,4.7l-0.5,0.7c-0.1,0.2-0.1,0.3,0,0.5l0.4,0.8c1.5,2.9,4.3,4.8,7.5,5.3
		c-1.4,2.9-1.4,6.3,0.2,9.1l0.4,0.8c0.1,0.2,0.3,0.3,0.5,0.3l0.9,0c0.1,0,0.3,0,0.4,0l0,0C114.3,359.3,117.2,357.9,119.1,355.5
		 M126.5,356.7c-2.2-0.3-4.2-1.6-5.2-3.6c-0.3-0.5-0.4-1-0.6-1.5l-0.5-1.9c0.2,0,0.4-0.1,0.7-0.1c1.3-0.3,2.4-1,3.3-1.9c0,0,0,0,0,0
		l1.3,1.5c0.4,0.4,0.7,0.9,0.9,1.3C127.5,352.3,127.5,354.7,126.5,356.7 M128.7,340.9c0.1,0,0.2,0,0.2,0c2.2,0.1,4.3,1.3,5.5,3.1
		c-1.3,1.7-3.3,2.7-5.5,2.7c-0.1,0-0.2,0-0.2,0c-0.5,0-1.1-0.1-1.6-0.3l-1.9-0.6c0.5-1.2,0.6-2.5,0.3-3.8c0-0.2-0.1-0.4-0.2-0.6
		l2-0.4C127.8,340.9,128.3,340.9,128.7,340.9 M121.3,335.5c0.2-0.5,0.4-1,0.7-1.5c1.2-1.9,3.3-3.1,5.5-3.2c0.8,2,0.7,4.4-0.5,6.3
		c-0.3,0.5-0.6,0.9-1,1.3l-1.4,1.4c-0.4-0.6-1-1.1-1.7-1.5c-0.7-0.4-1.4-0.7-2.1-0.8L121.3,335.5z M119.5,340.4
		c0.6,0,1.1,0.2,1.6,0.5c0.7,0.4,1.2,1.1,1.4,1.9c0.2,0.8,0,1.6-0.4,2.3c-0.4,0.7-1.1,1.2-1.9,1.4c-0.2,0-0.5,0.1-0.7,0.1
		c-0.6,0-1.1-0.2-1.6-0.5c-0.7-0.4-1.2-1.1-1.4-1.9c-0.2-0.8,0-1.6,0.4-2.3c0.1-0.1,0.2-0.3,0.3-0.4c0.4-0.5,1-0.8,1.6-1
		C119,340.4,119.3,340.4,119.5,340.4 M112.5,330.2c2.2,0.3,4.2,1.6,5.2,3.6c0.2,0.5,0.4,1,0.6,1.5l0.5,1.9c-0.2,0-0.4,0.1-0.6,0.1
		c-1.3,0.3-2.4,1-3.3,2l-1.3-1.5c-0.4-0.4-0.7-0.9-0.9-1.4C111.5,334.6,111.5,332.2,112.5,330.2 M110.3,346c-0.1,0-0.2,0-0.2,0
		c-2.2-0.1-4.3-1.3-5.5-3.1c1.3-1.7,3.3-2.7,5.5-2.7c0.1,0,0.2,0,0.3,0c0.5,0,1.1,0.1,1.6,0.3l1.9,0.5c-0.5,1.2-0.6,2.5-0.3,3.8
		c0,0.2,0.1,0.4,0.2,0.6l-2,0.4C111.2,346,110.7,346,110.3,346 M117,352.9c-1.2,1.9-3.2,3.1-5.5,3.2c-0.9-2-0.7-4.4,0.5-6.3
		c0.3-0.5,0.6-0.9,1-1.3l1.4-1.4c0.5,0.6,1,1.1,1.7,1.5c0.7,0.4,1.4,0.7,2.1,0.8l-0.6,1.9C117.5,352,117.3,352.5,117,352.9"/>
	<path class="st3" d="M173.8,330.8l-1.9,3.9l-4.2,0.6l3,3l-0.7,4.2l3.7-2l3.7,2l-0.7-4.2l3-3l-4.2-0.6L173.8,330.8z M168.9,189.4
		l3.7-2l3.7,2l-0.7-4.2l3-3l-4.2-0.6l-1.9-3.9l-1.9,3.9l-4.2,0.6l3,3L168.9,189.4z M150.9,263.6l3.7-2l3.7,2l-0.7-4.2l3-3l-4.2-0.6
		l-1.9-3.9l-1.9,3.9l-4.2,0.6l3,3L150.9,263.6z M150.9,222.5l3.7-2l3.7,2l-0.7-4.3l3-3l-4.2-0.6l-1.9-3.9l-1.9,3.9l-4.2,0.6l3,3
		L150.9,222.5z M157,298.2l-1.9-3.9l-1.9,3.9l-4.2,0.6l3,3l-0.7,4.2l3.7-2l3.7,2l-0.7-4.2l3-3L157,298.2z M313.3,306.1l3.8-2l3.7,2
		l-0.7-4.2l3-3l-4.2-0.6l-1.9-3.9l-1.9,3.9l-4.2,0.6l3,3L313.3,306.1z M295.7,189.4l3.7-2l3.8,2l-0.7-4.2l3-3l-4.2-0.6l-1.9-3.9
		l-1.9,3.9l-4.2,0.6l3,3L295.7,189.4z M313.8,263.6l3.7-2l3.7,2l-0.7-4.2l3-3l-4.2-0.6l-1.9-3.9l-1.9,3.9l-4.2,0.6l3,3L313.8,263.6z
		 M204.8,360.4l-1.9-3.9l-1.9,3.9l-4.2,0.6l3,3l-0.7,4.2l3.7-2l3.7,2L206,364l3-3L204.8,360.4z M237.9,379.4l-1.9-3.9l-1.9,3.9
		L230,380l3,3l-0.7,4.2l3.7-2l3.7,2l-0.7-4.2l3-3L237.9,379.4z M271,360.4l-1.9-3.9l-1.9,3.9l-4.2,0.6l3,3l-0.7,4.2l3.7-2l3.7,2
		l-0.7-4.2l3-3L271,360.4z M313.8,222.5l3.7-2l3.7,2l-0.7-4.3l3-3l-4.2-0.6l-1.9-3.9l-1.9,3.9l-4.2,0.6l3,3L313.8,222.5z
		 M300.2,334.7l-1.9-3.9l-1.9,3.9l-4.2,0.6l3,3l-0.7,4.2l3.7-2l3.7,2l-0.7-4.2l3-3L300.2,334.7z"/>
	<polygon class="st10" points="227,100 223.1,109.1 221,109.1 217,100 219.3,100 222.1,106.5 224.9,100 	"/>
	<polygon class="st10" points="234.8,107.4 234.8,109.1 227.8,109.1 227.8,100 234.6,100 234.6,101.7 229.9,101.7 229.9,103.7 
		234.1,103.7 234.1,105.3 229.9,105.3 229.9,107.4 	"/>
	<path class="st10" d="M242.3,109.1l-1.7-2.5h-0.1h-1.8v2.5h-2.1V100h3.9c0.8,0,1.5,0.1,2.1,0.4c0.6,0.3,1,0.7,1.4,1.1
		c0.3,0.5,0.5,1.1,0.5,1.8c0,0.7-0.2,1.3-0.5,1.7c-0.3,0.5-0.8,0.9-1.4,1.1l2,2.9H242.3z M241.7,102.2c-0.3-0.3-0.8-0.4-1.4-0.4
		h-1.7v3.2h1.7c0.6,0,1.1-0.1,1.4-0.4c0.3-0.3,0.5-0.7,0.5-1.2C242.2,102.8,242.1,102.4,241.7,102.2"/>
	<path class="st10" d="M252,107.2h-4.2l-0.8,1.9h-2.2l4.1-9.1h2.1l4.1,9.1h-2.2L252,107.2z M251.4,105.6l-1.4-3.5l-1.4,3.5H251.4z"
		/>
	<path class="st9" d="M512.2,142.4L492,198.8c-0.9,2.5-2,3-4.4,3h-7.2c-2.5,0-3.6-0.5-4.4-2.8l-20.3-56.6c-0.9-2.4-0.2-3.5,2.4-3.5
		h6.7c4.5,0,5.8,0.7,6.6,3.3l10.4,33.1c1.4,4.8,2.2,10.6,2.2,10.6h0.7c0,0,0.7-5.7,2.2-10.6l10.2-33.2c0.8-2.6,2-3.3,6.5-3.3h6.5
		C512.5,138.8,513.1,140,512.2,142.4"/>
	<path class="st9" d="M561.4,142.5v5.9c0,2.7-0.9,3.5-3.6,3.5h-24.9v11.5h20.4c2.7,0,3.7,0.9,3.7,3.6v5.9c0,2.7-0.9,3.6-3.7,3.6
		h-20.4v12.1h25.7c2.7,0,3.6,1,3.6,3.6v6c0,2.8-1,3.6-3.6,3.6h-36.6c-2.7,0-3.6-0.9-3.6-3.6v-55.8c0-2.8,1-3.6,3.6-3.6h35.7
		C560.5,138.8,561.4,139.7,561.4,142.5"/>
	<path class="st9" d="M619.5,159.2c0,8.9-3.7,15.2-10.3,18.2c0.7,1,1.2,2,1.9,3.1l9.1,17.5c1.2,2.1,0.8,3.8-1.9,3.8h-7.1
		c-4.5,0-6.1-0.7-7.5-3.5l-6.6-13.7c-2-4.1-3.6-5.2-8.8-5.2h-3.6v18.7c0,2.8-1,3.6-3.6,3.6h-7.2c-2.7,0-3.6-0.9-3.6-3.6v-55.8
		c0-2.7,1-3.6,3.6-3.6h24.6C611.4,138.8,619.5,146.4,619.5,159.2 M597.1,152h-12.3v14.6h12.3c4.7,0,7.4-2.7,7.4-7.3
		C604.5,154.6,601.8,152,597.1,152"/>
	<path class="st9" d="M679.6,201.9h-6.7c-4.4,0-5.8-0.7-6.6-3.3l-2.7-8.3h-21.9l-2.8,8.3c-0.9,2.6-2,3.3-6.5,3.3h-6.1
		c-2.7,0-3.3-1.2-2.4-3.6l21.2-56.5c0.9-2.5,2-3,4.4-3h6.8c2.5,0,3.6,0.5,4.4,2.8l21.2,56.6C682.9,200.7,682.2,201.9,679.6,201.9
		 M653.1,152.1h-0.9c0,0,0.1,6.3-2,12.6l-4.6,13.8h14.4l-4.6-13.8C653.2,158.4,653.1,152.1,653.1,152.1"/>
	<path class="st9" d="M710.8,137.5c13.1,0,21.4,5.3,24.9,14.9c1,2.5,0.3,3.7-2.2,4.6l-6.8,2.4c-2.7,0.8-3.6,0.4-4.6-2.2
		c-1.7-4.3-5.3-6.5-11.2-6.5c-7.7,0-11.7,3.6-11.7,10.6v18.1c0,7,4,10.6,11.7,10.6c5.9,0,9.5-2.1,11.2-6.5c1-2.6,2.1-3.2,4.6-2.2
		l6.8,2.4c2.5,0.9,3.2,2.1,2.2,4.6c-3.5,9.6-11.7,14.9-24.9,14.9c-16.8,0-26.2-9.1-26.2-23.9v-17.9
		C684.7,146.6,694.1,137.5,710.8,137.5"/>
	<path class="st9" d="M792.7,159.2c0,8.9-3.7,15.2-10.3,18.2c0.7,1,1.2,2,1.9,3.1l9.1,17.5c1.2,2.1,0.8,3.8-1.9,3.8h-7.1
		c-4.5,0-6.1-0.7-7.4-3.5l-6.6-13.7c-1.9-4.1-3.6-5.2-8.8-5.2H758v18.7c0,2.8-1,3.6-3.6,3.6h-7.2c-2.7,0-3.6-0.9-3.6-3.6v-55.8
		c0-2.7,1-3.6,3.6-3.6h24.6C784.6,138.8,792.7,146.4,792.7,159.2 M770.3,152H758v14.6h12.3c4.7,0,7.4-2.7,7.4-7.3
		C777.7,154.6,775,152,770.3,152"/>
	<path class="st9" d="M827,190c7.5,0,11.3-3.6,11.3-10v-37.6c0-2.7,0.9-3.6,3.6-3.6h7.2c2.7,0,3.7,0.9,3.7,3.6v37.2
		c0,14.3-8.9,23.5-25.7,23.5c-16.8,0-25.7-9.2-25.7-23.5v-37.2c0-2.7,0.9-3.6,3.6-3.6h7.2c2.7,0,3.6,0.9,3.6,3.6V180
		C815.7,186.4,819.5,190,827,190"/>
	<path class="st9" d="M907.8,142.5v5.1c0,1.5-0.5,2.6-1.2,3.6L879,188.6h25.6c2.7,0,3.6,1,3.6,3.6v6c0,2.8-1,3.6-3.6,3.6h-40.4
		c-2.8,0-3.7-0.9-3.7-3.6v-5.1c0-1.4,0.4-2.5,1.2-3.6l27.6-37.5h-24.7c-2.8,0-3.6-0.9-3.6-3.5v-5.9c0-2.8,0.9-3.6,3.6-3.6h39.5
		C906.8,138.8,907.8,139.7,907.8,142.5"/>
	<path class="st9" d="M508.5,256.4v10.9c0,12.7-8.5,21.2-24.3,21.2c-15.9,0-24.4-8.5-24.4-22.4v-20.9c0-13.8,8.4-22.3,24.3-22.3
		c13.6,0,20.5,5.3,23.6,15.2c0.4,1.3,0.2,1.9-1.1,2.3l-2.7,1c-1.2,0.4-1.8,0.2-2.3-1.1c-2.4-7.7-7.3-11.4-17.5-11.4
		c-11.8,0-17.9,6-17.9,16.2v21c0,10.3,6.3,16.4,18,16.4c11.6,0,18-6.1,18-15.3v-6.7h-17.1c-1.3,0-1.8-0.4-1.8-1.8v-2.5
		c0-1.3,0.4-1.8,1.8-1.8h21.7C508.1,254.7,508.5,255.1,508.5,256.4"/>
	<path class="st9" d="M542.3,223.1c15.8,0,24.3,8.4,24.3,22.3v20.9c0,13.9-8.5,22.3-24.3,22.3c-15.9,0-24.4-8.4-24.4-22.3v-20.9
		C517.9,231.5,526.4,223.1,542.3,223.1 M542.3,229c-11.7,0-18,6-18,16.3v20.9c0,10.3,6.3,16.3,18,16.3c11.6,0,17.9-6,17.9-16.3
		v-20.9C560.3,235,554,229,542.3,229"/>
	<path class="st9" d="M622.6,240.4c0,7.2-2.8,11.8-8.4,14.2v0.2c6.8,1.8,10.6,7.1,10.6,15.5c0,10.9-7.3,17-18.4,17h-26
		c-1.3,0-1.8-0.4-1.8-1.8v-59.5c0-1.3,0.4-1.8,1.8-1.8h25C616.3,224.3,622.6,230,622.6,240.4 M604.7,230.3H585v22h19.6
		c7.3,0,11.4-3.7,11.4-11.1C616,234,612,230.3,604.7,230.3 M606.2,258.1H585v23.2h21.1c7.6,0,11.9-3.9,11.9-11.5
		C618.1,262.2,613.8,258.1,606.2,258.1"/>
	<path class="st9" d="M637.5,224.3h2.9c1.3,0,1.7,0.4,1.7,1.8v59.5c0,1.3-0.4,1.8-1.7,1.8h-2.9c-1.3,0-1.8-0.5-1.8-1.8v-59.5
		C635.7,224.7,636.2,224.3,637.5,224.3"/>
	<path class="st9" d="M695.4,226.1v2.5c0,1.3-0.4,1.8-1.7,1.8h-31.3v22h27.3c1.2,0,1.7,0.4,1.7,1.8v2.5c0,1.3-0.5,1.8-1.7,1.8h-27.3
		v22.9h32.5c1.2,0,1.7,0.4,1.7,1.8v2.5c0,1.3-0.5,1.8-1.7,1.8h-37.1c-1.3,0-1.8-0.5-1.8-1.8v-59.5c0-1.3,0.4-1.8,1.8-1.8h36
		C695,224.3,695.4,224.7,695.4,226.1"/>
	<path class="st9" d="M752.4,242.7c0,9.9-5.4,16-14.3,17.4c2.7,1.2,4.3,3.2,5.8,6.1l9.9,19.4c0.6,1,0.5,1.8-0.9,1.8H750
		c-2.1,0-2.8-0.3-3.5-1.6l-8.6-17.1c-2.7-5.5-5.7-7.7-12.7-7.7h-12v24.7c0,1.3-0.4,1.8-1.7,1.8h-2.9c-1.3,0-1.8-0.5-1.8-1.8v-59.5
		c0-1.3,0.4-1.8,1.8-1.8h25.1C745.4,224.3,752.4,231,752.4,242.7 M733.1,230.3h-19.9v24.5h19.9c7.9,0,12.6-4.3,12.6-12.2
		C745.7,234.8,741.2,230.3,733.1,230.3"/>
	<path class="st9" d="M811.5,226.1v59.5c0,1.3-0.4,1.8-1.8,1.8h-2.8c-1,0-1.4-0.2-1.9-1l-28.3-40.7c-3.3-4.9-5.8-10.7-7.1-12.7h-0.4
		c0,2.5,1,9.1,1,15.7v36.8c0,1.3-0.4,1.8-1.7,1.8h-2.8c-1.3,0-1.8-0.5-1.8-1.8v-59.5c0-1.3,0.5-1.8,1.8-1.8h2.9
		c1.1,0,1.5,0.4,1.9,0.9l27.6,39.9c3.6,5.3,6.3,11.3,7.9,13.4h0.3c0-2.8-1.1-9.5-1.1-16.5v-36c0-1.2,0.4-1.7,1.8-1.7h2.8
		C811.1,224.3,811.5,224.7,811.5,226.1"/>
	<path class="st9" d="M847.9,223.1c15.8,0,24.3,8.4,24.3,22.3v20.9c0,13.9-8.5,22.3-24.3,22.3c-15.9,0-24.4-8.4-24.4-22.3v-20.9
		C823.5,231.5,832,223.1,847.9,223.1 M847.9,229c-11.7,0-18,6-18,16.3v20.9c0,10.3,6.3,16.3,18,16.3c11.6,0,17.9-6,17.9-16.3v-20.9
		C865.9,235,859.6,229,847.9,229"/>
	<path class="st9" d="M507.9,333.2v16.2c0,14.5-9.2,23.4-25.7,23.4h-18.7c-1.3,0-1.8-0.4-1.8-1.8v-59.5c0-1.3,0.4-1.8,1.8-1.8h18.7
		C498.7,309.8,507.9,318.7,507.9,333.2 M482.1,315.8H468v51h14.1c12.4,0,19.3-6.3,19.3-17.4v-16.2
		C501.4,322.1,494.6,315.8,482.1,315.8"/>
	<path class="st9" d="M559,311.5v2.5c0,1.3-0.5,1.8-1.7,1.8H526v22h27.3c1.3,0,1.7,0.4,1.7,1.8v2.5c0,1.3-0.4,1.8-1.7,1.8H526v22.9
		h32.5c1.3,0,1.7,0.4,1.7,1.8v2.5c0,1.3-0.4,1.8-1.7,1.8h-37.1c-1.3,0-1.8-0.4-1.8-1.8v-59.5c0-1.3,0.4-1.8,1.8-1.8h36
		C558.6,309.8,559,310.2,559,311.5"/>
	<path class="st9" d="M576.9,311.5v55.2H607c1.2,0,1.7,0.4,1.7,1.8v2.5c0,1.3-0.4,1.8-1.7,1.8h-34.7c-1.3,0-1.8-0.4-1.8-1.8v-59.5
		c0-1.3,0.4-1.8,1.8-1.8h2.9C576.5,309.8,576.9,310.2,576.9,311.5"/>
	<path class="st9" d="M675.2,311.5v2.5c0,1.3-0.4,1.8-1.7,1.8h-31.3v22h27.3c1.2,0,1.7,0.4,1.7,1.8v2.5c0,1.3-0.4,1.8-1.7,1.8h-27.3
		v22.9h32.5c1.2,0,1.7,0.4,1.7,1.8v2.5c0,1.3-0.5,1.8-1.7,1.8h-37.1c-1.3,0-1.8-0.4-1.8-1.8v-59.5c0-1.3,0.4-1.8,1.8-1.8h36
		C674.7,309.8,675.2,310.2,675.2,311.5"/>
	<path class="st9" d="M707.2,308.5c12.3,0,18.8,4.3,23.4,13.7c0.6,1.2,0.3,1.8-1,2.3l-2.8,1.2c-1.1,0.5-1.6,0.4-2.3-0.8
		c-3.5-6.8-8.4-10.3-17.3-10.3c-10.5,0-16.3,4.2-16.3,11.7c0,9.1,9,10.6,18.4,11.6c10.7,1.2,22.3,3.3,22.3,17.4
		c0,11.6-8.4,18.6-24.2,18.6c-12.9,0-20-5-24.1-15.3c-0.4-1.3-0.2-1.9,1.1-2.4l2.7-1c1.2-0.4,1.7-0.2,2.3,1.1
		c3.3,7.7,9.1,11.5,17.9,11.5c11.6,0,17.7-4.1,17.7-12.4c0-9.1-8.3-10.4-17.3-11.4c-11-1.2-23.4-3.1-23.4-17.5
		C684.3,315.8,692.6,308.5,707.2,308.5"/>
	<path class="st9" d="M781.8,311.5v2.5c0,1.3-0.4,1.8-1.8,1.8h-17.9V371c0,1.3-0.4,1.8-1.8,1.8h-2.9c-1.3,0-1.8-0.4-1.8-1.8v-55.2
		h-17.9c-1.3,0-1.8-0.4-1.8-1.8v-2.5c0-1.3,0.4-1.8,1.8-1.8H780C781.3,309.8,781.8,310.2,781.8,311.5"/>
	<path class="st9" d="M830.5,372.8H828c-2.1,0-2.9-0.3-3.2-1.6l-6.7-16.9h-27.8l-6.7,16.9c-0.3,1.2-1,1.6-3.1,1.6h-2.4
		c-1.3,0-1.6-0.6-1.1-1.7l23.8-60.1c0.4-1.2,1-1.5,2.2-1.5h2.7c1.2,0,1.9,0.3,2.3,1.4l23.8,60.2
		C832.2,372.2,831.9,372.8,830.5,372.8 M804.4,315.6H804c0,0.3-0.1,3.1-1.1,6.1L792.2,349h24.1l-10.7-27.3
		C804.6,318.7,804.4,315.9,804.4,315.6"/>
	<path class="st9" d="M886,333.2v16.2c0,14.5-9.2,23.4-25.7,23.4h-18.7c-1.3,0-1.8-0.4-1.8-1.8v-59.5c0-1.3,0.5-1.8,1.8-1.8h18.7
		C876.8,309.8,886,318.7,886,333.2 M860.3,315.8h-14.1v51h14.1c12.4,0,19.3-6.3,19.3-17.4v-16.2
		C879.5,322.1,872.7,315.8,860.3,315.8"/>
	<path class="st9" d="M920.3,308.5c15.8,0,24.3,8.4,24.3,22.3v21c0,13.9-8.5,22.3-24.3,22.3c-15.9,0-24.4-8.4-24.4-22.3v-21
		C895.9,317,904.4,308.5,920.3,308.5 M920.3,314.5c-11.7,0-18,6-18,16.3v21c0,10.3,6.3,16.3,18,16.3c11.6,0,17.9-6,17.9-16.3v-21
		C938.2,320.5,931.9,314.5,920.3,314.5"/>
</g>
</svg>
